<?xml version="1.0" encoding="UTF-8"?>
<!DOCTYPE svg PUBLIC "-//W3C//DTD SVG 1.1//EN" "http://www.w3.org/Graphics/SVG/1.1/DTD/svg11.dtd">
<!-- Creator: CorelDRAW X7 -->
<svg xmlns="http://www.w3.org/2000/svg" xml:space="preserve" width="172.889mm" height="138.889mm" version="1.1" style="shape-rendering:geometricPrecision; text-rendering:geometricPrecision; image-rendering:optimizeQuality; fill-rule:evenodd; clip-rule:evenodd"
viewBox="0 0 17289 13889"
 xmlns:xlink="http://www.w3.org/1999/xlink">
 <defs>
  <style type="text/css">
   <![CDATA[
    .fil7 {fill:#00000F}
    .fil41 {fill:#00051A}
    .fil32 {fill:#002846}
    .fil35 {fill:#004B83}
    .fil21 {fill:#00878A}
    .fil8 {fill:#0F1536}
    .fil31 {fill:#1874BA}
    .fil3 {fill:#1D3D90}
    .fil20 {fill:#38A7AA}
    .fil36 {fill:#3B3F5E}
    .fil37 {fill:#3FA8AC}
    .fil11 {fill:#5DB8BC}
    .fil22 {fill:#89CCCF}
    .fil2 {fill:#9EB1D8}
    .fil6 {fill:#ACBFE2}
    .fil1 {fill:#B3C4E6}
    .fil13 {fill:#B83470}
    .fil4 {fill:#BFCDE9}
    .fil26 {fill:#C6C3D1}
    .fil23 {fill:#D64B46}
    .fil24 {fill:#E13B83}
    .fil0 {fill:#E1E8F6}
    .fil5 {fill:#E4E1E8}
    .fil14 {fill:#E84D90}
    .fil40 {fill:#E95B4D}
    .fil25 {fill:#EB678E}
    .fil42 {fill:#EC2424}
    .fil17 {fill:#ED7001}
    .fil34 {fill:#ED756E}
    .fil15 {fill:#ED75A8}
    .fil33 {fill:#ED9072}
    .fil16 {fill:#F08900}
    .fil30 {fill:#F09EA8}
    .fil10 {fill:#F29C93}
    .fil39 {fill:#F2C6BF}
    .fil27 {fill:#F6CACF}
    .fil28 {fill:#F7AC00}
    .fil12 {fill:#FBC100}
    .fil19 {fill:#FBE4D6}
    .fil38 {fill:#FBEBE4}
    .fil18 {fill:#FDD100}
    .fil29 {fill:#FDDDB1}
    .fil9 {fill:white}
   ]]>
  </style>
 </defs>
 <g id="OBJECTS">
  <metadata id="CorelCorpID_0Corel-Layer"/>
  <path class="fil0" d="M14248 13833c1546,0 2810,-1264 2810,-2810l0 0c0,-1546 -1264,-2810 -2810,-2810 -654,0 -1188,-535 -1188,-1189 0,-653 534,-1188 1188,-1188l141 0c680,0 1236,-556 1236,-1235 0,-680 -556,-1236 -1236,-1236l-433 0c-265,0 -481,-216 -481,-481 0,-264 216,-481 481,-481l318 0c183,0 332,-149 332,-332l0 0c0,-182 -149,-332 -332,-332l-2143 0c-286,0 -521,-234 -521,-521l0 0c0,-287 235,-522 521,-522l641 0c183,0 332,-149 332,-332l0 0c0,-182 -149,-332 -332,-332l-8098 0c-239,0 -434,195 -434,433l0 0c0,239 195,434 434,434l3832 0c374,0 680,306 680,680l0 0c0,375 -306,681 -680,681l-7003 0c-239,0 -434,195 -434,433l0 0c0,238 195,433 434,433l2469 0c346,0 628,283 628,628 0,345 -282,627 -628,627l-566 0c-886,0 -1612,726 -1612,1612l0 0c0,887 726,1613 1612,1613l185 0c853,0 1550,697 1550,1550 0,853 -697,1551 -1550,1551l-1894 0c-860,0 -1563,703 -1563,1563 0,860 703,1563 1563,1563 4449,0 8102,0 12551,0zm-10683 -12934l0 0c-239,0 -433,-194 -433,-434 0,-239 194,-433 433,-433 239,0 433,194 433,433 0,240 -194,434 -433,434zm11641 1504l0 0c-183,0 -332,-148 -332,-332 0,-183 149,-332 332,-332 183,0 332,149 332,332 0,184 -149,332 -332,332z"/>
  <path class="fil1" d="M17218 8332c47,-1103 -1077,-840 -1756,-95 -679,745 -2674,3855 -3754,4484 -419,244 -333,303 6,226 1690,-381 5440,-3095 5504,-4615z"/>
  <path class="fil2" d="M11432 12926c-24,43 19,59 111,50 2742,-1155 5176,-4894 5184,-4906 13,-21 7,-48 -13,-62 -21,-13 -48,-7 -62,13 -8,12 -2475,3802 -5220,4905z"/>
  <path class="fil3" d="M16129 4731c-414,-825 -1128,-175 -1321,644 -193,820 -385,3902 -919,4801 -206,348 -119,355 97,162 1078,-966 2714,-4471 2143,-5607z"/>
  <path class="fil1" d="M13772 10437c0,41 37,35 101,-8 1532,-1958 1790,-5678 1791,-5689 1,-21 -14,-39 -35,-40 -20,-2 -38,14 -40,34 0,12 -261,3782 -1817,5703z"/>
  <path class="fil3" d="M15703 11058c835,217 381,996 -330,1333 -306,144 -991,370 -1731,633l-1709 0c1152,-1072 2928,-2186 3770,-1966z"/>
  <path class="fil4" d="M12366 13024c1562,-1005 3413,-1537 3421,-1539 18,-6 37,5 43,23 5,19 -5,38 -24,44 -8,2 -1781,512 -3313,1472l-127 0z"/>
  <path class="fil4" d="M6112 1979c413,-1024 1328,-320 1638,639 311,960 841,4616 1565,5636 280,395 178,412 -99,203 -1381,-1046 -3674,-5068 -3104,-6478z"/>
  <path class="fil5" d="M9481 8554c4,49 -41,46 -121,0 -2019,-2185 -2690,-6596 -2692,-6610 -4,-25 13,-47 37,-51 24,-4 47,13 51,37 2,14 682,4485 2725,6624z"/>
  <path class="fil6" d="M8540 2853c588,-712 1139,81 1144,923 5,842 -496,3889 -178,4884 124,386 37,374 -130,137 -835,-1182 -1645,-4965 -836,-5944z"/>
  <path class="fil0" d="M9562 8941c-9,40 -44,26 -96,-30 -1056,-2251 -475,-5934 -474,-5946 4,-20 22,-34 43,-31 20,3 34,22 31,42 -2,12 -591,3745 496,5965z"/>
  <path class="fil3" d="M5773 5179c-863,-16 -637,857 -43,1373 595,517 3060,2017 3571,2849 198,323 242,254 176,-9 -329,-1312 -2517,-4190 -3704,-4213z"/>
  <path class="fil1" d="M9466 9612c33,18 45,-15 37,-87 -953,-2120 -3917,-3951 -3926,-3957 -16,-10 -38,-5 -48,11 -10,16 -5,38 11,48 10,6 3014,1862 3926,3985z"/>
  <path class="fil7" d="M10000 2398l3936 0c360,0 656,295 656,656l0 8937c0,361 -296,656 -656,656l-3936 0c-361,0 -656,-295 -656,-656l0 -8937c0,-361 295,-656 656,-656z"/>
  <path class="fil7" d="M9821 2398l3935 0c361,0 656,295 656,656l0 8937c0,361 -295,656 -656,656l-3935 0c-361,0 -656,-295 -656,-656l0 -8937c0,-361 295,-656 656,-656z"/>
  <path class="fil8" d="M9821 2502c-304,0 -552,249 -552,552l0 8937c0,304 248,552 552,552l3935 0c303,0 552,-248 552,-552l0 -8937c0,-303 -249,-552 -552,-552l-3935 0z"/>
  <path class="fil9" d="M9821 2711c-189,0 -344,155 -344,343l0 8937c0,189 155,344 344,344l3935 0c188,0 343,-155 343,-344l0 -8937c0,-188 -155,-343 -343,-343l-3935 0z"/>
  <path class="fil8" d="M11788 3023l-1176 0c-83,0 -151,-67 -151,-150l0 -58c-20,-60 -76,-104 -143,-104l143 -53 0 -54 1327 0 1328 0 0 54 143 53c-67,0 -124,44 -143,104l0 58c0,83 -68,150 -151,150l-1177 0z"/>
  <path class="fil7" d="M11492 2816c-23,0 -41,-18 -41,-41 0,-23 18,-41 41,-41l766 0c23,0 41,18 41,41 0,23 -18,41 -41,41l-766 0zm-138 -82l0 0c23,0 41,18 41,41 0,23 -18,41 -41,41l-35 0c-23,0 -42,-18 -42,-41 0,-23 19,-41 42,-41l35 0z"/>
  <path class="fil10" d="M11902 4518l1813 0 0 4399 -1813 0 0 -4399zm214 1323l0 0c-26,0 -47,21 -47,47 0,26 21,47 47,47l1365 0c25,0 47,-21 47,-47 0,-26 -22,-47 -47,-47l-1365 0zm0 234l0 0c-26,0 -47,21 -47,47 0,26 21,48 47,48l1365 0c25,0 47,-22 47,-48 0,-26 -22,-47 -47,-47l-1365 0zm0 234l0 0c-26,0 -47,22 -47,48 0,26 21,47 47,47l1365 0c25,0 47,-21 47,-47 0,-26 -22,-48 -47,-48l-1365 0zm0 235l0 0c-26,0 -47,21 -47,47 0,26 21,47 47,47l1365 0c25,0 47,-21 47,-47 0,-26 -22,-47 -47,-47l-1365 0zm0 234l0 0c-26,0 -47,21 -47,47 0,26 21,47 47,47l1365 0c25,0 47,-21 47,-47 0,-26 -22,-47 -47,-47l-1365 0zm0 234l0 0c-26,0 -47,21 -47,47 0,26 21,48 47,48l1365 0c25,0 47,-22 47,-48 0,-26 -22,-47 -47,-47l-1365 0zm0 234l0 0c-26,0 -47,22 -47,47 0,27 21,48 47,48l1365 0c25,0 47,-21 47,-48 0,-25 -22,-47 -47,-47l-1365 0zm0 234l0 0c-26,0 -47,22 -47,48 0,26 21,47 47,47l1365 0c25,0 47,-21 47,-47 0,-26 -22,-48 -47,-48l-1365 0z"/>
  <polygon class="fil2" points="9863,7254 11801,7254 11801,7509 9863,7509 "/>
  <polygon class="fil2" points="9762,4261 13715,4261 13715,4125 9762,4125 "/>
  <path class="fil11" d="M10012 7760l1641 0c26,0 47,21 47,47 0,26 -21,47 -47,47l-1641 0c-26,0 -48,-21 -48,-47 0,-26 22,-47 48,-47z"/>
  <path class="fil11" d="M10012 7994l1641 0c26,0 47,21 47,47 0,26 -21,47 -47,47l-1641 0c-26,0 -48,-21 -48,-47 0,-26 22,-47 48,-47z"/>
  <path class="fil11" d="M10012 8228l1641 0c26,0 47,21 47,47 0,26 -21,47 -47,47l-1641 0c-26,0 -48,-21 -48,-47 0,-26 22,-47 48,-47z"/>
  <path class="fil11" d="M10012 8462l1641 0c26,0 47,21 47,47 0,26 -21,48 -47,48l-1641 0c-26,0 -48,-22 -48,-48 0,-26 22,-47 48,-47z"/>
  <path class="fil11" d="M10012 8696l1641 0c26,0 47,22 47,48 0,26 -21,47 -47,47l-1641 0c-26,0 -48,-21 -48,-47 0,-26 22,-48 48,-48z"/>
  <path class="fil11" d="M10012 8931l1641 0c26,0 47,21 47,47 0,26 -21,47 -47,47l-1641 0c-26,0 -48,-21 -48,-47 0,-26 22,-47 48,-47z"/>
  <path class="fil11" d="M10012 9165l1641 0c26,0 47,21 47,47 0,26 -21,47 -47,47l-1641 0c-26,0 -48,-21 -48,-47 0,-26 22,-47 48,-47z"/>
  <path class="fil11" d="M10012 9399l1641 0c26,0 47,21 47,47 0,26 -21,48 -47,48l-1641 0c-26,0 -48,-22 -48,-48 0,-26 22,-47 48,-47z"/>
  <path class="fil12" d="M10012 4728l1641 0c26,0 47,22 47,48 0,26 -21,47 -47,47l-1641 0c-26,0 -48,-21 -48,-47 0,-26 22,-48 48,-48z"/>
  <path class="fil12" d="M10012 4963l1641 0c26,0 47,21 47,47 0,26 -21,47 -47,47l-1641 0c-26,0 -48,-21 -48,-47 0,-26 22,-47 48,-47z"/>
  <path class="fil12" d="M10012 5197l1641 0c26,0 47,21 47,47 0,26 -21,47 -47,47l-1641 0c-26,0 -48,-21 -48,-47 0,-26 22,-47 48,-47z"/>
  <path class="fil12" d="M10012 5431l1641 0c26,0 47,21 47,47 0,26 -21,48 -47,48l-1641 0c-26,0 -48,-22 -48,-48 0,-26 22,-47 48,-47z"/>
  <path class="fil12" d="M10012 5665l1641 0c26,0 47,22 47,48 0,26 -21,47 -47,47l-1641 0c-26,0 -48,-21 -48,-47 0,-26 22,-48 48,-48z"/>
  <path class="fil12" d="M10012 5900l1641 0c26,0 47,21 47,47 0,26 -21,47 -47,47l-1641 0c-26,0 -48,-21 -48,-47 0,-26 22,-47 48,-47z"/>
  <polygon class="fil2" points="9863,6294 11801,6294 11801,6548 9863,6548 "/>
  <path class="fil2" d="M13573 11644l-278 0c-13,0 -25,6 -34,15l0 0c-9,9 -15,21 -15,35l0 284c0,8 1,12 10,16 15,6 15,1 20,-8l1 -1c4,-8 20,-35 45,-53 14,-10 29,-17 47,-17l22 0 0 18c0,11 4,21 11,29 8,7 18,12 29,12l152 0c12,0 23,5 32,12 17,12 29,30 32,36l1 2c5,9 8,13 21,8 9,-4 9,-8 9,-16 2,-68 0,-142 0,-211 0,-11 -4,-21 -12,-29 -7,-7 -17,-11 -28,-11l-16 0 0 -71c0,-14 -5,-26 -14,-35 -9,-9 -21,-15 -35,-15zm-239 177l0 0 -16 0c-6,0 -10,-5 -10,-10 0,-5 4,-9 10,-9l16 0c6,0 10,4 10,9 0,5 -4,10 -10,10zm36 -19l0 0 154 0c5,0 9,4 9,9 0,5 -4,10 -9,10l-154 0c-5,0 -9,-5 -9,-10 0,-5 4,-9 9,-9zm164 -73l0 0 17 0c5,0 9,4 9,9 0,5 -4,10 -9,10l-17 0c-5,0 -9,-5 -9,-10 0,-5 4,-9 9,-9zm-36 19l0 0 -180 0c-6,0 -10,-5 -10,-10 0,-5 4,-9 10,-9l180 0c6,0 10,4 10,9 0,5 -4,10 -10,10zm-76 167l0 0 151 0c14,0 26,-6 35,-14 9,-9 14,-22 14,-35l0 -70 16 0c2,0 4,1 6,3 2,1 3,4 3,6l0 166c-4,-4 -9,-7 -13,-11 -14,-10 -31,-18 -51,-18l-152 0c-2,0 -5,-1 -6,-2 -2,-2 -3,-4 -3,-7l0 -18zm-127 -239l0 0 278 0c5,0 9,2 13,5 3,3 5,8 5,13l0 86 0 86c0,5 -2,9 -5,12 -4,3 -8,5 -13,5l-167 0 -37 0c-25,0 -47,10 -65,24 -10,7 -19,15 -26,23l0 -236c0,-5 2,-10 5,-13 3,-3 7,-5 12,-5z"/>
  <path class="fil2" d="M12293 11505c-32,0 -60,13 -81,33 -21,21 -34,50 -34,81 0,32 13,60 34,81l1 1c20,20 49,33 80,33 31,0 60,-13 81,-34l0 0c20,-21 33,-49 33,-81 0,-31 -13,-60 -33,-81 -21,-20 -50,-33 -81,-33zm-128 410l0 0 0 -1 0 0 0 -10c0,-35 14,-66 37,-89l1 -1c23,-23 55,-38 90,-38 35,0 67,15 90,38 23,23 37,55 37,90l0 10 0 0 0 1 0 81c0,2 -1,3 -2,5l0 0c-1,1 -3,2 -4,2l-242 0c-2,0 -3,-1 -5,-2 -1,-2 -2,-3 -2,-5l0 -81zm-31 -1l0 0 0 1 0 81c0,10 4,20 11,27l0 0c7,7 17,11 27,11l242 0c10,0 19,-4 26,-11l0 0c7,-7 12,-17 12,-27l0 -81 0 -1 0 0 0 -10c0,-44 -18,-84 -47,-112 -29,-29 -69,-47 -112,-47 -44,0 -84,18 -112,47l-1 0c-29,29 -46,69 -46,112l0 10 0 0zm100 -353l0 0c15,-15 36,-25 59,-25 23,0 43,10 58,25 15,15 25,35 25,58 0,23 -10,44 -25,59l0 0c-15,15 -35,24 -58,24 -23,0 -43,-9 -58,-23l-1 -1c-15,-15 -24,-36 -24,-59 0,-23 9,-43 24,-58z"/>
  <path class="fil2" d="M11069 11661c-10,3 -19,7 -28,13 -10,5 -18,11 -26,18l-32 -19 -2 0c-5,-3 -11,-4 -17,-2 -6,1 -11,5 -15,11l-29 51c-4,6 -4,13 -3,19 2,6 6,11 12,14l32 19c-1,3 -1,6 -1,10 -1,7 -2,14 -2,22 0,7 1,14 2,21 0,4 0,7 1,10l-32 19c-6,3 -10,8 -12,14 -1,6 0,13 3,19l29 51c4,6 9,10 15,11 6,2 13,1 18,-2l33 -19c8,7 16,13 26,18 9,6 18,10 28,13l0 38c0,6 3,13 7,17 5,4 11,7 17,7l60 0c6,0 12,-3 17,-7l1 -2c4,-4 6,-9 6,-15l0 -38c10,-3 19,-7 28,-13 10,-5 18,-11 26,-18l32 19 2 1c5,2 11,3 17,1 6,-1 11,-5 15,-11l29 -51c3,-6 4,-13 3,-19 -2,-6 -6,-11 -12,-14l-32 -19c1,-3 1,-6 1,-10 1,-7 2,-14 2,-21 0,-8 -1,-15 -2,-22 0,-4 0,-7 -1,-10l32 -19c6,-3 10,-8 12,-14 1,-6 0,-13 -3,-19l-29 -51c-4,-6 -9,-10 -15,-11 -6,-2 -13,-1 -19,2l-32 19c-8,-7 -16,-13 -26,-18 -9,-6 -18,-10 -28,-13l0 -38c0,-6 -3,-12 -7,-17 -5,-4 -11,-7 -17,-7l-60 0c-6,0 -12,3 -17,7l-1 2c-4,4 -6,9 -6,15l0 38zm-13 40l0 0c10,-6 21,-10 32,-13 7,-2 13,-8 13,-16l0 -42 44 0 0 42c0,7 5,14 12,15 12,3 23,8 33,14 10,6 19,13 27,21 5,5 13,7 20,3l36 -21 22 39 -35 20c-7,3 -10,11 -8,18 1,6 3,12 3,18 1,5 1,11 1,18 0,6 0,12 -1,17 0,6 -2,12 -3,18l0 0c-2,6 1,14 7,17l36 21 -22 39 -36 -21c-6,-3 -14,-3 -19,3 -9,8 -18,15 -28,21 -10,6 -21,10 -32,13 -7,2 -13,8 -13,16l0 42 -44 0 0 -42c0,-7 -5,-14 -12,-15 -12,-3 -23,-8 -33,-14 -10,-6 -19,-13 -27,-21 -5,-5 -13,-7 -20,-3l-36 21 -22 -39 35 -20c6,-3 10,-11 8,-18 -1,-6 -3,-12 -3,-18 -1,-5 -1,-11 -1,-17 0,-7 0,-13 1,-18 0,-6 2,-12 3,-18l0 0c2,-6 -1,-14 -7,-17l-36 -21 22 -39 36 21c6,4 14,3 19,-3 9,-8 18,-15 28,-21zm67 31l0 0c23,0 43,9 59,24l1 1c15,15 24,36 24,60 0,23 -9,44 -24,59l-1 0c-15,15 -36,25 -59,25 -23,0 -44,-10 -60,-25 -15,-15 -24,-36 -24,-59 0,-24 9,-45 24,-60 16,-15 37,-25 60,-25zm-37 47l0 0c9,-9 22,-15 37,-15 14,0 27,5 37,15l0 0c10,10 16,23 16,38 0,14 -6,27 -16,37l0 0c-9,9 -22,15 -37,15 -15,0 -28,-6 -37,-15 -10,-10 -16,-23 -16,-37 0,-15 6,-28 16,-38z"/>
  <path class="fil2" d="M9838 11764c-27,27 -41,62 -41,98 0,36 14,71 41,99l1 1c27,26 63,40 98,40 31,0 61,-11 87,-31l58 58c6,7 16,7 22,0 6,-6 6,-16 0,-22l-58 -58c20,-25 30,-56 30,-87 0,-36 -13,-71 -41,-98 -27,-28 -62,-41 -98,-41 -36,0 -71,13 -99,40l0 1zm176 174l0 0 -1 0 0 1c-21,21 -49,31 -76,31 -27,0 -55,-10 -76,-31l0 -1c-21,-21 -32,-48 -32,-76 0,-28 11,-55 32,-76 21,-21 48,-32 76,-32 28,0 55,11 76,32 21,21 32,48 32,76 0,28 -11,55 -31,76z"/>
  <path class="fil2" d="M9722 2951c-7,0 -14,-7 -14,-14 0,-8 7,-14 14,-14l306 0c8,0 14,6 14,14 0,7 -6,14 -14,14l-306 0zm0 200l0 0c-7,0 -14,-6 -14,-14 0,-7 7,-14 14,-14l306 0c8,0 14,7 14,14 0,8 -6,14 -14,14l-306 0zm0 -100l0 0c-7,0 -14,-6 -14,-14 0,-8 7,-14 14,-14l306 0c8,0 14,6 14,14 0,8 -6,14 -14,14l-306 0z"/>
  <path class="fil2" d="M13756 2949l-368 16 180 0 0 144 -180 0c-4,0 -7,-1 -10,-4 -3,-3 -4,-6 -4,-10l0 -116c0,-4 1,-7 4,-10 3,-3 6,-4 10,-4l368 -16zm-30 -12l0 0 -338 0c-11,0 -22,5 -30,12 -7,8 -12,19 -12,30l0 116c0,11 5,22 12,30 8,7 19,12 30,12l338 0c11,0 21,-4 29,-11l1 -1c7,-8 12,-19 12,-30l0 -116c0,-11 -5,-22 -13,-30 -7,-7 -18,-12 -29,-12z"/>
  <path class="fil2" d="M13521 11184c15,0 28,12 28,28 0,15 -13,28 -28,28l-1480 0c-15,0 -28,-13 -28,-28 0,-16 13,-28 28,-28l1480 0zm-1731 0l0 0c15,0 28,12 28,28 0,15 -13,28 -28,28l-170 0c-15,0 -28,-13 -28,-28 0,-16 13,-28 28,-28l170 0zm1731 -275l0 0c15,0 28,13 28,28 0,16 -13,28 -28,28l-953 0c-15,0 -28,-12 -28,-28 0,-15 13,-28 28,-28l953 0zm-1086 0l0 0c15,0 28,13 28,28 0,16 -13,28 -28,28l-815 0c-15,0 -28,-12 -28,-28 0,-15 13,-28 28,-28l815 0zm1086 -274l0 0c15,0 28,12 28,28 0,15 -13,28 -28,28l-342 0c-16,0 -28,-13 -28,-28 0,-16 12,-28 28,-28l342 0zm-574 0l0 0c16,0 28,12 28,28 0,15 -12,28 -28,28l-854 0c-16,0 -28,-13 -28,-28 0,-16 12,-28 28,-28l854 0zm-987 0l0 0c15,0 28,12 28,28 0,15 -13,28 -28,28l-340 0c-15,0 -28,-13 -28,-28 0,-16 13,-28 28,-28l340 0zm-330 -275l0 0c15,0 28,13 28,28 0,16 -13,28 -28,28l-1000 0c-15,0 -28,-12 -28,-28 0,-15 13,-28 28,-28l1000 0zm-1256 0l0 0c15,0 28,13 28,28 0,16 -13,28 -28,28l-419 0c-15,0 -27,-12 -27,-28 0,-15 12,-28 27,-28l419 0zm1256 -274l0 0c15,0 28,12 28,28 0,15 -13,27 -28,27l-325 0c-16,0 -28,-12 -28,-27 0,-16 12,-28 28,-28l325 0zm-409 0l0 0c15,0 28,12 28,28 0,15 -13,27 -28,27l-867 0c-15,0 -28,-12 -28,-27 0,-16 13,-28 28,-28l867 0zm-1029 0l0 0c15,0 28,12 28,28 0,15 -13,27 -28,27l-237 0c-15,0 -27,-12 -27,-27 0,-16 12,-28 27,-28l237 0zm1438 -275l0 0c15,0 28,13 28,28 0,15 -13,28 -28,28l-739 0c-15,0 -28,-13 -28,-28 0,-15 13,-28 28,-28l739 0zm-867 0l0 0c15,0 28,13 28,28 0,15 -13,28 -28,28l-808 0c-15,0 -27,-13 -27,-28 0,-15 12,-28 27,-28l808 0z"/>
  <path class="fil2" d="M11330 11212l-1338 0c-41,0 -74,-33 -74,-74l0 -329c0,-40 33,-74 74,-74l1338 0c40,0 74,34 74,74l0 329c0,41 -34,74 -74,74zm-1157 -197l0 0c0,-12 -3,-22 -10,-31 -6,-8 -18,-16 -35,-25 -14,-6 -22,-10 -25,-13 -4,-2 -7,-5 -8,-7 -2,-3 -3,-6 -3,-9 0,-6 2,-10 6,-14 4,-3 10,-5 18,-5 6,0 12,1 19,2 6,2 14,5 24,9l13 -31c-10,-4 -19,-7 -27,-9 -9,-3 -18,-4 -28,-4 -20,0 -35,5 -46,14 -11,10 -17,23 -17,39 0,9 2,16 5,23 3,6 8,12 14,17 5,5 14,10 25,15 12,6 20,10 24,13 4,3 7,5 9,8 2,3 3,6 3,10 0,6 -2,11 -7,15 -4,3 -11,5 -20,5 -7,0 -15,-1 -23,-4 -9,-2 -20,-6 -32,-12l0 37c15,7 33,11 52,11 22,0 39,-5 51,-14 12,-10 18,-23 18,-40zm141 52l0 0 0 -33 -68 0 0 -48 63 0 0 -32 -63 0 0 -41 68 0 0 -32 -107 0 0 186 107 0zm145 0l0 0 0 -33 -67 0 0 -48 63 0 0 -32 -63 0 0 -41 67 0 0 -32 -107 0 0 186 107 0zm191 0l0 0 18 0 63 -165 1 0c-1,16 -2,31 -2,45l0 120 22 0 0 -186 -32 0 -60 153 -1 0 -59 -153 -32 0 0 186 20 0 0 -119c0,-18 -1,-33 -2,-46l1 0 63 165zm314 -94l0 0c0,-29 -7,-53 -22,-70 -15,-17 -36,-25 -63,-25 -27,0 -48,8 -63,25 -15,17 -23,40 -23,70 0,31 8,54 23,71 14,17 35,25 63,25 27,0 48,-8 63,-25 15,-17 22,-41 22,-71zm-148 0l0 0c0,26 5,45 16,58 11,13 27,19 47,19 20,0 36,-6 47,-19 10,-13 15,-32 15,-58 0,-25 -5,-44 -15,-56 -11,-13 -26,-20 -47,-20 -20,0 -36,7 -47,20 -11,13 -16,32 -16,56zm211 16l0 0 39 0 45 78 25 0 -50 -84c25,-9 37,-25 37,-50 0,-17 -5,-30 -16,-39 -11,-9 -28,-13 -50,-13l-51 0 0 186 21 0 0 -78zm0 -18l0 0 30 0c15,0 26,-3 33,-9 7,-6 11,-15 11,-28 0,-12 -4,-21 -11,-26 -7,-6 -19,-8 -35,-8l-28 0 0 71zm243 96l0 0 0 -20 -82 0 0 -68 77 0 0 -19 -77 0 0 -60 82 0 0 -19 -104 0 0 186 104 0z"/>
  <path class="fil11" d="M12241 9290l1137 0c79,0 143,64 143,143l0 812c0,79 -64,143 -143,143l-1137 0c-79,0 -143,-64 -143,-143l0 -812c0,-79 64,-143 143,-143zm644 299l0 0c5,2 11,5 16,7l1 1c4,2 9,4 14,7 7,4 15,2 19,-5 4,-7 2,-15 -5,-19 -5,-3 -10,-5 -16,-8l-1 -1c-6,-2 -11,-5 -17,-8 -7,-3 -15,1 -18,8 -3,7 0,15 7,18zm24 -85l0 0 0 -100c0,-9 -4,-17 -10,-23 -6,-6 -14,-10 -23,-10l-133 0c-9,0 -18,4 -24,10 -6,6 -9,14 -9,23l0 100c-27,8 -52,19 -75,32 -24,14 -46,30 -66,49l-87 -50c-7,-4 -16,-5 -24,-3 -9,2 -16,8 -20,15l-67 116c-5,8 -6,17 -3,25 2,8 7,15 15,20l86 50c-2,11 -5,23 -6,35 -2,15 -3,31 -3,46 0,16 1,31 3,46 1,12 4,24 6,35l-86 50c-8,5 -13,12 -15,20 -3,8 -2,17 3,25l67 116c4,8 11,13 20,15 7,2 16,1 24,-3l87 -50c20,19 42,35 66,49 23,13 48,24 75,32l0 100c0,9 3,17 9,23 6,6 15,10 24,10l133 0c9,0 17,-4 23,-10 6,-6 10,-14 10,-23l0 -100c26,-8 52,-19 75,-32 24,-14 46,-30 66,-49l86 50c8,4 17,5 25,3 8,-2 16,-7 20,-15l67 -116c4,-8 5,-17 3,-25 -2,-8 -7,-15 -15,-20l-87 -50c3,-11 5,-23 7,-35 2,-15 3,-30 3,-46 0,-15 -1,-31 -3,-46 -2,-12 -4,-24 -7,-35l87 -50c8,-5 13,-12 15,-20 2,-8 1,-17 -3,-25l-67 -116c-4,-8 -12,-13 -20,-15 -8,-2 -16,-1 -24,3l-87 50c-20,-19 -42,-35 -66,-49 -23,-13 -49,-24 -75,-32zm61 56l0 0c-24,-14 -50,-25 -78,-32 -6,-1 -11,-7 -11,-14l0 -110c0,-1 -1,-3 -1,-3 -1,-1 -3,-2 -4,-2l-133 0c-2,0 -3,1 -4,2 -1,0 -1,2 -1,3l0 110c0,7 -4,12 -11,14 -28,7 -54,18 -78,32 -25,15 -48,32 -68,52 -4,5 -11,6 -17,3l-95 -56c-2,0 -3,0 -4,0 -2,0 -3,1 -3,2l-67 116c-1,1 -1,2 0,4 0,1 1,2 2,3l95 54c5,3 9,10 7,17 -4,13 -7,27 -9,41 -1,14 -2,28 -2,43 0,15 1,29 2,43 2,14 5,28 9,41l0 1c1,5 -1,12 -7,15l-95 55c-1,1 -2,2 -2,3 -1,2 -1,3 0,4l67 116c0,1 1,2 3,2 1,0 2,0 3,0l96 -56c6,-3 12,-2 17,3 20,20 43,37 68,52 24,14 50,25 77,32 7,1 12,7 12,14l0 110c0,1 0,3 1,3 1,1 2,2 4,2l133 0c1,0 3,-1 4,-2 1,0 1,-2 1,-3l0 -110c0,-7 4,-12 11,-14 27,-7 54,-18 78,-32 25,-14 47,-32 67,-52 5,-5 12,-6 18,-3l95 56c1,0 3,0 4,0 1,0 2,-1 3,-2l67 -116c0,-1 1,-2 0,-4 0,-1 -1,-2 -2,-3l-95 -54c-6,-3 -9,-10 -7,-17 4,-13 6,-27 8,-41 2,-14 3,-28 3,-43 0,-15 -1,-29 -3,-43 -2,-14 -4,-28 -8,-41l0 0c-2,-6 1,-13 6,-16l96 -55c1,-1 2,-2 2,-3 1,-2 0,-3 0,-4l-67 -116c-1,-1 -2,-2 -3,-2 -1,0 -2,0 -3,0l-96 56c-6,3 -13,2 -17,-3 -20,-20 -43,-37 -68,-52zm-161 111l0 0c-46,0 -88,19 -118,49 -31,31 -49,73 -49,119 0,46 18,88 49,119 30,30 72,49 118,49 47,0 89,-19 119,-49 30,-31 49,-73 49,-119 0,-46 -19,-88 -49,-119 -30,-30 -72,-49 -119,-49zm99 69l0 0c-25,-25 -60,-41 -99,-41 -38,0 -73,16 -99,41 -25,25 -41,60 -41,99 0,39 16,74 41,99 26,25 61,41 99,41 39,0 74,-16 99,-41 26,-25 41,-60 41,-99 0,-39 -15,-74 -41,-99zm51 -107l0 0c23,19 44,41 62,65 17,24 31,51 41,79 2,7 10,11 18,9 7,-3 11,-11 8,-18 -11,-31 -26,-60 -45,-86 -19,-27 -41,-51 -67,-71 -6,-5 -15,-4 -19,2 -5,6 -4,15 2,20z"/>
  <path class="fil13" d="M10161 12328c113,-31 220,-76 320,-133l274 274c37,38 99,38 137,0l419 -419c37,-38 37,-99 0,-137l-274 -274c56,-100 101,-207 133,-320l387 0c53,0 96,-43 96,-96l0 -593c0,-53 -43,-97 -96,-97l-387 0c-32,-113 -77,-220 -133,-320l274 -273c37,-38 37,-100 0,-137l-419 -419c-38,-38 -100,-38 -137,0l-274 273c-100,-56 -207,-101 -320,-133l0 -386c0,-54 -43,-97 -97,-97l-592 0c-54,0 -97,43 -97,97l0 386c-113,32 -220,77 -320,133l-274 -273c-37,-38 -99,-38 -137,0l-419 419c-37,37 -37,99 0,137l274 273c-56,100 -101,207 -133,320l-386 0c-54,0 -97,44 -97,97l0 593c0,53 43,96 97,96l386 0c32,113 77,220 133,320l-274 274c-37,38 -37,99 0,137l419 419c38,38 100,38 137,0l274 -274c100,57 207,102 320,133l0 387c0,53 44,97 97,97l592 0c54,0 97,-44 97,-97l0 -387zm-393 -643l0 0c-419,0 -758,-340 -758,-759 0,-419 339,-758 758,-758 419,0 758,339 758,758 0,419 -339,759 -758,759z"/>
  <path class="fil13" d="M10149 12328c113,-31 220,-76 320,-133 91,92 183,183 274,274 37,38 99,38 137,0 139,-140 279,-279 419,-419 37,-38 37,-99 0,-137 -91,-91 -183,-182 -274,-274 56,-100 101,-207 133,-320 129,0 258,0 387,0 53,0 96,-43 96,-96 0,-198 0,-396 0,-593 0,-53 -43,-97 -96,-97 -129,0 -258,0 -387,0 -32,-113 -77,-220 -133,-320 91,-91 183,-182 274,-273 37,-38 37,-100 0,-137 -140,-140 -280,-280 -419,-419 -38,-38 -100,-38 -137,0 -91,91 -183,182 -274,273 -100,-56 -207,-101 -320,-133 0,-128 0,-257 0,-386 0,-54 -43,-97 -97,-97 -197,0 -395,0 -592,0 -53,0 -97,43 -97,97 0,129 0,258 0,386 -113,32 -220,77 -320,133 -91,-91 -182,-182 -274,-273 -37,-38 -99,-38 -137,0 -139,139 -279,279 -419,419 -37,37 -37,99 0,137 92,91 183,182 274,273 -56,100 -101,207 -133,320 -129,0 -258,0 -386,0 -54,0 -97,44 -97,97 0,197 0,395 0,593 0,53 43,96 97,96 128,0 257,0 386,0 32,113 77,220 133,320 -91,92 -182,183 -274,274 -37,38 -37,99 0,137 140,140 280,279 419,419 38,38 100,38 137,0 92,-91 183,-182 274,-274 100,57 207,102 320,133 0,129 0,258 0,387 0,53 44,97 97,97 197,0 395,0 592,0 54,0 97,-44 97,-97 0,-129 0,-258 0,-387zm-393 -643l0 0c-419,0 -758,-340 -758,-759 0,-419 339,-758 758,-758 419,0 758,339 758,758 0,419 -339,759 -758,759z"/>
  <path class="fil13" d="M10137 12328c113,-31 220,-76 320,-133 91,92 183,183 274,274 37,38 99,38 137,0 139,-140 279,-279 419,-419 37,-38 37,-99 0,-137 -91,-91 -183,-182 -274,-274 56,-100 101,-207 133,-320 129,0 258,0 387,0 53,0 96,-43 96,-96 0,-198 0,-396 0,-593 0,-53 -43,-97 -96,-97 -129,0 -258,0 -387,0 -32,-113 -76,-220 -133,-320 91,-91 183,-182 274,-273 37,-38 37,-100 0,-137 -140,-140 -280,-280 -419,-419 -38,-38 -100,-38 -137,0 -91,91 -183,182 -274,273 -100,-56 -207,-101 -320,-133 0,-128 0,-257 0,-386 0,-54 -43,-97 -97,-97 -197,0 -395,0 -592,0 -53,0 -97,43 -97,97 0,129 0,258 0,386 -113,32 -220,77 -320,133 -91,-91 -183,-182 -274,-273 -37,-38 -99,-38 -137,0 -139,139 -279,279 -419,419 -37,37 -37,99 0,137 92,91 183,182 274,273 -56,100 -101,207 -133,320 -129,0 -258,0 -386,0 -54,0 -97,44 -97,97 0,197 0,395 0,593 0,53 43,96 97,96 128,0 257,0 386,0 32,113 77,220 133,320 -91,92 -182,183 -274,274 -37,38 -37,99 0,137 140,140 280,279 419,419 38,38 100,38 137,0 92,-91 183,-182 274,-274 100,57 207,102 320,133 0,129 0,258 0,387 0,53 44,97 97,97 197,0 395,0 592,0 54,0 97,-44 97,-97 0,-129 0,-258 0,-387zm-393 -643l0 0c-419,0 -758,-340 -758,-759 0,-419 339,-758 758,-758 419,0 758,339 758,758 0,419 -339,759 -758,759z"/>
  <path class="fil13" d="M10125 12328c113,-31 220,-76 320,-133 91,92 183,183 274,274 37,38 99,38 137,0 139,-140 279,-279 419,-419 37,-38 37,-99 0,-137 -91,-91 -183,-182 -274,-274 56,-100 101,-207 133,-320 129,0 258,0 387,0 53,0 96,-43 96,-96 0,-198 0,-396 0,-593 0,-53 -43,-97 -96,-97 -129,0 -258,0 -387,0 -32,-113 -76,-220 -133,-320 91,-91 183,-182 274,-273 37,-38 37,-100 0,-137 -140,-140 -280,-280 -419,-419 -38,-38 -100,-38 -137,0 -91,91 -183,182 -274,273 -100,-56 -207,-101 -320,-133 0,-128 0,-257 0,-386 0,-54 -43,-97 -97,-97 -197,0 -395,0 -592,0 -53,0 -97,43 -97,97 0,129 0,258 0,386 -113,32 -220,77 -320,133 -91,-91 -182,-182 -274,-273 -37,-38 -99,-38 -137,0 -139,139 -279,279 -419,419 -37,37 -37,99 0,137 92,91 183,182 274,273 -56,100 -101,207 -133,320 -129,0 -258,0 -386,0 -54,0 -97,44 -97,97 0,197 0,395 0,593 0,53 43,96 97,96 128,0 257,0 386,0 32,113 77,220 133,320 -91,92 -182,183 -274,274 -37,38 -37,99 0,137 140,140 280,279 419,419 38,38 100,38 137,0 92,-91 183,-182 274,-274 100,57 207,102 320,133 0,129 0,258 0,387 0,53 44,97 97,97 197,0 395,0 592,0 54,0 97,-44 97,-97 0,-129 0,-258 0,-387zm-393 -643l0 0c-419,0 -758,-340 -758,-759 0,-419 339,-758 758,-758 419,0 758,339 758,758 0,419 -339,759 -758,759z"/>
  <path class="fil13" d="M10113 12328c113,-31 220,-76 320,-133 91,92 183,183 274,274 37,38 99,38 137,0 139,-140 279,-279 419,-419 37,-38 37,-99 0,-137 -91,-91 -183,-182 -274,-274 56,-100 101,-207 133,-320 129,0 258,0 387,0 53,0 96,-43 96,-96 0,-198 0,-396 0,-593 0,-53 -43,-97 -96,-97 -129,0 -258,0 -387,0 -32,-113 -76,-220 -133,-320 91,-91 183,-182 274,-273 37,-38 37,-100 0,-137 -140,-140 -280,-280 -419,-419 -38,-38 -100,-38 -137,0 -91,91 -183,182 -274,273 -100,-56 -207,-101 -320,-133 0,-128 0,-257 0,-386 0,-54 -43,-97 -97,-97 -197,0 -395,0 -592,0 -53,0 -97,43 -97,97 0,129 0,258 0,386 -113,32 -220,77 -320,133 -91,-91 -182,-182 -274,-273 -37,-38 -99,-38 -137,0 -139,139 -279,279 -419,419 -37,37 -37,99 0,137 92,91 183,182 274,273 -56,100 -101,207 -133,320 -129,0 -258,0 -386,0 -54,0 -97,44 -97,97 0,197 0,395 0,593 0,53 43,96 97,96 128,0 257,0 386,0 32,113 77,220 133,320 -91,92 -182,183 -274,274 -37,38 -37,99 0,137 140,140 280,279 419,419 38,38 100,38 137,0 92,-91 183,-182 274,-274 100,57 207,102 320,133 0,129 0,258 0,387 0,53 44,97 97,97 197,0 395,0 592,0 54,0 97,-44 97,-97 0,-129 0,-258 0,-387zm-393 -643l0 0c-419,0 -758,-340 -758,-759 0,-419 339,-758 758,-758 419,0 758,339 758,758 0,419 -339,759 -758,759z"/>
  <path class="fil13" d="M10101 12328c113,-31 220,-76 320,-133 91,92 183,183 274,274 37,38 99,38 137,0 139,-140 279,-279 419,-419 37,-38 37,-99 0,-137 -91,-91 -183,-182 -274,-274 56,-100 101,-207 133,-320 129,0 258,0 387,0 53,0 96,-43 96,-96 0,-198 0,-396 0,-593 0,-53 -43,-97 -96,-97 -129,0 -258,0 -387,0 -32,-113 -76,-220 -133,-320 91,-91 183,-182 274,-273 37,-38 37,-100 0,-137 -140,-140 -280,-280 -419,-419 -38,-38 -100,-38 -137,0 -91,91 -183,182 -274,273 -100,-56 -207,-101 -320,-133 0,-128 0,-257 0,-386 0,-54 -43,-97 -97,-97 -197,0 -395,0 -592,0 -53,0 -97,43 -97,97 0,129 0,258 0,386 -113,32 -220,77 -320,133 -91,-91 -182,-182 -274,-273 -37,-38 -99,-38 -137,0 -139,139 -279,279 -419,419 -37,37 -37,99 0,137 92,91 183,182 274,273 -56,100 -101,207 -133,320 -129,0 -258,0 -386,0 -54,0 -97,44 -97,97 0,197 0,395 0,593 0,53 43,96 97,96 128,0 257,0 386,0 32,113 77,220 133,320 -91,92 -182,183 -274,274 -37,38 -37,99 0,137 140,140 280,279 419,419 38,38 100,38 137,0 92,-91 183,-182 274,-274 100,57 207,102 320,133 0,129 0,258 0,387 0,53 44,97 97,97 197,0 395,0 592,0 54,0 97,-44 97,-97 0,-129 0,-258 0,-387zm-393 -643l0 0c-419,0 -758,-340 -758,-759 0,-419 339,-758 758,-758 419,0 758,339 758,758 0,419 -339,759 -758,759z"/>
  <path class="fil13" d="M10089 12328c113,-31 220,-76 320,-133 92,92 183,183 274,274 37,38 99,38 137,0 139,-140 279,-279 419,-419 37,-38 37,-99 0,-137 -91,-91 -183,-182 -274,-274 57,-100 101,-207 133,-320 129,0 258,0 387,0 53,0 96,-43 96,-96 0,-198 0,-396 0,-593 0,-53 -43,-97 -96,-97 -129,0 -258,0 -387,0 -32,-113 -76,-220 -133,-320 91,-91 183,-182 274,-273 37,-38 37,-100 0,-137 -140,-140 -280,-280 -419,-419 -38,-38 -100,-38 -137,0 -91,91 -183,182 -274,273 -100,-56 -207,-101 -320,-133 0,-128 0,-257 0,-386 0,-54 -43,-97 -97,-97 -197,0 -395,0 -592,0 -53,0 -97,43 -97,97 0,129 0,258 0,386 -113,32 -220,77 -320,133 -91,-91 -182,-182 -274,-273 -37,-38 -99,-38 -137,0 -139,139 -279,279 -419,419 -37,37 -37,99 0,137 92,91 183,182 274,273 -56,100 -101,207 -133,320 -129,0 -258,0 -386,0 -54,0 -97,44 -97,97 0,197 0,395 0,593 0,53 43,96 97,96 128,0 257,0 386,0 32,113 77,220 133,320 -91,92 -182,183 -274,274 -37,38 -37,99 0,137 140,140 280,279 419,419 38,38 100,38 137,0 92,-91 183,-182 274,-274 100,57 207,102 320,133 0,129 0,258 0,387 0,53 44,97 97,97 197,0 395,0 592,0 54,0 97,-44 97,-97 0,-129 0,-258 0,-387zm-393 -643l0 0c-419,0 -758,-340 -758,-759 0,-419 339,-758 758,-758 419,0 758,339 758,758 0,419 -339,759 -758,759z"/>
  <path class="fil13" d="M10077 12328c113,-31 220,-76 320,-133 91,92 183,183 274,274 38,38 99,38 137,0 139,-140 279,-279 419,-419 37,-38 37,-99 0,-137 -91,-91 -183,-182 -274,-274 56,-100 101,-207 133,-320 129,0 258,0 387,0 53,0 96,-43 96,-96 0,-198 0,-396 0,-593 0,-53 -43,-97 -96,-97 -129,0 -258,0 -387,0 -32,-113 -76,-220 -133,-320 91,-91 183,-182 274,-273 37,-38 37,-100 0,-137 -140,-140 -280,-280 -419,-419 -38,-38 -100,-38 -137,0 -91,91 -183,182 -274,273 -100,-56 -207,-101 -320,-133 0,-128 0,-257 0,-386 0,-54 -43,-97 -97,-97 -197,0 -395,0 -592,0 -53,0 -97,43 -97,97 0,129 0,258 0,386 -113,32 -220,77 -320,133 -91,-91 -182,-182 -274,-273 -37,-38 -99,-38 -137,0 -139,139 -279,279 -419,419 -37,37 -37,99 0,137 92,91 183,182 274,273 -56,100 -101,207 -133,320 -129,0 -258,0 -386,0 -54,0 -97,44 -97,97 0,197 0,395 0,593 0,53 43,96 97,96 128,0 257,0 386,0 32,113 77,220 133,320 -91,92 -182,183 -274,274 -37,38 -37,99 0,137 140,140 280,279 420,419 37,38 99,38 136,0 92,-91 183,-182 274,-274 100,57 207,102 320,133 0,129 0,258 0,387 0,53 44,97 97,97 197,0 395,0 592,0 54,0 97,-44 97,-97 0,-129 0,-258 0,-387zm-393 -643l0 0c-419,0 -758,-340 -758,-759 0,-419 339,-758 758,-758 419,0 758,339 758,758 0,419 -339,759 -758,759z"/>
  <path class="fil13" d="M10065 12328c113,-31 220,-76 320,-133 92,92 183,183 274,274 38,38 99,38 137,0 139,-140 279,-279 419,-419 37,-38 37,-99 0,-137 -91,-91 -183,-182 -274,-274 57,-100 101,-207 133,-320 129,0 258,0 387,0 53,0 96,-43 96,-96 0,-198 0,-396 0,-593 0,-53 -43,-97 -96,-97 -129,0 -258,0 -387,0 -32,-113 -76,-220 -133,-320 91,-91 183,-182 274,-273 37,-38 37,-100 0,-137 -140,-140 -280,-280 -419,-419 -38,-38 -99,-38 -137,0 -91,91 -183,182 -274,273 -100,-56 -207,-101 -320,-133 0,-128 0,-257 0,-386 0,-54 -43,-97 -97,-97 -197,0 -395,0 -592,0 -53,0 -97,43 -97,97 0,129 0,258 0,386 -113,32 -220,77 -320,133 -91,-91 -182,-182 -274,-273 -37,-38 -99,-38 -137,0 -139,139 -279,279 -419,419 -37,37 -37,99 0,137 92,91 183,182 274,273 -56,100 -101,207 -133,320 -129,0 -258,0 -386,0 -54,0 -97,44 -97,97 0,197 0,395 0,593 0,53 43,96 97,96 129,0 257,0 386,0 32,113 77,220 133,320 -91,92 -182,183 -274,274 -37,38 -37,99 0,137 140,140 280,279 419,419 38,38 100,38 137,0 92,-91 183,-182 274,-274 100,57 207,102 320,133 0,129 0,258 0,387 0,53 44,97 97,97 197,0 395,0 592,0 54,0 97,-44 97,-97 0,-129 0,-258 0,-387zm-393 -643l0 0c-419,0 -758,-340 -758,-759 0,-419 339,-758 758,-758 419,0 758,339 758,758 0,419 -339,759 -758,759z"/>
  <path class="fil13" d="M10053 12328c113,-31 220,-76 320,-133 92,92 183,183 274,274 38,38 99,38 137,0 139,-140 279,-279 419,-419 37,-38 37,-99 0,-137 -91,-91 -183,-182 -274,-274 57,-100 101,-207 133,-320 129,0 258,0 387,0 53,0 96,-43 96,-96 0,-198 0,-396 0,-593 0,-53 -43,-97 -96,-97 -129,0 -258,0 -387,0 -32,-113 -76,-220 -133,-320 91,-91 183,-182 274,-273 37,-38 37,-100 0,-137 -140,-140 -280,-280 -419,-419 -38,-38 -99,-38 -137,0 -91,91 -183,182 -274,273 -100,-56 -207,-101 -320,-133 0,-128 0,-257 0,-386 0,-54 -43,-97 -97,-97 -197,0 -395,0 -592,0 -53,0 -97,43 -97,97 0,129 0,258 0,386 -113,32 -220,77 -320,133 -91,-91 -182,-182 -274,-273 -37,-38 -99,-38 -137,0 -139,139 -279,279 -419,419 -37,37 -37,99 1,137 91,91 182,182 273,273 -56,100 -101,207 -133,320 -129,0 -258,0 -386,0 -54,0 -97,44 -97,97 0,197 0,395 0,593 0,53 43,96 97,96 128,0 257,0 386,0 32,113 77,220 133,320 -91,92 -182,183 -273,274 -38,38 -38,99 0,137 139,140 279,279 419,419 37,38 99,38 136,0 92,-91 183,-182 274,-274 100,57 207,102 320,133 0,129 0,258 0,387 0,53 44,97 97,97 197,0 395,0 592,0 54,0 97,-44 97,-97 0,-129 0,-258 0,-387zm-393 -643l0 0c-419,0 -758,-340 -758,-759 0,-419 339,-758 758,-758 419,0 758,339 758,758 0,419 -339,759 -758,759z"/>
  <path class="fil13" d="M10041 12328c113,-31 220,-76 320,-133 92,92 183,183 274,274 38,38 99,38 137,0 139,-140 279,-279 419,-419 37,-38 37,-99 0,-137 -91,-91 -183,-182 -274,-274 57,-100 101,-207 133,-320 129,0 258,0 387,0 53,0 97,-43 97,-96 0,-198 0,-396 0,-593 0,-53 -44,-97 -97,-97 -129,0 -258,0 -387,0 -32,-113 -76,-220 -133,-320 91,-91 183,-182 274,-273 37,-38 37,-100 0,-137 -140,-140 -280,-280 -419,-419 -38,-38 -99,-38 -137,0 -91,91 -182,182 -274,273 -100,-56 -207,-101 -320,-133 0,-128 0,-257 0,-386 0,-54 -43,-97 -97,-97 -197,0 -395,0 -592,0 -53,0 -97,43 -97,97 0,129 0,258 0,386 -113,32 -220,77 -320,133 -91,-91 -182,-182 -274,-273 -37,-38 -99,-38 -137,0 -139,139 -279,279 -418,419 -38,37 -38,99 0,137 91,91 182,182 273,273 -56,100 -101,207 -133,320 -129,0 -257,0 -386,0 -54,0 -97,44 -97,97 0,197 0,395 0,593 0,53 43,96 97,96 129,0 257,0 386,0 32,113 77,220 133,320 -91,92 -182,183 -273,274 -38,38 -38,99 0,137 139,140 279,279 419,419 37,38 99,38 136,0 92,-91 183,-182 274,-274 100,57 207,102 320,133 0,129 0,258 0,387 0,53 44,97 97,97 197,0 395,0 592,0 54,0 97,-44 97,-97 0,-129 0,-258 0,-387zm-393 -643l0 0c-419,0 -758,-340 -758,-759 0,-419 339,-758 758,-758 419,0 758,339 758,758 0,419 -339,759 -758,759z"/>
  <path class="fil13" d="M10029 12328c113,-31 220,-76 320,-133 92,92 183,183 274,274 38,38 99,38 137,0 140,-140 279,-279 419,-419 37,-38 37,-99 0,-137 -91,-91 -183,-182 -274,-274 57,-100 101,-207 133,-320 129,0 258,0 387,0 53,0 97,-43 97,-96 0,-198 0,-396 0,-593 0,-53 -44,-97 -97,-97 -129,0 -258,0 -387,0 -32,-113 -76,-220 -133,-320 91,-91 183,-182 274,-273 37,-38 37,-100 0,-137 -140,-140 -280,-280 -419,-419 -38,-38 -99,-38 -137,0 -91,91 -182,182 -274,273 -100,-56 -207,-101 -320,-133 0,-128 0,-257 0,-386 0,-54 -43,-97 -97,-97 -197,0 -395,0 -592,0 -53,0 -97,43 -97,97 0,129 0,258 0,386 -113,32 -220,77 -320,133 -91,-91 -182,-182 -274,-273 -37,-38 -99,-38 -136,0 -140,139 -280,279 -419,419 -38,37 -38,99 0,137 91,91 182,182 273,273 -56,100 -101,207 -133,320 -129,0 -257,0 -386,0 -54,0 -97,44 -97,97 0,197 0,395 0,593 0,53 43,96 97,96 129,0 257,0 386,0 32,113 77,220 133,320 -91,92 -182,183 -273,274 -38,38 -38,99 0,137 139,140 279,279 419,419 37,38 99,38 136,0 92,-91 183,-182 274,-274 100,57 207,102 320,133 0,129 0,258 0,387 0,53 44,97 97,97 197,0 395,0 592,0 54,0 97,-44 97,-97 0,-129 0,-258 0,-387zm-393 -643l0 0c-419,0 -758,-340 -758,-759 0,-419 339,-758 758,-758 419,0 758,339 758,758 0,419 -339,759 -758,759z"/>
  <path class="fil13" d="M10017 12328c113,-31 220,-76 320,-133 92,92 183,183 274,274 38,38 99,38 137,0 140,-140 279,-279 419,-419 37,-38 37,-99 0,-137 -91,-91 -183,-182 -274,-274 57,-100 101,-207 133,-320 129,0 258,0 387,0 53,0 97,-43 97,-96 0,-198 0,-396 0,-593 0,-53 -44,-97 -97,-97 -129,0 -258,0 -387,0 -32,-113 -76,-220 -133,-320 92,-91 183,-182 274,-273 37,-38 37,-100 0,-137 -140,-140 -279,-280 -419,-419 -38,-38 -99,-38 -137,0 -91,91 -182,182 -274,273 -100,-56 -207,-101 -320,-133 0,-128 0,-257 0,-386 0,-54 -43,-97 -97,-97 -197,0 -395,0 -592,0 -53,0 -97,43 -97,97 0,129 0,258 0,386 -113,32 -220,77 -320,133 -91,-91 -182,-182 -274,-273 -37,-38 -99,-38 -136,0 -140,139 -280,279 -419,419 -38,37 -38,99 0,137 91,91 182,182 273,273 -56,100 -101,207 -133,320 -129,0 -257,0 -386,0 -54,0 -97,44 -97,97 0,197 0,395 0,593 0,53 43,96 97,96 129,0 257,0 386,0 32,113 77,220 133,320 -91,92 -182,183 -273,274 -38,38 -38,99 0,137 139,140 279,279 419,419 37,38 99,38 136,0 92,-91 183,-182 274,-274 100,57 207,102 320,133 0,129 0,258 0,387 0,53 44,97 97,97 197,0 395,0 592,0 54,0 97,-44 97,-97 0,-129 0,-258 0,-387zm-393 -643l0 0c-419,0 -758,-340 -758,-759 0,-419 339,-758 758,-758 419,0 758,339 758,758 0,419 -339,759 -758,759z"/>
  <path class="fil13" d="M10005 12328c113,-31 220,-76 320,-133 92,92 183,183 274,274 38,38 99,38 137,0 140,-140 279,-279 419,-419 37,-38 38,-99 0,-137 -91,-91 -183,-182 -274,-274 57,-100 101,-207 133,-320 129,0 258,0 387,0 53,0 97,-43 97,-96 0,-198 0,-396 0,-593 0,-53 -44,-97 -97,-97 -129,0 -258,0 -387,0 -31,-113 -76,-220 -133,-320 91,-91 183,-182 274,-273 37,-38 37,-100 0,-137 -140,-140 -279,-280 -419,-419 -38,-38 -99,-38 -137,0 -91,91 -182,182 -274,273 -100,-56 -207,-101 -320,-133 0,-128 0,-257 0,-386 0,-54 -43,-97 -97,-97 -197,0 -395,0 -592,0 -53,0 -97,43 -97,97 0,129 0,258 0,386 -113,32 -220,77 -320,133 -91,-91 -182,-182 -274,-273 -37,-38 -99,-38 -136,0 -140,139 -280,279 -419,419 -38,37 -38,99 0,137 91,91 182,182 273,273 -56,100 -101,207 -133,320 -129,0 -257,0 -386,0 -54,0 -97,44 -97,97 0,197 0,395 0,593 0,53 43,96 97,96 129,0 257,0 386,0 32,113 77,220 133,320 -91,92 -182,183 -273,274 -38,38 -38,99 0,137 139,140 279,279 419,419 37,38 99,38 136,0 92,-91 183,-182 274,-274 100,57 207,102 320,133 0,129 0,258 0,387 0,53 44,97 97,97 197,0 395,0 592,0 54,0 97,-44 97,-97 0,-129 0,-258 0,-387zm-393 -643l0 0c-419,0 -758,-340 -758,-759 0,-419 339,-758 758,-758 419,0 758,339 758,758 0,419 -339,759 -758,759z"/>
  <path class="fil13" d="M9993 12328c113,-31 220,-76 320,-133 92,92 183,183 274,274 38,38 99,38 137,0 140,-140 279,-279 419,-419 38,-38 38,-99 0,-137 -91,-91 -182,-182 -274,-274 57,-100 101,-207 133,-320 129,0 258,0 387,0 53,0 97,-43 97,-96 0,-198 0,-396 0,-593 0,-53 -44,-97 -97,-97 -129,0 -258,0 -387,0 -32,-113 -76,-220 -133,-320 92,-91 183,-182 274,-273 38,-38 38,-100 0,-137 -140,-140 -279,-280 -419,-419 -38,-38 -99,-38 -137,0 -91,91 -182,182 -274,273 -100,-56 -207,-101 -320,-133 0,-128 0,-257 0,-386 0,-54 -43,-97 -97,-97 -197,0 -395,0 -592,0 -53,0 -97,43 -97,97 0,129 0,258 0,386 -113,32 -220,77 -320,133 -91,-91 -182,-182 -274,-273 -37,-38 -99,-38 -136,0 -140,139 -280,279 -419,419 -38,37 -38,99 0,137 91,91 182,182 273,273 -56,100 -101,207 -133,320 -129,0 -257,0 -386,0 -54,0 -97,44 -97,97 0,197 0,395 0,593 0,53 43,96 97,96 129,0 257,0 386,0 32,113 77,220 133,320 -91,92 -182,183 -273,274 -38,38 -38,99 0,137 139,140 279,279 419,419 37,38 99,38 136,0 92,-91 183,-182 274,-274 100,57 207,102 320,133 0,129 0,258 0,387 0,53 44,97 97,97 197,0 395,0 593,0 53,0 96,-44 96,-97 0,-129 0,-258 0,-387zm-393 -643l0 0c-419,0 -758,-340 -758,-759 0,-419 339,-758 758,-758 419,0 758,339 758,758 0,419 -339,759 -758,759z"/>
  <path class="fil13" d="M9981 12328c113,-31 220,-76 320,-133 92,92 183,183 274,274 38,38 99,38 137,0 140,-140 279,-279 419,-419 38,-38 38,-99 0,-137 -91,-91 -182,-182 -274,-274 57,-100 101,-207 133,-320 129,0 258,0 387,0 53,0 97,-43 97,-96 0,-198 0,-396 0,-593 0,-53 -44,-97 -97,-97 -129,0 -258,0 -387,0 -31,-113 -76,-220 -133,-320 92,-91 183,-182 274,-273 38,-38 38,-100 0,-137 -140,-140 -279,-280 -419,-419 -38,-38 -99,-38 -137,0 -91,91 -182,182 -274,273 -100,-56 -207,-101 -320,-133 0,-128 0,-257 0,-386 0,-54 -43,-97 -96,-97 -198,0 -396,0 -593,0 -53,0 -97,43 -97,97 0,129 0,258 0,386 -113,32 -220,77 -320,133 -91,-91 -182,-182 -273,-273 -38,-38 -100,-38 -137,0 -140,139 -280,279 -419,419 -38,37 -38,99 0,137 91,91 182,182 273,273 -56,100 -101,207 -133,320 -129,0 -257,0 -386,0 -54,0 -97,44 -97,97 0,197 0,395 0,593 0,53 43,96 97,96 129,0 257,0 386,0 32,113 77,220 133,320 -91,92 -182,183 -273,274 -38,38 -38,99 0,137 139,140 279,279 419,419 37,38 99,38 137,0 91,-91 182,-182 273,-274 100,57 207,102 320,133 0,129 0,258 0,387 0,53 44,97 97,97 197,0 395,0 593,0 53,0 96,-44 96,-97 0,-129 0,-258 0,-387zm-393 -643l0 0c-419,0 -758,-340 -758,-759 0,-419 339,-758 758,-758 419,0 758,339 758,758 0,419 -339,759 -758,759z"/>
  <path class="fil13" d="M9969 12328c113,-31 220,-76 320,-133 92,92 183,183 274,274 38,38 99,38 137,0 140,-140 279,-279 419,-419 38,-38 38,-99 0,-137 -91,-91 -182,-182 -274,-274 57,-100 101,-207 133,-320 129,0 258,0 387,0 53,0 97,-43 97,-96 0,-198 0,-396 0,-593 0,-53 -44,-97 -97,-97 -129,0 -258,0 -387,0 -31,-113 -76,-220 -133,-320 92,-91 183,-182 274,-273 38,-38 38,-100 0,-137 -140,-140 -279,-280 -419,-419 -38,-38 -99,-38 -137,0 -91,91 -182,182 -274,273 -100,-56 -207,-101 -320,-133 0,-128 0,-257 0,-386 0,-54 -43,-97 -97,-97 -197,0 -395,0 -592,0 -53,0 -97,43 -97,97 0,129 0,258 0,386 -113,32 -220,77 -320,133 -91,-91 -182,-182 -273,-273 -38,-38 -100,-38 -137,0 -140,139 -280,279 -419,419 -38,37 -38,99 0,137 91,91 182,182 273,273 -56,100 -101,207 -133,320 -129,0 -257,0 -386,0 -54,0 -97,44 -97,97 0,197 0,395 0,593 0,53 43,96 97,96 129,0 258,0 386,0 32,113 77,220 133,320 -91,92 -182,183 -273,274 -38,38 -38,99 0,137 139,140 279,279 419,419 37,38 99,38 137,0 91,-91 182,-182 273,-274 100,57 207,102 320,133 0,129 0,258 0,387 0,53 44,97 97,97 197,0 395,0 593,0 53,0 96,-44 96,-97 0,-129 0,-258 0,-387zm-393 -643l0 0c-419,0 -758,-340 -758,-759 0,-419 339,-758 758,-758 419,0 758,339 758,758 0,419 -339,759 -758,759z"/>
  <path class="fil13" d="M9957 12328c113,-31 221,-76 320,-133 92,92 183,183 274,274 38,38 99,38 137,0 140,-140 279,-279 419,-419 38,-38 38,-99 0,-137 -91,-91 -182,-182 -274,-274 57,-100 102,-207 133,-320 129,0 258,0 387,0 53,0 97,-43 97,-96 0,-198 0,-396 0,-593 0,-53 -44,-97 -97,-97 -129,0 -258,0 -387,0 -31,-113 -76,-220 -133,-320 92,-91 183,-182 274,-273 38,-38 38,-100 0,-137 -140,-140 -279,-280 -419,-419 -38,-38 -99,-38 -137,0 -91,91 -182,182 -274,273 -100,-56 -207,-101 -320,-133 0,-128 0,-257 0,-386 0,-54 -43,-97 -96,-97 -198,0 -396,0 -593,0 -53,0 -97,43 -97,97 0,129 0,258 0,386 -113,32 -220,77 -320,133 -91,-91 -182,-182 -273,-273 -38,-38 -100,-38 -137,0 -140,139 -280,279 -419,419 -38,37 -38,99 0,137 91,91 182,182 273,273 -56,100 -101,207 -133,320 -129,0 -257,0 -386,0 -54,0 -97,44 -97,97 0,197 0,395 0,593 0,53 43,96 97,96 129,0 257,0 386,0 32,113 77,220 133,320 -91,92 -182,183 -273,274 -38,38 -38,99 0,137 139,140 279,279 419,419 37,38 99,38 137,0 91,-91 182,-182 273,-274 100,57 207,102 320,133 0,129 0,258 0,387 0,53 44,97 97,97 197,0 395,0 593,0 53,0 96,-44 96,-97 0,-129 0,-258 0,-387zm-393 -643l0 0c-419,0 -758,-340 -758,-759 0,-419 339,-758 758,-758 419,0 759,339 759,758 0,419 -340,759 -759,759z"/>
  <path class="fil13" d="M9945 12328c113,-31 220,-76 320,-133 92,92 183,183 274,274 38,38 99,38 137,0 140,-140 279,-279 419,-419 38,-38 38,-99 0,-137 -91,-91 -182,-182 -274,-274 57,-100 102,-207 133,-320 129,0 258,0 387,0 53,0 97,-43 97,-96 0,-198 0,-396 0,-593 0,-53 -44,-97 -97,-97 -129,0 -258,0 -387,0 -31,-113 -76,-220 -133,-320 92,-91 183,-182 274,-273 38,-38 38,-100 0,-137 -140,-140 -279,-280 -419,-419 -38,-38 -99,-38 -137,0 -91,91 -182,182 -274,273 -100,-56 -207,-101 -320,-133 0,-128 0,-257 0,-386 0,-54 -43,-97 -96,-97 -198,0 -396,0 -593,0 -53,0 -97,43 -97,97 0,129 0,258 0,386 -113,32 -220,77 -320,133 -91,-91 -182,-182 -273,-273 -38,-38 -100,-38 -137,0 -140,139 -280,279 -419,419 -38,37 -38,99 0,137 91,91 182,182 273,273 -56,100 -101,207 -133,320 -129,0 -257,0 -386,0 -54,0 -97,44 -97,97 0,197 0,395 0,593 0,53 43,96 97,96 129,0 258,0 386,0 32,113 77,220 133,320 -91,92 -182,183 -273,274 -38,38 -38,99 0,137 139,140 279,279 419,419 37,38 99,38 137,0 91,-91 182,-182 273,-274 100,57 207,102 320,133 0,129 0,258 0,387 0,53 44,97 97,97 198,0 395,0 593,0 53,0 96,-44 96,-97 0,-129 0,-258 0,-387zm-393 -643l0 0c-419,0 -758,-340 -758,-759 0,-419 339,-758 758,-758 419,0 759,339 759,758 0,419 -340,759 -759,759z"/>
  <path class="fil13" d="M9933 12328c113,-31 221,-76 321,-133 91,92 182,183 273,274 38,38 99,38 137,0 140,-140 279,-279 419,-419 38,-38 38,-99 0,-137 -91,-91 -182,-182 -274,-274 57,-100 102,-207 133,-320 129,0 258,0 387,0 53,0 97,-43 97,-96 0,-198 0,-396 0,-593 0,-53 -44,-97 -97,-97 -129,0 -258,0 -387,0 -31,-113 -76,-220 -133,-320 92,-91 183,-182 274,-273 38,-38 38,-100 0,-137 -140,-140 -279,-280 -419,-419 -38,-38 -99,-38 -137,0 -91,91 -182,182 -274,273 -100,-56 -207,-101 -320,-133 0,-128 0,-257 0,-386 0,-54 -43,-97 -96,-97 -198,0 -395,0 -593,0 -53,0 -97,43 -97,97 0,129 0,258 0,386 -113,32 -220,77 -320,133 -91,-91 -182,-182 -273,-273 -38,-38 -100,-38 -137,0 -140,139 -280,279 -419,419 -38,37 -38,99 0,137 91,91 182,182 273,273 -56,100 -101,207 -133,320 -129,0 -257,0 -386,0 -54,0 -97,44 -97,97 0,197 0,395 0,593 0,53 43,96 97,96 129,0 258,0 386,0 32,113 77,220 133,320 -91,92 -182,183 -273,274 -38,38 -38,99 0,137 139,140 279,279 419,419 37,38 99,38 137,0 91,-91 182,-182 273,-274 100,57 207,102 320,133 0,129 0,258 0,387 0,53 44,97 97,97 198,0 395,0 593,0 53,0 96,-44 96,-97 0,-129 0,-258 0,-387zm-393 -643l0 0c-419,0 -758,-340 -758,-759 0,-419 339,-758 758,-758 419,0 759,339 759,758 0,419 -340,759 -759,759z"/>
  <path class="fil13" d="M9921 12328c113,-31 221,-76 320,-133 92,92 183,183 274,274 38,38 99,38 137,0 140,-140 279,-279 419,-419 38,-38 38,-99 0,-137 -91,-91 -182,-182 -274,-274 57,-100 102,-207 133,-320 129,0 258,0 387,0 53,0 97,-43 97,-96 0,-198 0,-396 0,-593 0,-53 -44,-97 -97,-97 -129,0 -258,0 -387,0 -31,-113 -76,-220 -133,-320 92,-91 183,-182 274,-273 38,-38 38,-100 0,-137 -140,-140 -279,-280 -419,-419 -38,-38 -99,-38 -137,0 -91,91 -182,182 -274,273 -99,-56 -207,-101 -320,-133 0,-128 0,-257 0,-386 0,-54 -43,-97 -96,-97 -198,0 -395,0 -593,0 -53,0 -97,43 -97,97 0,129 0,258 0,386 -113,32 -220,77 -320,133 -91,-91 -182,-182 -273,-273 -38,-38 -100,-38 -137,0 -140,139 -280,279 -419,419 -38,37 -38,99 0,137 91,91 182,182 273,273 -56,100 -101,207 -133,320 -128,0 -257,0 -386,0 -54,0 -97,44 -97,97 0,197 0,395 0,593 0,53 43,96 97,96 129,0 258,0 386,0 32,113 77,220 133,320 -91,92 -182,183 -273,274 -38,38 -38,99 0,137 139,140 279,279 419,419 37,38 99,38 137,0 91,-91 182,-182 273,-274 100,57 207,102 320,133 0,129 0,258 0,387 0,53 44,97 97,97 198,0 395,0 593,0 53,0 96,-44 96,-97 0,-129 0,-258 0,-387zm-393 -643l0 0c-419,0 -758,-340 -758,-759 0,-419 339,-758 758,-758 419,0 759,339 759,758 0,419 -340,759 -759,759z"/>
  <path class="fil13" d="M9909 12328c113,-31 221,-76 321,-133l273 274c38,38 99,38 137,0l419 -419c38,-38 38,-99 0,-137l-274 -274c57,-100 102,-207 133,-320l387 0c53,0 97,-43 97,-96l0 -593c0,-53 -44,-97 -97,-97l-387 0c-31,-113 -76,-220 -133,-320l274 -273c38,-38 38,-100 0,-137l-419 -419c-38,-38 -99,-38 -137,0l-274 273c-100,-56 -207,-101 -320,-133l0 -386c0,-54 -43,-97 -96,-97l-593 0c-53,0 -97,43 -97,97l0 386c-113,32 -220,77 -320,133l-273 -273c-38,-38 -100,-38 -137,0l-419 419c-38,37 -38,99 0,137l273 273c-56,100 -101,207 -133,320l-386 0c-53,0 -97,44 -97,97l0 593c0,53 44,96 97,96l386 0c32,113 77,220 133,320l-273 274c-38,38 -38,99 0,137l419 419c37,38 99,38 137,0l273 -274c100,57 207,102 320,133l0 387c0,53 44,97 97,97l593 0c53,0 96,-44 96,-97l0 -387zm-393 -643l0 0c-418,0 -758,-340 -758,-759 0,-419 340,-758 758,-758 419,0 759,339 759,758 0,419 -340,759 -759,759z"/>
  <path class="fil14" d="M9909 12328c113,-31 221,-76 321,-133l273 274c38,38 99,38 137,0l419 -419c38,-38 38,-99 0,-137l-274 -274c57,-100 102,-207 133,-320l387 0c53,0 97,-43 97,-96l0 -593c0,-53 -44,-97 -97,-97l-387 0c-31,-113 -76,-220 -133,-320l274 -273c38,-38 38,-100 0,-137l-419 -419c-38,-38 -99,-38 -137,0l-274 273c-100,-56 -207,-101 -320,-133l0 -386c0,-54 -43,-97 -96,-97l-593 0c-53,0 -97,43 -97,97l0 386c-113,32 -220,77 -320,133l-273 -273c-38,-38 -100,-38 -137,0l-419 419c-38,37 -38,99 0,137l273 273c-56,100 -101,207 -133,320l-386 0c-53,0 -97,44 -97,97l0 593c0,53 44,96 97,96l386 0c32,113 77,220 133,320l-273 274c-38,38 -38,99 0,137l419 419c37,38 99,38 137,0l273 -274c100,57 207,102 320,133l0 387c0,53 44,97 97,97l593 0c53,0 96,-44 96,-97l0 -387zm-393 -643l0 0c-418,0 -758,-340 -758,-759 0,-419 340,-758 758,-758 419,0 759,339 759,758 0,419 -340,759 -759,759z"/>
  <path class="fil15" d="M9516 11791c239,0 455,-97 612,-253 156,-157 253,-373 253,-612 0,-239 -97,-455 -253,-611 -157,-157 -373,-254 -612,-254 -239,0 -455,97 -611,254 -157,156 -253,372 -253,611 0,239 96,455 253,612 156,156 372,253 611,253zm648 -217l0 0c-166,165 -395,268 -648,268 -253,0 -481,-103 -647,-268 -166,-166 -268,-395 -268,-648 0,-253 102,-481 268,-647 166,-166 394,-268 647,-268 253,0 482,102 648,268 165,166 268,394 268,647 0,253 -103,482 -268,648z"/>
  <path class="fil15" d="M9516 12234c361,0 688,-146 925,-383 237,-237 383,-564 383,-925 0,-361 -146,-688 -383,-924 -237,-237 -564,-384 -925,-384 -361,0 -688,147 -924,384 -237,236 -383,563 -383,924 0,361 146,688 383,925 236,237 563,383 924,383zm961 -347l0 0c-246,246 -586,398 -961,398 -375,0 -714,-152 -960,-398 -246,-246 -398,-586 -398,-961 0,-375 152,-715 398,-960 246,-246 585,-398 960,-398 375,0 715,152 961,398 246,245 398,585 398,960 0,375 -152,715 -398,961z"/>
  <path class="fil8" d="M6649 6450l2176 677c82,26 119,60 113,93l0 170 -404 0 -1885 586c-76,24 -175,36 -275,36 -100,0 -200,-12 -275,-36l-1885 -586 -404 0 0 -170 0 0c-6,-33 31,-67 113,-93l2176 -677c75,-24 175,-35 275,-35 100,0 199,11 275,35z"/>
  <path class="fil7" d="M6649 6633l2176 678c152,47 152,124 0,171l-2176 678c-76,23 -175,35 -275,35 -100,0 -200,-12 -275,-35l-2176 -678c-152,-47 -152,-124 0,-171l2176 -678c75,-23 175,-35 275,-35 100,0 199,12 275,35z"/>
  <path class="fil8" d="M7631 7513l0 1766 -2514 0 0 -1766c0,-123 563,-223 1257,-223 694,0 1257,100 1257,223z"/>
  <path class="fil16" d="M4340 7707l193 152c5,3 10,4 15,2 4,-3 7,-7 7,-13l0 -941 -431 134 0 807c0,6 3,10 8,13 4,2 10,1 14,-2l194 -152z"/>
  <path class="fil17" d="M7482 12647l-4561 0c-231,0 -441,-94 -594,-246 -152,-152 -246,-363 -246,-594 0,-231 94,-441 246,-593 153,-152 363,-247 594,-247l4561 0c231,0 441,95 593,247 152,152 247,362 247,593 0,232 -95,442 -247,594 -152,152 -362,246 -593,246z"/>
  <path class="fil16" d="M2105 11607c37,-151 116,-286 222,-393 153,-152 363,-247 594,-247l4561 0c231,0 441,95 593,247 107,107 185,242 222,393 -37,150 -115,285 -222,392 -152,152 -362,247 -593,247l-4561 0c-231,0 -441,-95 -594,-247 -106,-107 -185,-242 -222,-392z"/>
  <path class="fil9" d="M10299 12585l-3237 0c-214,0 -409,-87 -550,-228 -141,-141 -228,-336 -228,-550 0,-214 87,-408 228,-549 141,-141 336,-228 550,-228l3237 0 0 1555z"/>
  <path class="fil12" d="M10350 12444c56,0 101,46 101,102 0,56 -45,101 -101,101l-3328 0c-231,0 -441,-94 -593,-246 -152,-152 -247,-362 -247,-594 0,-231 95,-441 247,-593 152,-152 362,-247 593,-247l3328 0c56,0 101,46 101,102 0,56 -45,102 -101,102l-3328 0c-175,0 -334,71 -449,187 -116,115 -187,274 -187,449 0,175 71,335 187,450 115,115 274,187 449,187l3328 0z"/>
  <path class="fil16" d="M3006 11807c0,-231 94,-441 246,-593 153,-152 363,-247 594,-247l-617 0c-231,0 -441,95 -593,247 -153,152 -247,362 -247,593 0,231 94,442 247,594 152,152 362,246 593,246l617 0c-231,0 -441,-94 -594,-246 -152,-152 -246,-362 -246,-594zm2588 0l0 0c0,-231 95,-441 247,-593 152,-152 362,-247 593,-247l-616 0c-232,0 -442,95 -594,247 -152,152 -246,362 -246,593 0,231 94,442 246,594 152,152 362,246 594,246l616 0c-231,0 -441,-94 -593,-246 -152,-152 -247,-362 -247,-594z"/>
  <path class="fil18" d="M3006 11807c0,-231 94,-441 246,-593 153,-152 363,-247 594,-247l-617 0c-231,0 -441,95 -593,247 -153,152 -247,362 -247,593 0,101 18,197 50,286 137,96 303,153 482,153l209 0c-79,-128 -124,-278 -124,-439zm2713 439l0 0 -617 0c-79,-128 -124,-278 -124,-439 0,-231 94,-441 246,-593 152,-152 362,-247 594,-247l616 0c-231,0 -441,95 -593,247 -152,152 -247,362 -247,593 0,161 46,311 125,439z"/>
  <path class="fil19" d="M10299 12218l-2085 0 -519 0 -471 0c-145,0 -276,-59 -370,-154 -95,-94 -154,-225 -154,-370 0,-144 59,-275 154,-369 94,-95 225,-154 370,-154l-202 0c-175,0 -334,71 -449,187 -116,115 -187,274 -187,449 0,170 67,324 176,439 3,4 7,7 11,11 115,115 274,187 449,187l1006 0 2271 0 0 -226z"/>
  <path class="fil20" d="M5162 10967l4143 0c210,0 401,-85 539,-224 138,-138 224,-329 224,-539 0,-210 -86,-400 -224,-539 -138,-138 -329,-224 -539,-224l-4143 0c-210,0 -401,86 -539,224 -138,139 -224,329 -224,539 0,210 86,401 224,539 138,139 329,224 539,224z"/>
  <path class="fil11" d="M10046 10022c-34,-137 -105,-260 -202,-357 -138,-138 -329,-224 -539,-224l-4143 0c-210,0 -401,86 -539,224 -97,97 -168,220 -202,357 34,137 105,260 202,357 138,138 329,224 539,224l4143 0c210,0 401,-86 539,-224 97,-97 168,-220 202,-357z"/>
  <path class="fil9" d="M2602 10911l2941 0c195,0 371,-79 499,-208 128,-128 208,-304 208,-499 0,-194 -80,-371 -208,-499 -128,-128 -304,-207 -499,-207l-2941 0 0 1413z"/>
  <path class="fil21" d="M2556 10783c-51,0 -92,41 -92,92 0,51 41,92 92,92l3023 0c210,0 401,-85 539,-224 138,-138 224,-329 224,-539 0,-210 -86,-400 -224,-539 -138,-138 -329,-224 -539,-224l-3023 0c-51,0 -92,42 -92,93 0,51 41,92 92,92l3023 0c159,0 304,65 409,170 104,105 170,249 170,408 0,159 -66,304 -170,409 -105,105 -250,170 -409,170l-3023 0z"/>
  <path class="fil19" d="M2602 10578l1895 0 471 0 428 0c131,0 250,-54 336,-140 87,-86 140,-205 140,-336 0,-131 -53,-250 -140,-336 -86,-87 -205,-140 -336,-140l183 0c159,0 304,65 409,170 104,105 170,249 170,408 0,154 -61,295 -161,399 -3,3 -6,6 -9,10 -105,105 -250,170 -409,170l-914 0 -2063 0 0 -205z"/>
  <path class="fil22" d="M9228 10204c0,-210 -86,-400 -224,-539 -138,-138 -329,-224 -539,-224l560 0c210,0 401,86 539,224 138,139 224,329 224,539 0,210 -86,401 -224,539 -138,139 -329,224 -539,224l-560 0c210,0 401,-85 539,-224 138,-138 224,-329 224,-539zm-2560 0l0 0c0,-210 -86,-400 -224,-539 -138,-138 -329,-224 -539,-224l560 0c210,0 401,86 539,224 138,139 224,329 224,539 0,210 -86,401 -224,539 -138,139 -329,224 -539,224l-560 0c210,0 401,-85 539,-224 138,-138 224,-329 224,-539zm853 0l0 0c0,210 -86,401 -224,539 -138,139 -329,224 -539,224l560 0c210,0 401,-85 539,-224 139,-138 224,-329 224,-539 0,-210 -85,-400 -224,-539 -138,-138 -329,-224 -539,-224l-560 0c210,0 401,86 539,224 138,139 224,329 224,539zm854 0l0 0c0,210 -86,401 -224,539 -139,139 -329,224 -539,224l560 0c210,0 400,-85 539,-224 138,-138 224,-329 224,-539 0,-210 -86,-400 -224,-539 -139,-138 -329,-224 -539,-224l-560 0c209,0 400,86 539,224 138,139 224,329 224,539z"/>
  <path class="fil11" d="M9742 10464c-38,106 -100,201 -178,279 -138,139 -329,224 -539,224l-560 0c210,0 401,-85 539,-224 42,-42 80,-89 111,-140l190 0c163,0 313,-52 437,-139zm-920 139l0 0 -560 0c-32,51 -69,98 -111,140 -139,139 -329,224 -539,224l560 0c210,0 400,-85 539,-224 42,-42 79,-89 111,-140zm-853 0l0 0c-32,51 -69,98 -112,140 -138,139 -329,224 -539,224l-560 0c210,0 401,-85 539,-224 42,-42 80,-89 111,-140l561 0zm-854 0l0 0 -560 0c-31,51 -69,98 -111,140 -138,139 -329,224 -539,224l560 0c210,0 401,-85 539,-224 42,-42 80,-89 111,-140z"/>
  <path class="fil23" d="M2924 10235l250 195c5,5 12,5 18,2 7,-3 10,-9 10,-15l0 -774c0,-9 -8,-17 -17,-17l-521 0c-9,0 -17,8 -17,17l0 774c0,6 3,12 10,15 6,3 13,3 18,-2l249 -195z"/>
  <path class="fil24" d="M7156 9441l-3338 0c-169,0 -323,-69 -434,-180 -112,-112 -181,-265 -181,-434 0,-170 69,-323 181,-435 111,-111 265,-180 434,-180l3338 0c169,0 322,69 434,180 111,112 180,265 180,435 0,169 -69,322 -180,434 -112,111 -265,180 -434,180z"/>
  <path class="fil14" d="M3221 8680c27,-111 85,-210 163,-288 111,-111 265,-180 434,-180l3338 0c169,0 322,69 434,180 78,78 135,177 162,288 -27,110 -84,209 -162,287 -112,111 -265,180 -434,180l-3338 0c-169,0 -323,-69 -434,-180 -78,-78 -136,-177 -163,-287z"/>
  <path class="fil9" d="M9218 9396l-2370 0c-156,0 -299,-64 -402,-167 -103,-103 -167,-246 -167,-402 0,-157 64,-299 167,-403 103,-103 246,-167 402,-167l2370 0 0 1139z"/>
  <path class="fil13" d="M9255 9293c41,0 74,33 74,74 0,41 -33,74 -74,74l-2436 0c-169,0 -322,-69 -434,-180 -111,-112 -180,-265 -180,-434 0,-170 69,-323 180,-435 112,-111 265,-180 434,-180l2436 0c41,0 74,33 74,74 0,41 -33,75 -74,75l-2436 0c-128,0 -244,52 -329,137 -84,84 -137,200 -137,329 0,128 53,244 137,329 85,84 201,137 329,137l2436 0z"/>
  <path class="fil14" d="M3880 8827c0,-170 69,-323 181,-435 111,-111 265,-180 434,-180l-451 0c-170,0 -323,69 -435,180 -111,112 -180,265 -180,435 0,169 69,322 180,434 112,111 265,180 435,180l451 0c-169,0 -323,-69 -434,-180 -112,-112 -181,-265 -181,-434zm1894 0l0 0c0,-170 70,-323 181,-435 111,-111 265,-180 434,-180l-451 0c-169,0 -323,69 -434,180 -112,112 -181,265 -181,435 0,169 69,322 181,434 111,111 265,180 434,180l451 0c-169,0 -323,-69 -434,-180 -111,-112 -181,-265 -181,-434z"/>
  <path class="fil25" d="M3880 8827c0,-170 69,-323 181,-435 111,-111 265,-180 434,-180l-451 0c-170,0 -323,69 -435,180 -111,112 -180,265 -180,435 0,73 13,143 37,209 100,70 221,111 352,111l153 0c-58,-93 -91,-203 -91,-320zm1985 320l0 0 -451 0c-58,-93 -91,-203 -91,-320 0,-170 69,-323 181,-435 111,-111 265,-180 434,-180l451 0c-169,0 -323,69 -434,180 -111,112 -181,265 -181,435 0,117 34,227 91,320z"/>
  <path class="fil19" d="M9218 9127l-1527 0 -379 0 -345 0c-106,0 -202,-43 -271,-112 -69,-70 -113,-166 -113,-271 0,-106 44,-201 113,-271 69,-69 165,-112 271,-112l-148 0c-128,0 -244,52 -329,137 -84,84 -137,200 -137,329 0,124 50,237 129,320 3,3 6,6 8,9 85,84 201,137 329,137l737 0 1662 0 0 -166z"/>
  <path class="fil16" d="M14339 8542c384,-391 671,106 631,606 -38,473 -446,2098 -371,2781l-156 0c-382,-876 -597,-2885 -104,-3387z"/>
  <path class="fil12" d="M14501 11929c-373,-1381 98,-3291 100,-3297 3,-12 15,-19 27,-17 12,3 19,15 16,27 -2,7 -473,1918 -98,3287l-45 0z"/>
  <path class="fil18" d="M15288 9405c405,-214 507,254 349,642 -131,321 -709,1271 -928,1882l-206 0c-17,-844 306,-2270 785,-2524z"/>
  <path class="fil16" d="M14578 11929c134,-1141 893,-2382 896,-2386 5,-9 17,-12 25,-6 9,5 12,16 7,25 -3,5 -757,1237 -891,2367l-37 0z"/>
  <path class="fil18" d="M13575 9947c-393,-172 -455,272 -281,622 118,237 544,844 830,1360l327 0c-111,-781 -470,-1805 -876,-1982z"/>
  <path class="fil16" d="M14335 11929c-279,-946 -922,-1837 -924,-1841 -6,-7 -17,-9 -24,-4 -8,6 -10,17 -4,24 2,4 638,886 916,1821l36 0z"/>
  <path class="fil9" d="M14955 11617l-1151 0c-35,0 -63,28 -63,62l0 285c0,34 28,62 63,62l1151 0c34,0 62,-28 62,-62l0 -285c0,-34 -28,-62 -62,-62z"/>
  <polygon class="fil9" points="14757,11848 14001,11848 13804,12026 13965,12647 14379,12647 14793,12647 14955,12026 "/>
  <polygon class="fil26" points="13804,12026 13837,12154 14922,12154 14955,12026 "/>
  <path class="fil27" d="M8692 7983c1,13 -2,73 11,98 3,6 -3,14 -5,19 -8,18 -33,42 -115,54 -82,12 -174,3 -221,-3 -48,-6 -20,-29 2,-39 22,-9 190,-64 214,-88 24,-24 7,-65 10,-72 4,-6 93,-6 104,31z"/>
  <path class="fil7" d="M8703 8081c0,0 15,3 20,21 5,18 0,76 -11,97 -10,21 -66,13 -162,13 -97,0 -92,0 -144,0 -53,0 -130,-15 -139,-36 -9,-20 33,-62 104,-67 0,0 -14,10 4,23 18,14 82,28 179,16 97,-11 145,-52 149,-67z"/>
  <path class="fil13" d="M8597 6030l-25 36c0,0 -58,640 -54,840 3,201 41,232 43,434 1,202 22,591 20,640 -1,48 89,38 115,17 25,-21 51,-698 44,-799 -6,-100 12,-242 35,-335 22,-93 161,-610 161,-745 0,-134 -339,-88 -339,-88z"/>
  <path class="fil27" d="M8946 6990c0,0 11,6 35,4 17,0 35,-2 50,-1 7,1 13,2 19,4 18,7 43,31 60,112 17,81 13,173 10,221 -4,48 -28,21 -39,0 -11,-22 -68,-168 -111,-206 -42,-38 -48,-33 -55,-37 -7,-3 -5,-84 31,-97z"/>
  <path class="fil7" d="M9031 6993c0,0 2,-15 20,-21 17,-6 76,-4 97,5 21,10 17,65 22,162 5,96 5,91 8,144 3,52 -8,131 -28,140 -20,10 -64,-29 -73,-100 0,0 11,14 23,-5 13,-19 23,-84 6,-180 -16,-96 -60,-142 -75,-145z"/>
  <path class="fil14" d="M8988 5922c27,20 135,92 146,115 204,443 -631,564 -729,710 -17,24 539,230 555,243 16,13 3,99 -17,113 -20,14 -698,-138 -852,-232 0,0 -97,-74 -4,-238 93,-165 524,-439 554,-474 29,-34 77,-77 58,-136 -19,-60 289,-101 289,-101z"/>
  <path class="fil27" d="M8281 5206l-22 -7c0,0 -12,-31 -26,-44 -14,-13 -39,-34 -41,-63 -2,-30 109,-46 109,-39 0,6 47,51 43,70 -5,18 -20,49 -20,49l-43 34z"/>
  <path class="fil16" d="M8664 5204c0,0 -139,322 -166,355 -28,34 -148,-323 -174,-387 0,0 -50,3 -66,18 0,0 81,429 118,515 38,86 120,98 196,66 75,-32 268,-372 309,-435 40,-62 -66,-280 -217,-132z"/>
  <path class="fil7" d="M9107 5030c146,-203 40,-344 -74,-411 -53,-31 -99,-138 -98,-184 3,-164 -81,-351 -250,-298 -312,-128 -334,152 -287,338 13,51 -16,102 -62,149 -111,113 -46,259 -2,339 44,80 -34,169 7,231 49,75 271,270 314,65 76,-365 218,-190 452,-229z"/>
  <path class="fil27" d="M8690 4660l-5 54c0,0 25,-1 34,21 8,23 31,155 30,201 0,0 2,4 9,1 8,-3 94,-100 159,-123l-142 -321 -85 167z"/>
  <path class="fil18" d="M8748 4925c0,0 -12,39 -70,115 -57,75 -194,207 -194,275 0,68 76,220 86,290 26,176 -40,334 -19,512 2,19 9,14 16,13 6,-2 162,-27 301,-19 140,8 239,-31 271,-58 0,0 16,-18 11,-35 -4,-17 -98,-211 -97,-416 2,-206 278,-651 -136,-788 0,0 -66,16 -90,29 -23,12 -79,82 -79,82z"/>
  <path class="fil28" d="M8738 5060c0,0 -76,392 -99,436 -22,43 -242,-324 -287,-389 0,0 -55,16 -69,37 0,0 194,457 257,543 63,87 158,80 234,26 75,-54 207,-479 237,-559 30,-79 -141,-296 -273,-94z"/>
  <path class="fil24" d="M8117 4733c0,0 -18,5 -19,17 0,13 41,301 47,312 5,11 10,29 130,16 0,0 21,-4 26,-14 5,-11 -24,-269 -26,-299 -1,-30 -20,-35 -37,-37 -18,-1 -121,5 -121,5z"/>
  <path class="fil27" d="M8548 4214c0,0 -20,24 -49,46 -64,49 -54,258 -5,375 3,8 25,2 35,-1 17,-6 64,65 77,86 10,18 42,9 69,-1 27,-10 94,-72 116,-138 21,-66 -2,-156 -2,-156 0,0 15,-39 6,-71 -8,-31 -11,-25 -27,-31 -15,-6 -17,49 -17,49 0,0 -92,-186 -203,-158z"/>
  <path class="fil7" d="M8456 4292c43,97 235,31 295,80l-16 -101 -30 -71c0,0 -69,-44 -78,-41 -8,3 -174,67 -171,133z"/>
  <path class="fil27" d="M8288 5159c0,0 -18,-17 -59,-39 -40,-22 -75,-41 -81,-56 -5,-14 -1,-29 7,-33 7,-5 28,1 36,-2 9,-3 -13,-15 -28,-18 -14,-3 -31,-3 -37,-7 -6,-3 -5,-12 -4,-14 1,-3 13,-3 29,-4 15,-1 25,-3 39,2 14,5 29,7 31,7 2,-1 5,-12 0,-22 -5,-10 -26,-27 -33,-32 -6,-4 -29,-2 -40,-6 -11,-4 -10,-17 3,-19 13,-3 27,-2 46,-1 18,1 26,12 49,27 24,16 67,44 80,75 12,30 16,70 26,90 11,21 -12,45 -64,52z"/>
  <path class="fil7" d="M8914 4438l-123 -6c-92,81 -70,292 -1,386 79,107 211,17 261,69l15 -126c0,0 -237,-197 -152,-323z"/>
  <path class="fil27" d="M7056 11219c0,0 11,-8 19,-32 6,-16 12,-34 20,-48 3,-6 7,-12 11,-16 15,-15 48,-29 132,-12 84,18 171,59 215,82 44,23 9,36 -16,37 -25,2 -188,-4 -242,21 -54,25 -52,33 -58,38 -6,5 -82,-30 -81,-70z"/>
  <path class="fil7" d="M7095 11139c0,0 -14,-8 -12,-27 1,-19 27,-75 45,-91 17,-17 69,11 163,46 94,34 89,32 141,51 51,19 121,62 123,85 1,22 -55,49 -126,28 0,0 17,-4 4,-24 -13,-20 -70,-56 -169,-80 -99,-24 -161,-1 -169,12z"/>
  <path class="fil7" d="M6689 11562c0,0 360,-347 379,-366 19,-19 96,6 101,46 6,40 -379,554 -379,554l-101 -234z"/>
  <path class="fil27" d="M6454 11136c0,0 1,-13 -10,-36 -8,-16 -17,-32 -21,-47 -3,-7 -4,-14 -4,-20 -1,-20 11,-54 82,-103 70,-49 160,-84 207,-100 47,-17 32,18 16,37 -16,20 -133,134 -151,190 -19,57 -13,60 -13,68 0,8 -78,39 -106,11z"/>
  <path class="fil7" d="M6423 11053c0,0 -16,4 -29,-10 -12,-14 -35,-71 -35,-95 0,-24 56,-43 146,-88 89,-44 85,-42 134,-66 49,-25 128,-46 146,-31 17,14 -2,73 -66,110 0,0 8,-15 -15,-19 -23,-4 -89,12 -174,68 -85,55 -111,116 -107,131z"/>
  <path class="fil8" d="M5743 11819l34 116c0,0 765,0 879,0 114,0 164,-66 173,-139 9,-67 -222,-598 -268,-693 -22,-48 -125,-40 -113,24 24,129 123,503 123,538 0,42 -11,47 -88,32 -76,-15 -436,-228 -617,-209 -181,19 -123,331 -123,331z"/>
  <path class="fil7" d="M5152 11452c73,-249 -79,-352 -215,-378 -62,-12 -144,-101 -159,-147 -54,-162 -201,-317 -349,-207 -350,-17 -275,265 -165,431 31,46 19,107 -10,168 -70,149 45,270 116,334 114,103 13,282 303,282 162,0 196,-103 200,-308 3,-169 103,-78 279,-175z"/>
  <path class="fil13" d="M4114 11477c0,0 -39,13 -49,30 0,0 161,317 203,367 42,50 76,49 115,37 0,0 1,0 3,0l0 -1c17,-6 133,-53 262,-148 140,-104 242,-249 218,-297 -23,-47 -76,-83 -137,-44 -61,40 -155,201 -255,289 -98,87 -118,64 -125,57l0 -1c-75,-89 -166,-202 -235,-289z"/>
  <path class="fil29" d="M4615 11233l13 54c0,0 25,-9 41,10 16,19 84,140 98,186 0,0 4,4 10,-2 6,-5 57,-131 113,-175l-250 -267 -25 194z"/>
  <path class="fil27" d="M4321 10843c0,0 -51,90 -25,160 25,71 44,114 52,121 8,8 14,5 18,13 4,8 16,34 26,68 10,35 31,17 48,21 8,1 69,67 83,66 59,-5 99,-137 122,-157 23,-19 43,58 41,-14 -1,-72 -57,-92 -57,-92 31,-99 -71,-146 -41,-45 0,0 -168,-206 -267,-141z"/>
  <path class="fil7" d="M4288 10908c69,182 178,20 300,76l-64 -149 -53 -59c0,0 -83,-19 -90,-13 -8,5 -119,83 -93,145z"/>
  <path class="fil7" d="M4758 10938l-129 91c-62,111 -150,443 -5,637 116,78 356,-368 423,-335l-28 -128c0,0 -301,-112 -261,-265z"/>
  <path class="fil14" d="M4754 11213c0,0 104,-93 236,-22 131,70 194,160 442,234 248,74 419,13 442,17 23,4 48,84 25,215 -23,132 -57,275 -145,284 -88,10 -370,-42 -518,-116 -149,-74 -212,-13 -301,-40 -90,-27 -82,-114 -147,-217 -65,-103 -116,-247 -34,-355z"/>
  <path class="fil30" d="M4068 11511c-3,-4 -6,-8 -9,-11 -12,-9 -32,-24 -35,-46 -3,-23 81,-41 82,-36 0,5 38,37 35,51 -1,12 -8,30 -11,36 -6,-3 -13,-4 -20,2 -21,17 -42,4 -42,4z"/>
  <path class="fil7" d="M3973 11179c0,0 -13,4 -14,14 0,10 39,229 43,237 4,9 8,23 100,10 0,0 16,-3 20,-12 3,-8 -25,-204 -27,-227 -2,-23 -16,-27 -30,-28 -13,-1 -92,6 -92,6z"/>
  <path class="fil14" d="M4147 11457c0,0 -41,15 -51,32 0,0 172,339 224,402 35,42 79,51 121,39 0,0 1,0 2,-1l0 0c18,-7 140,-55 275,-155 147,-109 253,-261 229,-311 -18,-36 -183,-128 -236,-119 0,0 3,135 -96,292 -25,31 -52,60 -79,83 -103,92 -124,68 -131,60l0 -1c-78,-93 -186,-229 -258,-321z"/>
  <path class="fil27" d="M4101 11500c0,0 -15,-12 -47,-27 -32,-15 -60,-27 -65,-38 -5,-11 -2,-22 3,-26 6,-4 22,-1 28,-3 7,-3 -11,-11 -22,-13 -11,-1 -24,0 -29,-3 -5,-2 -5,-9 -4,-11 1,-2 10,-3 22,-4 12,-2 19,-3 30,0 11,3 23,4 24,3 2,0 4,-10 -1,-17 -4,-7 -21,-19 -26,-22 -6,-3 -23,-1 -32,-3 -8,-2 -8,-12 2,-15 9,-2 20,-2 35,-3 14,0 20,8 39,19 19,10 53,30 64,53 11,22 16,52 25,67 9,15 -7,35 -46,43z"/>
  <path class="fil31" d="M11807 12647l-8150 0 0 -712 8150 0c9,0 25,0 43,9 139,69 597,255 681,321 10,8 13,19 13,26 0,7 -3,18 -13,26 -84,66 -542,252 -681,321 -18,9 -34,9 -43,9z"/>
  <path class="fil32" d="M11807 12647l-8150 0 0 -237 8700 0c-171,80 -413,181 -507,228 -18,9 -34,9 -43,9z"/>
  <path class="fil23" d="M3657 12647l-472 0c-196,0 -357,-160 -357,-356 0,-196 161,-356 357,-356l472 0 0 712z"/>
  <path class="fil33" d="M11842 11941c2,1 5,2 8,3 110,55 423,184 589,268 42,21 75,40 92,53 10,8 13,19 13,26 0,7 -3,18 -13,26 -84,66 -542,252 -681,321l-125 -228 0 -238 117 -231z"/>
  <path class="fil23" d="M12544 12291c0,7 -3,18 -13,26 -84,66 -542,252 -681,321l-125 -228 0 -119 819 0z"/>
  <path class="fil34" d="M12531 12265c10,8 13,19 13,26 0,7 -3,18 -13,26l-806 93 0 -238 806 93z"/>
  <polygon class="fil35" points="3542,12410 11725,12410 11725,12172 3542,12172 "/>
  <path class="fil9" d="M3546 12647l-129 -237 0 -238 119 -237 263 0c8,0 20,0 34,6l-116 231 0 238 124 228c9,17 -33,9 -42,9l-253 0z"/>
  <path class="fil7" d="M12325 12157c1,1 18,10 19,32 1,24 -22,44 -68,47 -46,3 -80,45 -80,55 0,10 34,53 80,55 46,3 69,23 68,47 -1,23 -18,31 -19,32 42,-19 81,-38 114,-55 42,-21 75,-39 92,-53 10,-8 13,-19 13,-26 0,-7 -3,-18 -13,-26 -17,-13 -50,-32 -92,-53 -33,-17 -72,-35 -114,-55z"/>
  <path class="fil36" d="M2133 13078l12345 0c56,0 101,50 101,110l0 536c0,60 -45,109 -101,109l-12345 0c-55,0 -101,-49 -101,-109l0 -536c0,-60 46,-110 101,-110z"/>
  <path class="fil8" d="M2692 13833l215 0 0 -559 -215 0 0 559zm10951 0l0 0 277 0 0 -559 -277 0 0 559zm-5481 0l0 0 5343 0 0 -559 -5343 0 0 559zm-716 0l0 0 276 0 0 -559 -276 0 0 559zm-451 0l0 0 163 0 0 -559 -163 0 0 559z"/>
  <path class="fil7" d="M2133 13078l12345 0c56,0 101,50 101,110l0 229 -12547 0 0 -229c0,-60 46,-110 101,-110z"/>
  <path class="fil37" d="M1095 12647l14422 0c48,0 87,43 87,95l0 452c0,52 -39,95 -87,95l-14422 0c-48,0 -88,-43 -88,-95l0 -452c0,-52 40,-95 88,-95z"/>
  <path class="fil11" d="M14894 12647l303 0 0 642 -303 0 0 -642zm-2486 0l0 0 229 0 0 642 -229 0 0 -642zm-10819 0l0 0 388 0 0 642 -388 0 0 -642zm582 0l0 0 5955 0 0 642 -5955 0 0 -642zm9443 0l0 0 388 0 0 642 -388 0 0 -642z"/>
  <path class="fil36" d="M2191 13582c27,0 49,24 49,54 0,29 -22,53 -49,53 -27,0 -49,-24 -49,-53 0,-30 22,-54 49,-54z"/>
  <path class="fil36" d="M14421 13582c27,0 49,24 49,54 0,29 -22,53 -49,53 -27,0 -49,-24 -49,-53 0,-30 22,-54 49,-54z"/>
  <path class="fil9" d="M15604 12823l-2603 0 -185 116c-2,1 -5,2 -8,2l0 0 -11801 0 0 -34 11797 0 184 -115c3,-2 6,-3 9,-3l2607 0 0 34z"/>
  <path class="fil7" d="M10744 10237c25,-11 49,-23 64,9 163,341 281,649 379,1006 38,148 -84,209 -139,192 -165,-52 -648,-946 -650,-951 -51,-147 346,-256 346,-256z"/>
  <path class="fil7" d="M11212 11330c57,255 148,810 280,1105 0,0 9,46 -14,68 -24,21 -65,25 -98,6 -32,-20 -319,-731 -422,-1119 0,0 -36,-138 7,-197 41,-58 195,-83 247,137z"/>
  <path class="fil8" d="M10739 10259c27,8 52,15 42,50 -111,360 -232,668 -401,997 -72,135 -202,97 -231,47 -67,-114 62,-715 127,-995 36,-154 321,-167 463,-99z"/>
  <path class="fil8" d="M10343 11381c-134,224 -451,690 -559,994 0,0 -25,39 -57,39 -32,-1 -65,-26 -74,-63 -10,-36 272,-749 465,-1101 0,0 70,-125 141,-138 70,-14 198,74 84,269z"/>
  <path class="fil14" d="M11348 12456c1,13 2,24 2,32 2,27 2,59 -1,84 -4,24 1,36 1,36 0,0 -6,18 5,23 10,5 75,17 125,8 50,-8 114,-7 148,3 34,10 105,15 135,-27 0,0 3,-11 -4,-18 -8,-8 7,-56 -40,-65 -51,-9 -184,-34 -210,-83 0,0 -9,-10 -22,-7 -12,4 -33,29 -66,30 -33,0 -52,2 -60,-12 -8,-13 -13,-4 -13,-4z"/>
  <path class="fil14" d="M9652 12329c-4,12 -7,23 -10,30 -9,25 -21,56 -34,77 -12,21 -13,34 -13,34 0,0 -12,14 -4,23 8,9 63,44 112,56 49,11 108,38 135,60 28,22 92,55 135,27 0,0 7,-8 4,-18 -4,-10 28,-49 -12,-75 -44,-28 -156,-103 -161,-158 0,0 -5,-13 -18,-15 -12,-1 -42,14 -73,2 -30,-12 -48,-18 -50,-34 -2,-16 -11,-9 -11,-9z"/>
  <path class="fil18" d="M10257 10347c88,210 599,182 644,95l0 0 0 0c15,-29 6,-72 0,-111 -87,-496 127,-1098 -220,-1269l-47 -24c-4,-19 -1,-39 7,-59 -39,-7 -81,-9 -122,-7l-32 43c-280,147 -132,534 -175,889 -19,154 -95,347 -55,443z"/>
  <path class="fil10" d="M10702 8665c61,15 99,78 83,139l-56 227c-15,62 -78,99 -140,84 -61,-15 -99,-78 -83,-139l56 -228c16,-61 78,-99 140,-83z"/>
  <path class="fil10" d="M10505 8857c-1,1 21,38 -1,125 13,-49 65,-81 106,-71 0,0 107,63 107,78 0,1 1,1 2,1 105,15 119,-34 121,-45 1,-11 7,-68 10,-72 3,-4 28,0 30,-14 2,-15 -2,-99 -20,-207 -17,-107 -113,-165 -113,-165 -183,9 -126,250 -161,232 -35,-18 -68,7 -58,52 2,6 -26,81 -23,86z"/>
  <path class="fil7" d="M10850 8873c0,0 -51,-4 -87,-6 -37,-1 -63,0 -82,-21 -19,-22 -34,-39 -34,-79 0,-40 21,-72 32,-82 12,-10 12,-27 3,-49 -9,-22 -29,-137 87,-133 0,0 4,-10 -11,-38 -15,-28 -192,-39 -276,68 -85,108 -55,200 -25,263 3,7 6,13 8,19 0,1 12,24 19,44 8,19 29,35 45,22 19,-17 34,-41 31,-73 0,0 -35,-72 1,-88 0,0 25,-21 49,29 0,0 6,26 3,50 -3,23 -18,80 10,162 27,82 114,72 145,76 30,4 67,-4 71,-35 4,-31 14,-101 16,-111 1,-11 -2,-18 -5,-18z"/>
  <path class="fil12" d="M10435 8757c-3,-8 -6,-16 -8,-24 -33,-123 40,-250 163,-283l172 -46c28,-7 57,10 65,38l52 196 -444 119z"/>
  <path class="fil16" d="M10985 8584l-556 149c-11,3 -17,14 -14,25l1 4c3,11 14,17 25,14l556 -148c11,-3 18,-15 15,-26l-1 -4c-3,-11 -15,-17 -26,-14z"/>
  <path class="fil10" d="M10576 8716c-9,-1 -15,4 -15,4 -23,11 -16,46 -9,68 4,12 8,20 8,20 1,2 1,4 1,6l50 0c1,-6 2,-11 2,-15 3,-24 -3,-50 -3,-50 -8,-16 -16,-25 -23,-30 0,0 -1,0 -1,0 -2,-1 -4,-2 -6,-3 -1,0 -3,0 -4,0z"/>
  <path class="fil38" d="M11497 9966l0 0c60,116 15,260 -100,321l-1076 565c-116,60 -260,15 -321,-100 -61,-116 -16,-260 100,-321l1076 -565c115,-60 260,-15 321,100z"/>
  <polygon class="fil39" points="10560,10726 10333,10845 10112,10425 10339,10305 "/>
  <polygon class="fil39" points="11385,10293 11157,10413 10936,9992 11164,9873 "/>
  <path class="fil40" d="M11111 9978l157 299c4,8 1,18 -7,22l-30 15c-7,5 -17,1 -21,-6l-157 -300c-4,-7 -1,-17 7,-21l29 -16c8,-4 18,-1 22,7z"/>
  <path class="fil10" d="M11172 10066l58 111c4,7 1,15 -5,18l-58 31c-6,3 -15,0 -18,-6l-59 -112c-3,-6 0,-14 6,-18l58 -30c6,-4 15,-1 18,6z"/>
  <path class="fil41" d="M11151 9999c6,11 1,24 -10,30l-63 33c-11,6 -25,2 -31,-9 -5,-11 -1,-25 10,-31l63 -33c11,-6 25,-1 31,10z"/>
  <path class="fil41" d="M11273 10233c6,11 2,24 -9,30l-63 33c-11,6 -25,2 -31,-9 -6,-11 -1,-25 10,-31l63 -33c11,-6 25,-1 30,10z"/>
  <path class="fil40" d="M10287 10410l157 299c4,8 1,18 -7,22l-30 16c-8,4 -18,1 -22,-7l-157 -299c-4,-8 -1,-18 7,-22l30 -15c8,-5 18,-1 22,6z"/>
  <path class="fil10" d="M10348 10498l58 112c4,6 1,14 -6,18l-57 30c-7,4 -15,1 -19,-6l-58 -111c-3,-7 -1,-15 6,-18l57 -31c7,-3 15,0 19,6z"/>
  <path class="fil41" d="M10326 10431c6,11 2,25 -9,31l-63 33c-11,6 -25,1 -31,-10 -6,-11 -1,-24 10,-30l63 -33c11,-6 25,-2 30,9z"/>
  <path class="fil41" d="M10449 10665c6,11 2,25 -9,31l-64 33c-11,6 -24,1 -30,-10 -6,-11 -2,-24 9,-30l63 -33c12,-6 25,-2 31,9z"/>
  <path class="fil16" d="M10361 9445c2,238 17,649 39,697 30,65 428,401 522,422 0,0 10,1 10,-12 0,-14 -12,-61 1,-78 13,-17 0,-26 -21,-34 -21,-8 -288,-283 -344,-357 -55,-73 67,-569 74,-633 36,-296 -284,-356 -281,-5z"/>
  <path class="fil10" d="M10897 10561l78 46c31,18 73,9 93,-20 21,-29 13,-67 -18,-85l-78 -46c-31,-18 -72,-9 -93,20 -21,29 -13,67 18,85z"/>
  <path class="fil10" d="M10962 10494l40 -14c15,-5 20,-21 12,-35 -9,-14 -28,-21 -43,-15l-40 14c-15,5 -21,21 -12,35 9,14 28,20 43,15z"/>
  <path class="fil4" d="M10252 1598l83 -315c29,-29 69,-47 113,-47 44,0 84,18 113,47 28,29 46,69 46,113 0,44 -18,83 -46,112 -29,29 -69,47 -113,47 -44,0 -84,-18 -113,-47 -29,-29 -46,-68 -46,-112 0,-44 17,-84 46,-113l-83 315zm118 -473l0 0c-22,6 -43,15 -63,26 -20,12 -38,26 -55,42 -3,3 -8,3 -11,1l-74 -43 -1 0c-4,-2 -9,-3 -13,-1 -5,1 -9,4 -11,8l-1 1 -52 90c-2,4 -3,9 -2,14 2,4 5,8 9,11l0 0 74 43c4,2 6,6 4,10 -2,11 -4,23 -6,34 -1,11 -2,23 -2,35 0,11 1,23 2,34 2,11 4,23 6,34 2,4 -1,9 -5,11l-73 42 0 0c-4,3 -7,7 -9,11 -1,5 0,10 2,14l53 91 0 0c2,4 6,7 11,8 4,2 9,1 14,-1l0 -1 74 -42c4,-2 8,-2 11,1 17,16 35,30 55,42 20,11 41,20 63,26 4,2 7,5 7,10l0 85c0,5 2,10 6,13 3,3 7,5 13,5l104 0c5,0 10,-2 13,-5 4,-3 6,-8 6,-13l0 -85c0,-5 3,-9 7,-10 22,-6 43,-15 63,-26 20,-12 38,-26 55,-42 3,-3 8,-3 12,-1l73 43c5,2 10,3 14,1 5,-1 9,-4 11,-8l1 -1 52 -90c2,-4 3,-9 2,-14 -2,-4 -5,-8 -9,-11l-74 -43c-4,-2 -6,-6 -5,-10 3,-11 5,-23 7,-34 1,-11 2,-23 2,-34 0,-12 -1,-24 -2,-35 -2,-11 -4,-23 -7,-34 -1,-4 2,-9 6,-11l73 -42c4,-3 7,-7 9,-11 1,-5 0,-10 -2,-14l-1 -1 -52 -90 0 0c-2,-4 -6,-7 -11,-8 -4,-2 -9,-1 -14,1l-74 43c-4,2 -9,2 -12,-1 -16,-16 -34,-30 -54,-42 -20,-11 -41,-20 -63,-26 -4,-2 -7,-5 -7,-10l0 -85c0,-5 -2,-10 -6,-13 -3,-3 -8,-5 -13,-5l-104 0c-6,0 -10,2 -13,5 -4,3 -6,8 -6,13l0 85c0,5 -3,9 -7,10z"/>
  <path class="fil42" d="M7329 3540l792 0c57,0 104,47 104,104l0 432 0 32 0 274c0,5 -2,9 -7,11 -4,2 -9,1 -12,-3l-179 -178 -698 0c-58,0 -105,-47 -105,-104l0 -464c0,-57 47,-104 105,-104z"/>
  <path class="fil9" d="M7478 3951c41,0 74,-34 74,-75 0,-41 -33,-75 -74,-75 -41,0 -75,34 -75,75 0,41 34,75 75,75z"/>
  <path class="fil9" d="M7725 3951c41,0 74,-34 74,-75 0,-41 -33,-75 -74,-75 -41,0 -75,34 -75,75 0,41 34,75 75,75z"/>
  <path class="fil9" d="M7972 3951c41,0 74,-34 74,-75 0,-41 -33,-75 -74,-75 -41,0 -75,34 -75,75 0,41 34,75 75,75z"/>
  <path class="fil42" d="M12048 8041l-793 0c-57,0 -104,47 -104,104l0 432 0 32 0 274c0,5 2,9 7,11 4,2 9,1 13,-3l178 -178 699 0c57,0 104,-47 104,-104l0 -464c0,-57 -47,-104 -104,-104z"/>
  <path class="fil9" d="M11898 8451c42,0 75,-33 75,-74 0,-41 -33,-75 -75,-75 -41,0 -74,34 -74,75 0,41 33,74 74,74z"/>
  <path class="fil9" d="M11651 8451c41,0 75,-33 75,-74 0,-41 -34,-75 -75,-75 -41,0 -74,34 -74,75 0,41 33,74 74,74z"/>
  <path class="fil9" d="M11404 8451c41,0 75,-33 75,-74 0,-41 -34,-75 -75,-75 -41,0 -74,34 -74,75 0,41 33,74 74,74z"/>
  <path class="fil3" d="M3164 9963l793 0c57,0 104,47 104,104l0 432 0 32 0 274c0,5 -3,9 -7,11 -5,2 -9,1 -13,-2l-178 -179 -699 0c-57,0 -104,-47 -104,-104l0 -464c0,-57 47,-104 104,-104z"/>
  <path class="fil9" d="M3313 10374c41,0 75,-34 75,-75 0,-41 -34,-75 -75,-75 -41,0 -74,34 -74,75 0,41 33,75 74,75z"/>
  <path class="fil9" d="M3560 10374c42,0 75,-34 75,-75 0,-41 -33,-75 -75,-75 -41,0 -74,34 -74,75 0,41 33,75 74,75z"/>
  <path class="fil9" d="M3807 10374c42,0 75,-34 75,-75 0,-41 -33,-75 -75,-75 -41,0 -74,34 -74,75 0,41 33,75 74,75z"/>
  <path class="fil9" d="M5212 3187c44,0 80,-36 80,-80 0,-45 -36,-80 -80,-80 -45,0 -81,35 -81,80 0,44 36,80 81,80z"/>
  <path class="fil2" d="M5613 4209c0,-15 -12,-28 -27,-28 -15,0 -27,13 -27,28l0 64 -65 0c-15,0 -27,12 -27,27 0,15 12,28 27,28l65 0 0 64c0,15 12,27 27,27 15,0 27,-12 27,-27l0 -64 65 0c15,0 27,-13 27,-28 0,-15 -12,-27 -27,-27l-65 0 0 -64z"/>
  <path class="fil2" d="M11453 1827c0,-15 -12,-27 -27,-27 -15,0 -27,12 -27,27l0 64 -65 0c-15,0 -27,12 -27,27 0,16 12,28 27,28l65 0 0 64c0,15 12,27 27,27 15,0 27,-12 27,-27l0 -64 64 0c16,0 28,-12 28,-28 0,-15 -12,-27 -28,-27l-64 0 0 -64z"/>
  <path class="fil2" d="M9048 350c0,-15 -12,-28 -27,-28 -15,0 -27,13 -27,28l0 64 -64 0c-16,0 -28,12 -28,27 0,15 12,28 28,28l64 0 0 64c0,15 12,27 27,27 15,0 27,-12 27,-27l0 -64 65 0c15,0 27,-13 27,-28 0,-15 -12,-27 -27,-27l-65 0 0 -64z"/>
  <path class="fil2" d="M16209 12298c0,-15 -12,-27 -27,-27 -15,0 -27,12 -27,27l0 65 -65 0c-15,0 -27,12 -27,27 0,15 12,27 27,27l65 0 0 64c0,16 12,28 27,28 15,0 27,-12 27,-28l0 -64 65 0c15,0 27,-12 27,-27 0,-15 -12,-27 -27,-27l-65 0 0 -65z"/>
  <path class="fil9" d="M1015 11980c44,0 80,-36 80,-81 0,-44 -36,-80 -80,-80 -44,0 -80,36 -80,80 0,45 36,81 80,81z"/>
  <path class="fil9" d="M10008 629c44,0 80,-36 80,-80 0,-44 -36,-80 -80,-80 -44,0 -80,36 -80,80 0,44 36,80 80,80z"/>
  <path class="fil9" d="M15044 4186c44,0 80,-36 80,-80 0,-44 -36,-80 -80,-80 -45,0 -81,36 -81,80 0,44 36,80 81,80z"/>
  <path class="fil4" d="M5673 1603c0,-25 -20,-44 -45,-44 -24,0 -44,19 -44,44l0 105 -105 0c-25,0 -44,20 -44,44 0,25 19,45 44,45l105 0 0 104c0,25 20,45 44,45 25,0 45,-20 45,-45l0 -104 104 0c25,0 45,-20 45,-45 0,-24 -20,-44 -45,-44l-104 0 0 -105z"/>
  <path class="fil4" d="M1396 8877c0,-24 -20,-44 -44,-44 -25,0 -45,20 -45,44l0 105 -104 0c-25,0 -45,20 -45,44 0,25 20,45 45,45l104 0 0 104c0,25 20,45 45,45 24,0 44,-20 44,-45l0 -104 105 0c24,0 44,-20 44,-45 0,-24 -20,-44 -44,-44l-105 0 0 -105z"/>
  <path class="fil4" d="M16104 3362c0,-25 -20,-45 -44,-45 -25,0 -45,20 -45,45l0 104 -104 0c-25,0 -45,20 -45,45 0,24 20,44 45,44l104 0 0 105c0,24 20,44 45,44 24,0 44,-20 44,-44l0 -105 105 0c24,0 44,-20 44,-44 0,-25 -20,-45 -44,-45l-105 0 0 -104z"/>
  <path class="fil4" d="M16184 524c0,-25 -20,-45 -45,-45 -24,0 -44,20 -44,45l0 104 -105 0c-24,0 -44,20 -44,45 0,24 20,44 44,44l105 0 0 105c0,24 20,44 44,44 25,0 45,-20 45,-44l0 -105 104 0c25,0 45,-20 45,-44 0,-25 -20,-45 -45,-45l-104 0 0 -104z"/>
 </g>
</svg>
