<?xml version="1.0" encoding="UTF-8"?>
<!DOCTYPE svg PUBLIC "-//W3C//DTD SVG 1.1//EN" "http://www.w3.org/Graphics/SVG/1.1/DTD/svg11.dtd">
<!-- Creator: CorelDRAW X7 -->
<svg xmlns="http://www.w3.org/2000/svg" xml:space="preserve" width="68.092mm" height="40.104mm" version="1.1" style="shape-rendering:geometricPrecision; text-rendering:geometricPrecision; image-rendering:optimizeQuality; fill-rule:evenodd; clip-rule:evenodd"
viewBox="0 0 6809 4010"
 xmlns:xlink="http://www.w3.org/1999/xlink"
 data-name="Layer 1">
 <defs>
  <style type="text/css">
   <![CDATA[
    .fil0 {fill:#B8CEDA}
    .fil1 {fill:#CEDBF2}
    .fil3 {fill:#D9E483;fill-rule:nonzero}
    .fil2 {fill:#A6D4AE;fill-rule:nonzero}
    .fil21 {fill:#566892;fill-rule:nonzero}
    .fil6 {fill:#0E2628;fill-rule:nonzero}
    .fil7 {fill:#113134;fill-rule:nonzero}
    .fil17 {fill:#9A542F;fill-rule:nonzero}
    .fil14 {fill:#AF6916;fill-rule:nonzero}
    .fil12 {fill:#AF7938;fill-rule:nonzero}
    .fil22 {fill:#BA3336;fill-rule:nonzero}
    .fil15 {fill:#CD703F;fill-rule:nonzero}
    .fil16 {fill:#CD7B4F;fill-rule:nonzero}
    .fil11 {fill:#D1383F;fill-rule:nonzero}
    .fil9 {fill:#D17556;fill-rule:nonzero}
    .fil19 {fill:#D46767;fill-rule:nonzero}
    .fil4 {fill:#DB5D5E;fill-rule:nonzero}
    .fil10 {fill:#E2997E;fill-rule:nonzero}
    .fil13 {fill:#E9A14B;fill-rule:nonzero}
    .fil23 {fill:#EF7274;fill-rule:nonzero}
    .fil20 {fill:#F2F2F7;fill-rule:nonzero}
    .fil5 {fill:#F49E08;fill-rule:nonzero}
    .fil8 {fill:#F6C4AF;fill-rule:nonzero}
    .fil18 {fill:#FDFDFD;fill-rule:nonzero}
   ]]>
  </style>
 </defs>
 <g id="Layer_x0020_1">
  <metadata id="CorelCorpID_0Corel-Layer"/>
  <path class="fil0" d="M6293 853c-1547,0 -2800,1253 -2800,2800 0,126 8,250 24,372l3285 0 0 -3126c-165,-30 -335,-46 -509,-46z"/>
  <path class="fil1" d="M6333 1105c-1423,0 -2577,1154 -2577,2577 0,116 8,231 23,343l3023 0 0 -2877c-152,-28 -309,-43 -469,-43z"/>
  <g id="_286031712">
   <path class="fil2" d="M7 3626l2779 0c54,0 98,-44 98,-99l0 -3146c0,-54 -44,-98 -98,-98l-2779 0 0 3343z"/>
   <path class="fil3" d="M7 3532l2671 0c52,0 93,-42 93,-94l0 -2968c0,-52 -41,-93 -93,-93l-2671 0 0 3155z"/>
  </g>
  <g id="_286061688">
   <path class="fil4" d="M5838 2554c11,11 22,22 32,33 6,6 6,16 -1,22 -6,6 -16,6 -22,-1 -10,-11 -21,-22 -32,-33 -6,-6 -5,-16 1,-22 3,-3 7,-4 11,-4 4,0 8,2 11,5z"/>
   <path class="fil4" d="M5945 2665c12,11 23,22 34,33 6,6 5,16 -1,22 -6,6 -16,5 -22,-1 -11,-11 -22,-22 -33,-33 -6,-6 -6,-17 0,-22 3,-3 7,-4 11,-4 4,0 8,1 11,5z"/>
   <path class="fil4" d="M6052 2766c9,9 19,18 29,26 2,1 3,2 5,4 3,2 6,5 7,9 1,4 0,8 -2,12 -2,4 -6,6 -10,7 -4,1 -9,1 -12,-2 -14,-11 -27,-22 -40,-35 -6,-6 -5,-16 1,-22 3,-2 7,-4 11,-4 4,0 8,2 11,5z"/>
   <path class="fil4" d="M6180 2873c14,10 28,18 43,26 8,4 9,14 5,21 -2,4 -5,6 -9,7 -5,1 -9,0 -12,-2 -15,-7 -29,-16 -43,-25 -7,-5 -10,-14 -5,-22 3,-4 8,-7 14,-7 2,0 5,1 7,2z"/>
   <path class="fil4" d="M6310 2941c16,5 32,9 47,14 8,2 13,11 11,19 -3,8 -11,13 -20,11 -15,-5 -31,-9 -46,-14 -8,-2 -13,-11 -11,-19 2,-7 8,-11 15,-11 2,0 3,0 4,0z"/>
   <path class="fil4" d="M6503 2974c0,8 -7,15 -15,16 -17,1 -33,3 -50,5 -8,2 -16,-6 -16,-14 0,-4 1,-8 4,-12 3,-3 6,-4 11,-5 16,-2 33,-4 49,-5 1,0 1,0 2,0 8,0 14,7 15,15z"/>
   <path class="fil4" d="M6618 2918c4,1 7,3 9,7 5,6 3,17 -4,21 -15,8 -30,15 -46,20 -8,3 -17,-2 -20,-10 -3,-8 2,-17 10,-19 10,-4 19,-7 28,-11 3,-2 7,-4 11,-6 3,-2 5,-3 8,-3 1,0 2,1 4,1z"/>
   <path class="fil4" d="M6701 2831c7,4 11,13 7,21 -9,17 -19,33 -30,48 -5,7 -16,6 -22,1 -3,-3 -5,-7 -5,-11 0,-4 1,-8 4,-11 2,-3 5,-7 7,-10 7,-10 13,-20 18,-31 3,-5 8,-9 14,-9 2,0 5,1 7,2z"/>
   <path class="fil4" d="M6687 2691c7,16 13,33 17,50 1,4 0,8 -2,12 -2,3 -6,5 -10,6 -4,1 -8,0 -12,-2 -3,-3 -5,-7 -6,-11 -1,-3 -2,-7 -3,-10 -4,-11 -8,-21 -13,-32 -3,-8 0,-17 8,-21 2,-1 4,-1 6,-1 6,0 12,3 15,9z"/>
   <path class="fil4" d="M6600 2587c16,12 31,26 45,42 5,6 4,16 -2,22 -6,5 -16,5 -22,-2 -7,-8 -14,-15 -21,-22 -6,-5 -12,-10 -18,-14 -7,-6 -9,-15 -4,-22 3,-4 8,-7 13,-7 3,0 6,1 9,3z"/>
   <path class="fil4" d="M6468 2535c16,2 31,6 46,10 9,3 14,11 11,20 -2,8 -11,13 -19,11 -15,-5 -31,-8 -46,-11 -4,0 -8,-4 -10,-7 -2,-3 -2,-8 -1,-12 1,-4 3,-7 7,-9 2,-2 5,-2 7,-2 2,0 3,0 5,0z"/>
   <path class="fil4" d="M6376 2557c3,8 -1,16 -9,20 -5,3 -10,5 -15,8 -7,4 -14,9 -20,14 -7,5 -17,4 -22,-3 -5,-7 -4,-17 3,-22 13,-10 27,-19 42,-26 2,-1 4,-1 6,-1 6,0 12,4 15,10zm-22 27l0 0 -1 0c0,0 1,0 1,0z"/>
   <path class="fil4" d="M6273 2646c3,2 6,6 6,10 1,5 -1,8 -3,12 -2,3 -4,7 -6,10 -5,8 -9,17 -13,25 -3,8 -12,12 -20,9 -8,-4 -12,-13 -9,-21 7,-14 15,-29 23,-42 3,-4 8,-6 12,-6 4,0 7,1 10,3z"/>
   <path class="fil4" d="M6228 2773c3,3 6,7 6,10 1,17 2,33 2,49 0,4 0,8 -3,11 -2,4 -6,6 -10,6 -4,1 -9,0 -12,-3 -3,-2 -6,-6 -6,-10 0,-16 -1,-32 -2,-48 0,-4 1,-8 3,-12 3,-3 7,-5 11,-6 0,0 1,0 2,0 3,0 7,1 9,3z"/>
   <path class="fil4" d="M6258 2992c4,3 6,6 7,10l1 2c4,13 9,26 15,38 4,8 1,17 -7,21 -8,4 -17,0 -21,-7 -7,-16 -13,-32 -18,-48 -2,-4 0,-8 2,-11 2,-4 6,-6 10,-7 1,0 2,0 3,0 3,0 6,0 8,2zm8 13l0 0c0,1 1,2 1,3 0,-1 -1,-2 -1,-3z"/>
   <path class="fil4" d="M6333 3156c8,15 15,30 22,45 4,8 1,17 -7,21 -7,4 -17,1 -21,-7 -7,-16 -14,-31 -22,-46 -4,-7 0,-17 8,-20 2,-2 4,-2 6,-2 6,0 12,3 14,9z"/>
   <path class="fil4" d="M6421 3300c12,15 23,30 34,46 3,3 5,6 4,11 0,4 -2,8 -5,11 -3,2 -7,4 -11,3 -4,0 -9,-2 -11,-5 -11,-16 -22,-31 -34,-46 -6,-6 -5,-16 1,-22 3,-2 7,-4 11,-4 4,0 8,2 11,6z"/>
   <path class="fil4" d="M6519 3436c12,14 24,28 36,43 5,6 5,16 -2,22 -6,5 -16,5 -22,-2 -12,-14 -23,-28 -35,-43 -6,-6 -6,-16 1,-22 3,-2 7,-4 10,-4 5,0 9,2 12,6z"/>
   <path class="fil4" d="M6631 3559c11,13 22,25 34,36 3,2 4,7 4,11 0,4 -2,8 -5,11 -3,2 -8,4 -12,4 -4,-1 -7,-3 -10,-6 -12,-11 -24,-23 -34,-35 -6,-7 -5,-17 1,-22 3,-3 7,-4 10,-4 5,0 9,1 12,5z"/>
   <path class="fil4" d="M6726 3659c4,1 8,3 11,6 13,13 27,26 41,39 3,3 4,7 4,11 -1,4 -2,8 -6,11 -3,3 -7,4 -11,4 -4,-1 -7,-3 -11,-6 -13,-13 -27,-26 -41,-39 -6,-6 -4,-17 2,-22 3,-2 6,-4 10,-4 0,0 1,0 1,0z"/>
  </g>
  <g id="_286058952">
   <path class="fil5" d="M5428 3636c20,4 40,8 59,14 7,2 12,9 10,17 -2,7 -10,11 -17,9 -20,-5 -40,-10 -60,-13 -3,-1 -6,-4 -8,-6 -2,-4 -2,-8 -1,-11 0,-4 3,-7 6,-8 2,-2 4,-2 7,-2 1,0 2,0 4,0z"/>
   <path class="fil5" d="M5594 3680c24,4 49,11 72,19 4,2 6,3 8,7 2,3 3,7 2,10 -2,7 -10,13 -17,10 -24,-8 -48,-15 -72,-19 -8,-2 -12,-11 -10,-17 1,-4 3,-7 6,-9 2,-1 5,-2 7,-2 1,0 3,1 4,1z"/>
   <path class="fil5" d="M5789 3744c22,5 43,12 65,19 7,2 11,9 9,17 -2,7 -10,12 -17,10 -21,-7 -43,-14 -65,-19 -7,-2 -11,-10 -9,-17 1,-7 7,-11 13,-11 1,0 2,1 4,1z"/>
   <path class="fil5" d="M5988 3825c27,8 54,18 80,29 3,2 5,5 6,9 1,3 0,7 -1,10 -2,3 -5,6 -9,7 -4,1 -7,0 -10,-2 -4,-2 -8,-3 -13,-5 -20,-8 -40,-16 -61,-22 -7,-2 -11,-9 -9,-17 1,-6 7,-10 13,-10 1,0 2,0 4,1z"/>
   <path class="fil5" d="M6177 3907c21,13 42,25 64,37 6,4 9,12 5,19 -4,7 -13,9 -19,5 -22,-12 -43,-25 -64,-37 -6,-4 -9,-13 -5,-19 3,-5 7,-7 12,-7 3,0 5,1 7,2z"/>
   <path class="fil5" d="M6342 3999c5,3 9,5 13,8l-33 0c0,-1 1,-2 1,-3 3,-4 7,-7 12,-7 3,0 5,1 7,2z"/>
   <path class="fil4" d="M2952 3977c4,1 7,4 9,7 2,3 2,7 1,10 -1,4 -3,7 -6,9l-9 4 -63 0 1 -1c19,-9 38,-19 57,-27 2,-1 4,-2 7,-2 1,0 2,0 3,0z"/>
   <path class="fil4" d="M3119 3899c4,1 7,3 8,6 4,6 2,16 -5,19 -21,11 -43,20 -66,29 -3,1 -7,0 -10,-2 -3,-2 -6,-5 -7,-8 -1,-4 0,-8 2,-11 2,-3 5,-5 8,-6 8,-3 15,-6 23,-9 12,-5 24,-11 36,-17 3,-1 5,-2 8,-2 1,0 2,0 3,1zm-48 18l0 0c0,0 -1,0 -1,1 1,0 1,-1 1,-1z"/>
   <path class="fil4" d="M3302 3840c2,7 -3,14 -10,17 -12,3 -23,7 -34,12 -8,3 -16,7 -24,11 -6,3 -15,2 -19,-5 -3,-6 -1,-16 5,-19 21,-11 43,-19 65,-26 1,-1 2,-1 3,-1 6,0 12,5 14,11z"/>
   <path class="fil4" d="M3474 3776c2,7 -2,15 -10,17 -20,6 -40,12 -60,18 -7,3 -15,-2 -17,-9 -2,-8 3,-15 10,-17 20,-7 40,-13 60,-19 1,0 3,0 4,0 6,0 12,4 13,10z"/>
   <path class="fil4" d="M3646 3723c2,7 -3,15 -10,17 -18,5 -37,11 -55,17 -7,2 -15,-3 -17,-10 -2,-7 3,-15 10,-17 18,-6 36,-11 54,-17 2,0 3,0 4,0 6,0 12,4 14,10z"/>
   <path class="fil4" d="M3830 3677c2,7 -2,15 -10,17 -16,4 -33,8 -50,13 -7,1 -15,-3 -17,-10 -2,-7 3,-15 10,-17 17,-4 33,-9 50,-13 1,0 2,0 3,0 7,0 12,4 14,10z"/>
   <path class="fil4" d="M3999 3630c3,2 5,5 6,9 2,7 -2,15 -9,17 -20,4 -40,7 -60,9 -3,1 -7,-1 -10,-4 -2,-2 -4,-6 -4,-9 0,-4 2,-8 4,-10 3,-3 6,-4 10,-4 2,-1 5,-1 7,-1 15,-2 30,-5 45,-8 2,0 3,0 4,0 2,0 5,0 7,1zm-56 7l0 0c-1,0 -2,0 -3,0l3 0z"/>
   <path class="fil4" d="M4170 3601c3,2 5,5 6,8 1,4 0,8 -2,11 -1,3 -4,6 -8,6 -19,3 -39,7 -58,12 -7,2 -15,-2 -17,-9 -2,-8 2,-16 10,-18 19,-4 38,-8 58,-11 1,0 3,-1 4,-1 2,0 4,1 7,2z"/>
   <path class="fil4" d="M4340 3584c3,2 4,6 4,10 0,3 -1,7 -4,9 -3,3 -6,4 -10,4 -20,3 -41,5 -62,8 -3,0 -7,-2 -10,-4 -2,-3 -4,-6 -4,-10 0,-4 2,-7 4,-10 3,-3 6,-3 10,-4 21,-3 42,-5 62,-7 1,0 1,0 1,0 3,0 7,2 9,4z"/>
   <path class="fil4" d="M4546 3580c0,4 -1,7 -4,10 -2,2 -6,3 -9,4 -19,1 -38,3 -57,5 -4,1 -8,-1 -10,-4 -3,-2 -4,-6 -4,-9 0,-4 1,-8 4,-10 3,-3 6,-4 10,-4 19,-3 38,-4 57,-6 0,0 0,0 0,0 8,0 13,7 13,14z"/>
   <path class="fil4" d="M4727 3578c0,8 -6,14 -14,14 -18,0 -36,0 -54,1 -8,0 -14,-7 -14,-14 0,-8 6,-14 14,-14 18,0 36,-1 54,-1 8,0 14,7 14,14z"/>
   <path class="fil4" d="M4909 3568c8,0 14,6 14,13 0,8 -6,14 -14,14 -18,0 -36,0 -55,1 -7,0 -13,-7 -13,-14 0,-8 6,-13 13,-14 14,0 29,-1 43,-1 4,0 8,0 12,1z"/>
   <path class="fil4" d="M5095 3584c4,1 7,1 10,4 2,3 4,6 4,10 0,4 -2,7 -4,10 -2,2 -6,4 -10,4 -17,-2 -34,-3 -51,-2 -8,0 -14,-7 -14,-14 0,-8 6,-14 14,-14 2,0 4,0 6,0 15,0 30,1 45,2z"/>
   <path class="fil4" d="M5221 3602c22,2 45,6 67,10 7,1 12,10 10,17 -1,3 -4,6 -7,8 -3,2 -7,2 -10,2 -16,-3 -31,-6 -46,-8 -5,-1 -10,-1 -14,-2 -4,0 -7,-1 -10,-4 -3,-2 -4,-6 -4,-10 0,-3 1,-7 4,-9 2,-2 6,-4 9,-4 0,0 0,0 1,0zm15 29l0 0 1 0 -1 0z"/>
  </g>
  <path class="fil4" d="M1772 885l2 0c59,0 118,5 176,15 71,13 136,34 195,61 1,1 2,2 3,4 1,2 0,4 -1,6 0,1 -1,1 -1,2 -13,27 -30,53 -53,80 -24,28 -51,53 -78,71 -15,11 -29,19 -43,26 -16,6 -31,11 -45,13 -6,1 -11,1 -16,1 -10,0 -19,-1 -26,-4 -2,-1 -5,-2 -8,-4 -2,-2 -5,-4 -7,-5 -3,-3 -7,-8 -9,-13 -4,-6 -6,-15 -7,-24 0,-7 0,-14 1,-22 -12,15 -25,30 -38,45 -23,24 -49,48 -76,70 -54,43 -114,78 -179,103 -64,25 -131,40 -200,44 -11,0 -23,1 -35,1 -9,0 -19,-1 -29,-1 -6,11 -12,24 -17,37l0 1 -1 0c-10,25 -19,51 -25,76 -8,27 -13,57 -18,90 -2,16 -4,32 -5,49 -1,15 -1,30 -1,45l0 7c1,28 1,56 -6,84 -1,6 -3,11 -5,17 -2,4 -4,8 -6,12 -4,7 -9,12 -14,14 -3,2 -7,3 -11,3 -2,0 -5,0 -7,-1 -3,0 -5,-2 -8,-3 -3,-1 -5,-3 -9,-6 -5,-4 -9,-8 -15,-15 -5,-6 -10,-13 -15,-21 -9,-13 -17,-29 -26,-47 -7,-16 -13,-29 -17,-41 -2,-8 -4,-16 -6,-25l-1 -2c-3,-13 -6,-27 -8,-41 -9,-53 -11,-107 -5,-160 5,-51 18,-101 36,-149 19,-48 44,-93 75,-134 31,-41 68,-79 110,-112 42,-33 89,-61 140,-83 49,-21 103,-37 161,-48 57,-11 117,-16 178,-16z"/>
  <path class="fil6" d="M1550 660c53,2 106,9 160,21 54,12 107,29 157,51 49,21 95,48 138,79 30,22 59,48 85,75 6,1 12,2 19,3 10,2 21,5 32,9 19,6 37,15 56,27 32,21 61,50 88,89 23,32 43,70 60,113 17,45 25,97 26,162 1,27 0,53 -1,79 0,12 -1,24 -1,36 -1,47 0,83 5,117 2,11 4,23 6,34 2,11 6,23 10,37 6,21 14,43 26,71l0 -1 -1 -1c9,20 18,41 27,60 13,28 26,56 37,84 20,50 34,102 43,154 8,53 11,106 7,158 -4,52 -14,105 -31,155 -23,67 -57,131 -104,190 -32,4 -65,8 -97,12 1,-2 1,-4 2,-6 6,-14 12,-30 16,-45 4,-15 7,-31 9,-46 2,-16 3,-32 1,-47 0,-8 -1,-15 -3,-23 -1,-7 -3,-15 -5,-22 0,-1 -1,-1 -2,-1 0,0 -1,0 -1,1 -8,26 -16,51 -27,76l0 -1c-17,40 -38,79 -64,113l0 0 0 0c0,0 0,0 0,0 0,0 0,0 0,0 0,0 0,0 0,0 0,0 0,0 0,0 0,0 0,0 0,0l0 0c-3,4 -6,8 -9,12 -139,16 -278,33 -416,50 -296,37 -592,73 -888,109 -3,-5 -6,-11 -8,-17 0,0 0,0 0,1 -7,-18 -13,-37 -17,-56 -4,-19 -7,-38 -11,-57 0,-1 -1,-1 -1,-1 -1,0 -1,0 -1,0 -5,6 -8,13 -12,19 -3,6 -5,13 -8,19 -4,14 -7,28 -9,42 -3,19 -3,39 -3,59 -73,9 -146,18 -219,27 -3,0 -5,0 -7,1 -2,-4 -4,-7 -6,-10 -7,-12 -13,-25 -19,-38 0,0 0,0 0,0 -6,-16 -12,-32 -16,-48 -5,-17 -8,-33 -11,-50 0,0 0,0 0,0 0,0 0,0 0,0l0 0 0 0c0,0 0,0 0,0l0 -1 0 1c-2,-16 -3,-32 -3,-48 0,-16 1,-31 3,-47 0,0 0,0 0,0l0 0 0 0c0,0 0,0 0,0 0,0 0,0 0,0 2,-11 4,-21 6,-32 0,0 0,-1 -1,-1 0,0 0,0 0,0 -1,0 -1,0 -2,0 -5,9 -9,19 -13,29 -5,12 -9,24 -13,36 -4,13 -7,26 -10,40 -5,27 -8,55 -9,82 0,14 1,28 2,42 1,13 3,26 6,39 1,5 2,10 4,16 -50,6 -99,12 -149,18 0,-1 -1,-2 -1,-2 -3,-7 -6,-13 -9,-19 0,0 0,0 0,0 -4,-11 -8,-22 -11,-34 -2,-5 -4,-11 -5,-17 0,-3 -1,-6 -2,-10 0,-2 0,-4 -1,-7 0,0 0,0 0,0 -1,-9 -1,-18 -1,-27 0,-5 0,-11 0,-16 0,-2 1,-5 1,-8 0,-1 0,-3 1,-5 0,0 0,0 0,0 0,0 0,0 0,0 0,0 0,0 0,0 0,-5 1,-10 2,-16 1,-5 3,-11 4,-16 2,-6 4,-11 6,-17 1,-3 2,-6 3,-8 1,-3 2,-6 3,-9 0,0 0,0 0,0 2,-5 4,-10 7,-15 2,-4 4,-8 6,-12 3,-8 7,-16 10,-24 3,-8 6,-16 9,-25 2,-7 4,-15 6,-23 1,-7 2,-13 3,-20 1,-7 1,-14 1,-21 0,-7 0,-14 0,-21 -1,-5 -2,-10 -3,-16 -1,-7 -2,-13 -4,-20 -2,-7 -4,-14 -6,-21 -4,-15 -10,-30 -16,-45 -3,-8 -6,-16 -9,-24 -2,-5 -4,-10 -6,-15 -1,-4 -3,-7 -4,-11 -3,-9 -6,-17 -8,-25 -1,-4 -2,-8 -3,-11 0,-4 -1,-7 -1,-11 0,0 0,0 0,0 -1,-8 -2,-17 -2,-26 0,-4 0,-8 0,-12 1,-3 1,-5 1,-8 0,-1 0,-3 1,-5l0 0c1,-9 3,-17 5,-26 1,-4 3,-8 4,-12 1,-4 3,-8 4,-12l0 1c3,-6 6,-12 9,-18 3,-6 5,-11 9,-16 3,-5 6,-10 9,-15 4,-5 7,-10 11,-15 0,0 0,0 0,0l0 0 0 0c0,0 0,0 0,0 0,0 0,0 0,0 6,-7 12,-15 19,-22 6,-8 13,-15 20,-22 8,-7 15,-14 23,-21 6,-6 13,-12 20,-19 14,-12 28,-25 41,-39 12,-12 24,-24 35,-37 12,-14 23,-28 33,-43 2,-3 4,-5 5,-8 15,-19 27,-38 36,-58 5,-11 9,-21 13,-33 3,-11 6,-24 9,-38 9,-54 8,-110 7,-164 0,-14 -1,-28 -1,-42 0,-18 0,-34 1,-50 1,-17 2,-36 5,-56 5,-34 13,-68 24,-104 9,-31 22,-63 39,-99 14,-30 30,-60 48,-88 32,-49 71,-96 116,-139 42,-39 91,-75 145,-107 50,-29 107,-55 168,-76 94,-33 195,-49 300,-49 13,0 25,0 38,0zm803 559l0 0 -1 -1c0,1 1,1 1,2 0,0 0,-1 0,-1zm-1998 868l0 0c0,0 0,1 0,1 0,0 0,-1 0,-1zm2156 67l0 0 0 0c0,1 0,2 0,3 0,0 0,-1 0,-2l0 0 0 0 0 0c0,0 0,0 0,0l0 0 0 0c0,0 0,0 0,-1l0 1 0 -1z"/>
  <path class="fil7" d="M562 2440l0 0c0,0 0,0 0,0 0,0 0,0 0,0z"/>
  <path class="fil7" d="M562 2535c0,0 0,0 0,0 0,0 0,0 0,0l0 0z"/>
  <path class="fil7" d="M562 2440l0 0c0,0 0,0 0,0 0,0 0,0 0,0z"/>
  <path class="fil8" d="M1778 971c78,0 157,12 232,24l24 4c1,-1 2,-1 3,-1 2,0 3,1 5,2 25,23 47,48 64,76 16,24 29,52 40,83 21,57 30,117 39,176l1 5c9,57 19,123 40,184 4,12 9,23 14,35 2,4 4,9 6,14 7,19 14,37 20,55 13,39 23,75 30,111 7,38 10,75 8,110 -1,38 -8,75 -19,111 -6,17 -13,35 -23,54 -8,17 -17,33 -28,49 -17,25 -38,50 -63,73 -23,21 -49,40 -78,59 -27,16 -56,31 -88,45 -30,12 -61,23 -93,31 -15,4 -30,7 -46,11 0,0 0,-1 0,-1l-1 1c-10,0 -20,1 -32,1 -5,0 -11,0 -16,0 -7,0 -13,0 -20,0 -16,0 -33,-1 -49,-2 -35,-3 -70,-8 -106,-17 -17,-4 -34,-8 -50,-13 -16,-5 -31,-11 -46,-17 -16,-8 -32,-16 -46,-25l0 0c0,0 0,0 0,0l1 1 1 1c15,19 33,37 55,54 30,23 64,43 104,60 24,10 50,19 76,26 25,7 51,13 77,17 4,0 8,1 11,1 14,2 27,3 39,4 1,2 1,5 1,7l0 -1 0 0c8,41 19,78 34,111 2,4 4,8 7,13 0,1 1,2 1,3 1,3 0,7 -3,9 -52,35 -118,57 -195,66 -23,2 -48,4 -72,4 -12,0 -24,-1 -36,-1 -36,-2 -71,-7 -105,-14 -32,-7 -62,-16 -90,-27 -17,-6 -31,-13 -43,-22 -8,-4 -14,-9 -20,-15 -6,-5 -12,-11 -19,-19 -1,-1 -1,-3 -1,-5 0,0 0,0 -1,-1 -1,-1 -1,-4 -1,-5 16,-50 26,-96 30,-139 4,-37 3,-74 -3,-108 -6,-31 -16,-61 -29,-89l1 1c-9,-18 -20,-35 -31,-53 -7,1 -13,2 -20,2 -6,1 -12,1 -18,1 -2,0 -3,0 -5,0 -15,0 -31,-2 -48,-4 -33,-6 -65,-16 -95,-30 -32,-15 -60,-33 -83,-55 -12,-11 -22,-24 -31,-36 -9,-13 -17,-28 -23,-43 -7,-16 -12,-33 -15,-50 -3,-18 -4,-35 -2,-51 1,-9 2,-17 5,-26 2,-7 5,-15 9,-23 4,-7 9,-13 15,-21 5,-6 11,-11 18,-16 13,-10 27,-16 42,-20 9,-2 19,-3 29,-3 5,0 11,0 16,1 16,2 33,6 48,13 -3,-7 -6,-15 -8,-23 -3,-12 -4,-24 -5,-39l0 -7c-2,-23 -4,-46 -5,-69 -1,-54 2,-105 10,-151 8,-51 23,-99 44,-144 10,-22 23,-44 38,-66 14,-21 30,-41 47,-58 30,-32 66,-61 108,-86 38,-24 81,-44 128,-61 43,-16 88,-28 136,-37 52,-10 104,-15 154,-15l0 0zm508 798l0 0 0 -2c0,1 0,2 0,3 0,-1 0,-1 0,-1zm-1137 69l0 0c1,-4 1,-7 2,-11 1,-1 1,-3 2,-5l0 -1 1 -1c0,-1 0,-2 0,-3 2,-3 0,-7 -4,-9 0,0 -1,-1 -2,-2 -3,-3 -7,-7 -13,-10 -5,-3 -11,-6 -16,-8 -12,-5 -24,-8 -38,-10 -8,-1 -15,-1 -22,-1 -3,0 -7,0 -12,0 -12,1 -22,3 -31,6 -11,4 -19,8 -26,14 -8,5 -14,13 -18,22 -1,1 -1,2 0,3 0,1 1,2 2,2 1,0 1,1 2,1 0,0 1,-1 1,-1 2,0 2,-1 3,-3 2,-3 4,-6 6,-9 3,-4 7,-7 11,-9 5,-4 11,-6 17,-8 8,-3 15,-4 24,-5l1 0 0 0c3,0 5,0 8,0 9,0 19,1 29,2 3,1 5,1 8,2l-1 0 0 0c0,0 0,0 0,0l-1 0c16,3 32,8 46,15 2,1 4,3 6,4l2 1 0 0 1 1 2 1 0 2 0 1 -1 2c0,2 -1,5 -1,8 0,5 -1,10 -1,15 0,9 1,19 3,30 2,13 6,26 11,38 6,14 12,26 20,36 16,24 37,41 59,51 0,0 1,1 2,1 1,0 1,0 1,-1 2,0 3,-1 3,-2 1,-1 1,-2 1,-4 -1,-1 -1,-2 -2,-2 -9,-4 -18,-9 -26,-15 -8,-6 -15,-13 -22,-21 -2,-2 -3,-3 -4,-5l0 0 0 0c0,0 0,0 0,0l0 0c-8,-11 -16,-23 -21,-37 -5,-10 -8,-20 -10,-31 -1,-3 -1,-6 -2,-9l0 0 0 0c0,0 0,0 0,0l1 0c-2,-12 -2,-24 -1,-35z"/>
  <path class="fil9" d="M1500 2209l0 0 0 0c14,9 30,17 46,25 15,6 30,12 46,17 16,5 33,9 50,13 36,9 71,14 106,17 16,1 33,2 49,2 7,0 13,0 20,0 5,0 11,0 16,0 12,0 22,-1 32,-1l1 -1c-3,1 -6,2 -9,2 0,30 2,60 7,90 -12,-1 -25,-2 -39,-4 -3,0 -7,-1 -11,-1 -26,-4 -52,-10 -77,-17 -26,-7 -52,-16 -76,-26 -40,-17 -74,-37 -104,-60 -22,-17 -40,-35 -55,-54l-1 -1 -1 -1c0,0 0,0 0,0z"/>
  <path class="fil10" d="M1059 1777c7,0 14,0 22,1 14,2 26,5 38,10 5,2 11,5 16,8 6,3 10,7 13,10 1,1 2,2 2,2 4,2 6,6 4,9 0,1 0,2 0,3l-1 1 0 1c-1,2 -1,4 -2,5 -1,4 -1,7 -2,11 -1,11 -1,23 1,35l-1 0c2,14 6,28 12,40 5,14 13,26 21,37l-1 0c9,10 18,19 27,26 8,6 17,11 26,15 1,0 1,1 2,2 0,2 0,3 -1,4 0,1 -1,2 -3,2 0,1 0,1 -1,1 -1,0 -2,-1 -2,-1 -22,-10 -43,-27 -59,-51 -8,-10 -14,-22 -20,-36 -5,-12 -9,-25 -11,-38 -2,-11 -3,-21 -3,-30 0,-5 1,-10 1,-15 0,-3 1,-6 1,-8l1 -2 0 -1 0 -2 -2 -1 -1 -1 0 0 -2 -1c-2,-1 -4,-3 -6,-4 -14,-7 -30,-12 -46,-15l2 0c-13,-3 -26,-4 -37,-4 -3,0 -5,0 -8,0l0 0 -1 0c-9,1 -16,2 -24,5 -6,2 -12,4 -17,8 -4,2 -8,5 -11,9 -2,3 -4,6 -6,9 -1,2 -1,3 -3,3 0,0 -1,1 -1,1 -1,0 -1,-1 -2,-1 -1,0 -2,-1 -2,-2 -1,-1 -1,-2 0,-3 4,-9 10,-17 18,-22 7,-6 15,-10 26,-14 9,-3 19,-5 31,-6 5,0 9,0 12,0z"/>
  <path class="fil6" d="M1620 1722c-16,4 -36,-23 -45,-60 -8,-37 -1,-70 15,-74 17,-3 36,24 45,61 8,37 1,69 -15,73z"/>
  <path class="fil6" d="M2110 1648c-16,4 -35,-23 -43,-59 -8,-36 -2,-68 14,-71 16,-4 36,23 43,59 8,36 2,68 -14,71z"/>
  <path class="fil6" d="M1777 1860c0,0 0,0 1,0 14,9 29,15 42,20 7,2 13,5 19,7l3 1c8,3 16,6 25,9 19,7 35,12 50,16 10,2 18,4 26,5 7,2 13,3 20,3 0,1 0,2 0,3 -2,10 -6,21 -11,33 -5,10 -12,21 -19,32 -8,10 -17,20 -26,27 -5,5 -10,8 -16,11 -5,3 -10,6 -16,8 -8,3 -18,5 -26,5 -3,0 -6,0 -8,0 -7,-1 -13,-3 -19,-5 -6,-2 -11,-5 -16,-9 -17,-12 -29,-33 -35,-61 -3,-14 -4,-29 -4,-46 0,-7 1,-15 2,-24 2,-10 4,-21 8,-35 0,0 0,0 0,0z"/>
  <path class="fil4" d="M1769 1931l0 0c5,0 9,1 14,3 4,1 9,2 13,4l0 0c5,2 9,5 14,7 4,3 8,6 12,9l0 0c0,0 0,0 1,0 0,0 0,0 0,0 0,0 0,0 0,0 0,0 0,0 0,0l0 0c4,4 9,8 13,12 4,4 8,9 12,13 8,11 15,23 20,36l0 -1c3,6 5,13 7,19 0,1 0,1 0,2 0,0 0,0 0,0 -8,3 -18,5 -26,5 -3,0 -5,0 -9,0 -6,-1 -12,-3 -18,-5 -6,-2 -11,-5 -16,-9 -17,-12 -29,-33 -35,-61 -2,-10 -4,-22 -4,-34 1,0 1,0 2,0z"/>
  <path class="fil9" d="M1878 1285c0,0 1,0 1,0 2,1 3,1 4,3 0,1 1,3 0,4 -11,28 -18,58 -23,89 -4,38 -4,76 1,115 5,39 15,76 30,111 5,13 12,26 19,38 3,7 7,12 10,17 4,6 8,11 12,16l4 6c7,9 14,19 21,30 4,6 8,11 10,17 4,7 6,12 7,18 2,10 2,21 -2,31 -3,9 -9,18 -17,27 -7,7 -15,14 -25,20 -5,2 -9,5 -14,7 -3,1 -5,2 -8,3 -1,1 -2,1 -3,2l-1 0 -2 1c-2,1 -3,1 -5,2 0,0 -1,0 -1,0 -1,0 -2,0 -3,-1 -1,0 -2,-2 -3,-3 0,-2 0,-3 1,-5 1,-1 2,-2 3,-2 3,-1 5,-2 7,-3 2,-1 4,-2 6,-2l-1 0c11,-5 21,-10 29,-17l1 0c6,-6 12,-11 16,-16 3,-5 6,-9 8,-14 2,-4 3,-8 3,-12 1,-3 1,-8 0,-12 0,-4 -2,-9 -4,-14 -5,-12 -12,-22 -21,-34 -3,-5 -7,-10 -10,-15l-2 -1c-4,-7 -9,-13 -13,-19 -7,-9 -13,-20 -21,-35 -6,-12 -12,-26 -18,-40 -10,-28 -18,-57 -23,-87 -5,-30 -6,-61 -5,-91 2,-46 11,-90 26,-130 1,-1 1,-2 3,-3 1,-1 2,-1 3,-1z"/>
  <path class="fil6" d="M2147 1292c-2,16 -42,25 -88,18 -47,-6 -83,-24 -80,-41 2,-16 41,-24 88,-18 46,6 82,25 80,41z"/>
  <path class="fil6" d="M1614 1338c7,18 -30,47 -82,65 -51,17 -98,17 -104,-1 -6,-18 30,-47 82,-65 51,-18 98,-17 104,1z"/>
  <path class="fil11" d="M1636 1402c0,0 0,0 0,0 0,0 0,0 0,0 0,0 0,0 0,0z"/>
  <path class="fil11" d="M1636 1402c0,0 0,0 0,0 0,0 0,0 0,0 0,0 0,0 0,0z"/>
  <path class="fil11" d="M1693 1846c0,0 0,0 0,0 0,0 1,-1 1,-1 0,0 -1,0 -1,1z"/>
  <path class="fil11" d="M1636 1402c0,0 0,0 0,0 0,0 0,0 0,0 0,0 0,0 0,0z"/>
  <path class="fil11" d="M1636 1402c0,0 0,0 0,0 0,0 0,0 0,0 0,0 0,0 0,0z"/>
  <path class="fil11" d="M1377 1846c0,0 0,0 0,0 0,0 0,0 0,0l0 0z"/>
  <path class="fil11" d="M1636 1879l0 0 0 0c0,0 0,0 0,0z"/>
  <path class="fil11" d="M2049 1301c0,0 0,0 0,0 0,0 0,0 0,0l0 0z"/>
  <path class="fil11" d="M1870 1575l-1 0c1,0 1,0 1,0 0,0 0,0 0,0z"/>
  <path class="fil11" d="M1183 1736c1,-2 2,-2 4,-2 30,-5 60,-12 90,-14 -1,-3 -1,-5 -2,-8 -10,-35 -12,-71 -7,-107 2,-18 6,-35 12,-52 6,-17 13,-34 22,-49 9,-15 20,-30 32,-43 12,-13 25,-25 39,-36 28,-21 60,-37 94,-46 18,-4 36,-7 54,-8 5,0 9,0 14,0 7,0 14,0 21,1 0,0 1,0 1,0 5,0 10,1 15,1 1,0 2,1 3,1 13,2 26,4 38,8 7,2 14,5 21,8 0,0 1,0 1,0 0,0 0,0 1,0 0,0 0,0 0,0 1,0 1,1 1,1 4,1 8,3 12,5 3,1 6,3 9,4 19,10 38,23 54,37 2,2 4,3 6,5 7,7 14,14 21,22 1,1 2,2 3,3 4,5 8,10 11,15 15,20 27,43 36,67 1,4 3,8 4,12 3,8 5,16 6,24 18,-9 38,-16 57,-20 11,-2 22,-3 33,-3 9,0 18,1 27,3 -4,-25 -5,-50 -3,-74 4,-36 13,-71 30,-103 8,-15 18,-30 29,-43 11,-13 24,-25 39,-35 8,-6 18,-12 28,-16 0,0 0,0 0,0 0,-1 1,-1 1,-1 6,-3 13,-5 19,-7 17,-6 35,-9 53,-9 1,-1 3,-1 4,-1 35,0 69,11 99,28 14,7 26,17 38,27 16,14 31,30 43,47 19,27 34,58 43,90 3,8 5,16 7,25 0,0 0,0 0,1 2,12 4,25 5,37 2,19 2,37 0,56 0,0 0,0 0,0l0 1c-4,40 -16,78 -37,113 -18,29 -42,55 -72,73 -31,18 -66,26 -102,25 -35,-2 -69,-14 -99,-33 -30,-19 -55,-44 -75,-73 -20,-29 -35,-62 -43,-95 -2,-7 -4,-14 -5,-21 -5,-1 -9,-2 -14,-3 -11,-1 -23,-1 -34,1 0,0 0,0 0,0 0,0 0,0 0,0 0,0 0,0 0,0 -1,0 -1,0 -1,0 0,0 0,0 0,0 -18,2 -35,7 -52,14 -5,2 -10,4 -16,7 1,1 1,2 1,4 0,0 0,0 0,0 0,0 0,1 0,1 0,0 0,0 0,0 0,1 0,1 0,1 0,1 1,1 1,1 0,0 0,1 0,1 0,0 0,1 0,1 0,0 0,0 0,0 0,1 0,1 0,2 0,0 0,0 0,0 2,19 3,38 1,58 0,0 0,0 0,0 0,1 0,2 0,3 -4,36 -15,70 -32,102 -17,31 -41,59 -68,82 -28,22 -61,39 -95,49 -35,9 -72,12 -107,8 -18,-3 -36,-7 -53,-12 -17,-6 -33,-13 -48,-22 -30,-17 -57,-41 -79,-68 -17,-23 -31,-49 -41,-76 -31,2 -62,9 -93,14 -3,0 -6,-2 -6,-5 0,-2 0,-3 1,-4zm1098 -360l0 0c0,0 -1,0 -1,0 0,0 0,0 1,0 0,0 0,0 -1,0 1,0 1,0 1,0 0,0 0,1 0,1 0,-1 0,-1 0,-1zm-297 323l0 0c13,17 29,32 46,46 14,11 30,21 48,28 15,6 31,11 47,13 16,2 31,2 47,0 15,-2 29,-6 44,-12 14,-6 27,-13 39,-23 13,-10 25,-22 36,-36 12,-15 22,-32 29,-50 9,-22 16,-45 19,-69 1,-12 2,-24 2,-36 0,0 0,0 0,-1 0,0 0,-1 0,-2l0 0c0,-1 0,-1 0,-2 0,0 0,0 0,-1 0,0 0,-1 0,-1 0,0 0,-1 0,-1 0,-1 0,-1 0,-1 0,-11 -1,-22 -2,-33 -2,-14 -5,-27 -9,-40 0,0 0,0 0,0 0,-1 0,-2 0,-3 0,0 0,0 0,0 0,-1 -1,-1 -1,-2 0,0 0,0 0,-1 0,0 0,-1 -1,-2l0 0c0,-1 0,-1 0,-2 0,0 -1,-1 -1,-1 0,0 0,-1 0,-1 0,-1 0,-1 0,-1 -1,-1 -1,-1 -1,-2 0,0 0,-1 0,-1 0,0 -1,-1 -1,-1 0,-1 0,-1 0,-2 0,0 0,0 -1,-1 0,0 0,-1 0,-1 0,-1 0,-1 0,-1 -1,-1 -1,-1 -1,-2l0 0c0,-1 -1,-2 -1,-2 0,-1 0,-1 0,-1 0,-1 -1,-1 -1,-2 0,0 0,0 0,0 -1,-3 -2,-7 -4,-10 -1,-4 -3,-8 -5,-11l0 0c-6,-12 -12,-24 -20,-35l0 0c0,-1 -1,-1 -1,-2 0,0 0,-1 0,-1 -1,0 -1,-1 -1,-1 0,0 -1,-1 -1,-1 0,0 0,0 0,-1 -3,-3 -5,-7 -8,-10 -3,-4 -7,-8 -10,-12 0,0 0,0 0,0 0,-1 -1,-1 -1,-2 0,0 0,0 -1,0 0,0 0,-1 0,-1 -1,0 -1,-1 -1,-1 0,0 0,0 0,0 -10,-11 -21,-21 -32,-30 -2,-1 -4,-2 -6,-4 0,0 0,0 0,0 -1,-1 -1,-1 -1,-1 -8,-5 -16,-10 -24,-15l0 0c-1,0 -1,0 -1,-1 -1,0 -1,0 -1,0 0,0 0,0 -1,0 -5,-3 -10,-5 -15,-8 -16,-6 -32,-11 -48,-13 -15,-2 -31,-2 -46,0 -15,2 -30,6 -44,12 0,0 0,0 0,0 0,0 0,0 0,0 0,0 0,0 0,0l1 0c0,0 0,0 0,0 0,0 -1,0 -1,0l0 0c0,0 0,0 0,0 0,0 0,0 0,0 0,0 0,0 0,0 0,0 0,0 0,0 0,0 0,0 0,0 0,0 0,0 0,0l0 0c0,0 0,0 0,0 0,0 0,0 0,0 0,0 0,0 0,0 0,0 0,0 -1,1 0,0 0,0 -1,0 -13,6 -25,13 -37,22 0,0 0,0 0,0 0,0 0,0 0,0 0,0 0,0 0,0 0,0 0,0 0,0 0,0 0,0 0,0 -13,10 -25,22 -35,35 -13,16 -23,34 -31,52 -9,22 -15,45 -18,68 -3,26 -3,53 0,78 4,27 11,53 21,78 10,23 22,44 37,64zm-210 -159l0 0c0,0 0,0 0,0 0,0 0,0 0,1l0 -1zm-444 259l0 0c14,17 30,33 47,47 0,-1 0,-1 0,-1l0 1c0,0 0,0 0,0 0,0 0,0 0,0 0,0 0,0 1,0 17,13 36,24 56,33 22,9 44,15 67,18 22,3 46,3 69,0 22,-3 45,-9 66,-18 0,0 -1,0 -1,0 0,0 1,0 1,0 0,0 0,0 1,0 0,0 -1,0 -1,0 20,-9 40,-20 57,-33 0,0 0,0 0,0 0,0 0,0 0,0 1,-1 1,-1 1,-1l0 0c17,-13 33,-29 46,-46 13,-18 25,-37 33,-57 9,-21 15,-44 19,-66 1,-15 2,-29 2,-44l0 0c0,-1 0,-1 0,-2 0,0 0,0 0,0 0,-1 0,-1 0,-1 -1,-8 -1,-16 -2,-23 -2,-8 -3,-17 -5,-25l0 0c0,0 0,-1 0,-1 0,0 0,-1 -1,-1 0,0 0,0 0,-1 0,0 0,-1 0,-1 0,0 0,0 0,0 -1,-5 -3,-10 -4,-14 0,0 0,-1 0,-1 0,0 0,0 -1,-1 0,0 0,0 0,-1 0,0 0,0 0,0 -2,-7 -5,-14 -7,-20 -5,-11 -11,-22 -17,-33 0,0 0,0 -1,0 0,0 0,-1 0,-1 0,0 0,-1 -1,-1 0,0 0,0 0,-1 0,0 -1,-1 -1,-1 0,0 0,0 0,-1 0,0 -1,0 -1,-1 0,0 0,0 -1,-1 0,0 0,0 0,-1 0,0 -1,0 -1,-1 0,0 0,0 0,0 -1,-1 -1,-1 -1,-2 0,0 0,0 0,0 -3,-4 -7,-9 -10,-13 -13,-18 -29,-33 -47,-47 -15,-12 -31,-22 -48,-30 0,0 0,0 0,0 -1,0 -1,0 -2,0l-1 -1c0,0 -1,0 -1,0 -1,-1 -3,-2 -5,-2 0,0 0,0 0,-1 0,0 0,1 0,1 0,-1 0,-1 0,-1 0,0 0,0 0,0 0,0 0,0 0,0 0,0 0,0 0,0 0,0 0,0 0,0 0,0 0,0 0,0 0,0 0,0 0,0 -21,-8 -43,-15 -66,-18 -23,-3 -47,-3 -70,0 -22,3 -44,10 -65,18 -21,9 -40,20 -58,34 -17,14 -33,29 -47,47 -13,18 -24,37 -33,57 -9,21 -15,44 -18,66 -3,23 -3,46 0,69 3,23 9,45 18,66 9,21 20,40 33,58z"/>
  <path class="fil8" d="M3263 1179c2,0 4,0 6,1 4,1 9,3 14,8 6,5 10,11 14,17 6,9 12,19 17,31 9,22 16,46 20,73 4,26 5,53 4,81 -1,27 -4,54 -9,82 -2,11 -4,21 -6,31 2,-2 4,-3 7,-5 11,-5 23,-8 34,-8 3,0 5,0 8,0 14,1 28,7 40,17 6,5 12,12 16,19 1,2 2,4 3,6 5,-2 9,-4 14,-5 3,0 5,0 8,0 0,0 0,0 0,0 3,0 6,0 9,1 5,1 10,3 16,5 4,3 9,6 14,10 8,6 16,16 23,27 4,6 8,13 11,20 3,0 6,0 9,1 3,1 5,2 8,3 4,2 8,4 12,8 7,5 13,13 18,22 4,9 7,19 9,30 2,10 3,21 3,32 0,10 -1,20 -3,30 -1,9 -4,18 -7,28 -4,11 -10,23 -16,34 -7,12 -15,23 -23,33 -15,17 -32,28 -49,33 -2,22 -9,45 -20,69 -6,11 -13,22 -21,33 -7,10 -16,19 -24,27 -1,1 -2,1 -4,1 -1,0 -2,0 -3,-1 0,-1 -1,-2 -1,-3 0,-1 1,-2 1,-3l2 -2c-2,2 -4,3 -7,4 -10,6 -22,10 -36,14 -23,8 -50,12 -78,13 -5,1 -10,1 -15,1 -22,0 -45,-2 -66,-6 -27,-5 -52,-13 -75,-23 -7,-3 -14,-7 -20,-11 -5,-2 -8,-4 -11,-6 -3,-2 -7,-5 -11,-9 -6,-5 -11,-11 -17,-19 -1,-2 -2,-3 -4,-5l1 0c0,3 -1,5 -3,6 -1,0 -1,0 -1,0 -2,0 -4,-1 -5,-3 -11,-50 -17,-103 -22,-153 -2,-18 -4,-36 -6,-54 -3,-25 -6,-46 -5,-68 0,-13 1,-25 3,-36 3,-11 7,-22 12,-31 6,-9 14,-17 23,-23 10,-6 23,-10 38,-12 6,-1 12,-1 19,-1 1,0 3,0 4,0 4,-8 7,-16 10,-24l0 1c12,-28 22,-59 31,-99 2,-8 4,-17 6,-25l1 -2 0 -1c0,-2 1,-4 1,-5 1,-4 1,-8 2,-12 5,-27 10,-56 16,-85 4,-18 9,-34 13,-48 3,-8 6,-15 9,-22 3,-7 5,-13 9,-18 3,-6 6,-11 10,-14 1,-2 3,-4 6,-5 2,-2 4,-3 6,-4 2,-1 5,-1 8,-1z"/>
  <path class="fil10" d="M3433 1545c1,0 1,1 2,1 1,1 2,2 2,3 1,13 1,26 0,38 -1,16 -4,33 -7,51 -4,20 -9,38 -15,55 -6,19 -14,36 -22,50 -10,15 -20,26 -32,34 -5,4 -12,7 -19,9 -4,1 -8,1 -13,1 -2,0 -5,0 -8,0 -5,-1 -11,-3 -17,-5 -4,-2 -8,-4 -11,-6 -4,-3 -8,-6 -12,-10 -6,-7 -11,-16 -15,-26 -3,-9 -4,-19 -4,-30 0,-1 0,-2 1,-3 1,-1 2,-1 3,-1 2,0 4,2 4,4 0,3 0,6 1,8 0,8 2,15 5,22 2,5 4,11 7,15 3,4 6,7 10,10 3,3 7,5 10,7 6,3 12,5 18,6 3,0 6,1 9,1 1,0 2,0 4,0 4,-1 8,-2 12,-3 4,-2 9,-4 13,-7 5,-4 10,-9 15,-14 8,-10 15,-21 21,-35l0 1c6,-14 12,-29 17,-46 4,-15 8,-31 11,-47 2,-15 4,-30 5,-43 1,-10 2,-22 1,-33l0 -1c-1,-2 -1,-3 0,-4 1,-1 2,-1 3,-2 0,0 0,0 1,0z"/>
  <path class="fil10" d="M3528 1603c2,0 4,1 4,3 3,16 3,33 1,53 -2,21 -7,41 -13,60 -3,9 -7,19 -12,28 -4,9 -9,17 -15,24 -6,8 -12,15 -19,20 -4,3 -8,6 -12,8 -3,2 -7,4 -12,5 -8,3 -17,5 -27,5 -1,0 -2,0 -3,-1 -7,0 -13,-1 -19,-2 -6,-2 -11,-4 -16,-7 -3,-1 -5,-2 -8,-3 -1,-1 -2,-1 -3,-2 0,-1 0,-3 0,-4 1,-1 3,-3 4,-3 1,0 1,0 2,0 2,2 5,3 8,4 2,1 4,2 6,3 5,2 10,4 14,5 6,0 11,1 16,1 2,0 4,0 7,0 6,-1 12,-3 18,-5 6,-2 12,-5 17,-9l-1 1c7,-5 13,-11 19,-17 7,-9 13,-19 19,-31 8,-17 14,-38 18,-60 4,-23 5,-45 4,-65 -1,-2 -1,-4 -1,-6 0,-2 0,-3 1,-3 0,-1 1,-2 2,-2 0,0 1,0 1,0z"/>
  <path class="fil10" d="M3447 1821c1,0 1,0 1,0 1,0 2,1 3,1 2,3 5,6 9,8 3,2 6,3 9,4 4,1 7,2 11,2l1 0c3,0 7,0 10,-1 4,-1 8,-2 11,-4 4,-2 8,-5 12,-8 0,0 1,-1 2,-1 0,0 1,0 1,0 1,1 2,1 3,2 0,1 0,2 0,3 0,2 -1,2 -2,3 -10,9 -23,15 -37,15 -7,0 -13,-2 -20,-5 -3,-1 -5,-2 -9,-5 -3,-2 -6,-5 -8,-7 -1,-1 -1,-3 -1,-4 0,-1 1,-2 2,-3 1,0 1,0 2,0z"/>
  <path class="fil10" d="M3159 1540c0,0 0,0 1,0 32,3 59,9 82,18 14,5 26,11 37,19 5,4 10,8 15,13 2,2 4,5 6,8 2,3 4,6 5,9 2,6 4,13 4,20 -1,7 -2,14 -4,21 -5,12 -14,23 -26,31 -10,7 -22,12 -37,14 -8,2 -16,2 -26,2 -4,0 -8,0 -12,0 12,18 21,37 27,57 3,11 6,23 7,35 1,12 1,25 -1,36 0,2 -1,3 -2,3 0,0 -1,1 -2,1 0,0 -1,0 -1,-1 -1,0 -2,-1 -3,-1 0,-2 0,-3 0,-4l0 -1 0 -1c2,-11 2,-24 0,-36l0 1c-2,-17 -7,-34 -14,-50 -6,-15 -14,-29 -23,-42 0,-1 -1,-2 0,-3 0,-1 1,-2 2,-3 0,0 1,0 2,0 0,0 0,0 0,0 4,0 7,0 9,0l-1 1 4 -1c2,1 5,1 7,1 12,0 21,-1 31,-3 8,-2 15,-5 22,-8 5,-3 10,-6 14,-10 3,-3 7,-7 9,-11 3,-4 5,-8 6,-13 2,-4 3,-8 3,-13 0,-4 0,-8 -1,-12 -1,-4 -2,-8 -4,-11 -2,-3 -4,-6 -7,-9 -5,-7 -13,-12 -21,-18 -11,-6 -23,-12 -38,-17 -21,-6 -44,-11 -71,-13 -1,0 -2,-1 -2,-2 -1,-1 -2,-2 -1,-3 0,-1 1,-2 1,-3 1,0 2,-1 3,-1z"/>
  <path class="fil5" d="M3044 2025c1,0 2,1 3,1l6 2 0 0c45,17 96,28 149,33 23,2 48,3 72,3 54,0 110,-5 172,-15l0 0c2,0 4,1 5,2 0,1 1,1 1,1 2,2 3,4 3,6 1,55 3,111 4,162l0 3 0 1 0 1 0 1 1 1c3,99 6,201 2,303 -3,85 -11,161 -25,233 -3,19 -8,38 -13,58 -4,16 -8,33 -13,49 -9,33 -18,61 -27,87 -25,68 -53,120 -88,162 -9,11 -20,22 -31,32 -10,10 -22,19 -36,28 -26,18 -54,33 -87,47 -55,24 -118,41 -194,55 -70,12 -139,18 -198,22 -21,2 -42,3 -65,3 -44,0 -88,-3 -131,-6l-2 0 -2 0 -21 -1c18,50 30,104 36,160 6,62 2,129 -12,199 -13,63 -33,127 -61,195 -13,30 -27,60 -43,91 -11,22 -22,42 -34,63l-2029 0c-3,-35 -5,-72 -5,-112 -1,-83 7,-171 23,-260 16,-85 39,-171 70,-254 29,-80 65,-158 107,-230 22,-37 45,-72 70,-104 24,-31 52,-61 81,-89 29,-27 61,-53 97,-77 31,-22 67,-44 112,-69 35,-19 71,-38 103,-54l1 -1 1 0c45,-23 95,-49 142,-77l0 1c41,-25 76,-48 105,-71 -1,-1 -1,-2 0,-4 0,-2 1,-3 3,-4 1,-1 2,-1 4,-1 0,0 1,0 1,0 26,3 52,8 77,13l0 0 2 0c31,6 62,12 94,16l-1 0c33,3 66,5 100,5 13,0 24,0 34,0 38,-2 79,-5 130,-11 29,-3 58,-6 83,-10 25,-3 54,-6 82,-10 1,-2 3,-3 6,-3 27,0 59,0 89,2 16,0 32,2 43,3l2 0 10 1 11 0 10 1 13 1c51,5 101,9 147,14l0 0c0,0 1,0 1,0l3 0 22 3 2 0c126,13 240,29 350,47 69,11 139,25 205,39 17,-29 33,-61 49,-100 8,-18 16,-37 25,-60 2,-5 3,-10 5,-15l3 -8 0 0c1,-1 1,-1 1,-2l3 -7c36,-97 62,-177 83,-252 24,-85 40,-162 48,-235 1,-2 2,-4 4,-4 0,-1 1,-1 2,-1 0,-1 1,-2 3,-2 0,-1 1,-1 2,-1z"/>
  <path class="fil12" d="M2392 3064c1,0 2,1 3,2 38,50 80,107 110,169 5,10 9,20 14,31 0,2 -1,5 -3,5 0,1 -1,1 -1,1 -2,0 -4,-1 -4,-3 -9,-22 -20,-43 -33,-66l1 0c-27,-47 -61,-92 -90,-132 -2,-2 -2,-5 0,-6 1,-1 2,-1 3,-1z"/>
  <path class="fil12" d="M2803 2727c1,0 1,0 2,1 1,0 2,1 2,2 0,2 0,3 0,4 -6,12 -12,24 -18,35 -5,12 -11,23 -17,35 0,1 -1,2 -2,2 -1,0 -1,0 -1,0 -1,0 -2,0 -2,-1 -1,0 -2,-1 -2,-2 -1,-1 -1,-2 0,-3 5,-12 11,-23 16,-34l1 -1 0 -1c6,-11 12,-23 17,-35 1,-1 2,-1 3,-2 0,0 1,0 1,0z"/>
  <path class="fil13" d="M2805 2728c1,1 2,1 2,2 0,2 0,2 -1,4 -5,12 -11,24 -17,35l0 0 0 1c-5,10 -11,22 -17,34 0,1 -1,1 -2,2 -1,0 -1,0 -1,0 -1,0 -2,0 -2,-1 -1,0 -2,-1 -2,-2 -1,-1 0,-2 0,-3 5,-11 11,-22 15,-32l1 -1 1 -1 0 -1 0 0c6,-12 12,-24 17,-36 1,0 2,-1 3,-1 0,0 1,-1 1,-1 1,0 1,1 2,1z"/>
  <path class="fil13" d="M2395 3066c38,50 80,107 110,170 5,10 9,20 13,30 1,2 0,4 -2,5 0,0 -1,1 -1,1 -2,0 -4,-1 -4,-3 -8,-18 -16,-36 -26,-54 -2,-4 -4,-8 -7,-12l1 0 0 0c0,0 0,0 0,0l0 0c-27,-47 -60,-92 -90,-132 -1,-1 -1,-2 -1,-3 0,-1 0,-2 1,-3 1,0 2,-1 3,-1 1,0 2,1 3,2z"/>
  <path class="fil14" d="M2395 3066c38,50 80,107 110,170 5,10 9,20 13,30 1,2 0,4 -2,5 0,0 -1,1 -1,1 -2,0 -4,-1 -4,-3 -7,-18 -16,-35 -25,-53 0,0 0,0 0,0 -3,-4 -5,-9 -7,-13l0 0 0 0 0 0 0 0c0,0 0,0 0,0l0 0c-27,-47 -60,-92 -90,-132 -1,-1 -1,-2 -1,-3 0,-1 0,-2 1,-3 1,0 2,-1 3,-1 1,0 2,1 3,2z"/>
  <path class="fil14" d="M2805 2728c1,1 2,1 2,2 0,2 0,2 -1,4 -5,12 -11,24 -17,35l0 0 0 1c-5,10 -11,22 -17,34 0,1 -1,1 -2,2 -1,0 -1,0 -1,0 -1,0 -2,0 -2,-1 -1,0 -2,-1 -2,-2 -1,-1 0,-2 0,-3 5,-11 11,-22 15,-32l1 -1 1 -1 0 -1 0 0c6,-12 12,-24 17,-36 1,0 2,-1 3,-1 0,0 1,-1 1,-1 1,0 1,1 2,1z"/>
  <path class="fil15" d="M412 3821c0,0 0,0 0,0 0,0 0,0 1,0 0,0 0,0 0,0l0 0c1,0 3,0 4,0l0 0c1,0 2,1 2,1 1,0 1,0 1,0 1,0 1,0 2,0 0,0 0,0 0,0 1,0 1,0 2,0 0,0 0,1 1,1 0,0 1,0 1,0 0,0 1,0 1,0 0,0 1,0 2,0l0 0c6,2 12,3 18,5 0,0 0,0 0,0 1,0 1,0 2,0 1,0 1,0 2,1 0,0 0,0 0,0 11,3 22,7 33,11l0 0c0,0 1,1 1,1l1 0c11,5 21,10 31,16 1,1 3,1 4,2 5,3 10,6 15,10 0,0 0,0 0,0 0,0 0,0 0,0 4,3 7,5 10,8 0,0 0,0 0,0 0,0 0,0 0,0 0,0 1,0 1,0 0,0 0,0 0,0l0 0 -1 0c0,0 0,0 0,0 0,0 0,0 1,0l0 0c0,0 0,0 0,0 0,0 0,0 0,0 0,0 0,0 0,0l0 0c0,0 1,1 1,1 4,3 7,6 10,9 1,0 1,0 1,0 0,0 0,0 0,0 5,4 10,9 15,14 0,0 0,0 0,0 8,8 16,17 23,26 7,10 14,20 20,30 0,0 0,0 0,0 1,1 1,1 1,2 0,0 0,0 1,0l0 1c2,3 3,6 5,10 0,0 0,0 0,0 1,1 1,1 1,2 0,0 0,0 1,1 0,0 0,0 0,0 0,1 1,2 1,2 0,0 0,0 0,0 2,4 4,8 6,12 0,1 0,1 0,1 0,0 0,0 0,1 0,0 1,1 1,1l0 0c2,6 4,11 6,17l-254 0c-3,-35 -5,-72 -6,-112 0,-25 1,-51 2,-77 10,1 20,1 30,3zm0 0l0 0c1,0 1,0 1,0 0,0 0,0 -1,0z"/>
  <path class="fil16" d="M547 3877c0,0 0,0 0,0 0,0 0,0 0,0z"/>
  <path class="fil16" d="M547 3877c0,0 0,0 0,0l0 0c0,0 0,0 0,0z"/>
  <path class="fil15" d="M3280 2962c13,0 25,1 38,2 0,0 0,0 0,0 0,0 0,0 0,0 0,0 0,0 0,0 0,0 0,0 0,0 0,0 0,0 0,0 0,0 0,0 0,0l0 0c13,2 25,5 37,8 7,2 14,4 21,7 -23,57 -49,102 -80,140 -9,11 -20,22 -31,32 -10,10 -22,19 -36,28 -26,18 -54,33 -87,47 -42,18 -88,33 -141,44 -1,-9 -2,-18 -2,-27 0,-13 1,-26 3,-38 0,0 0,0 0,0 1,-12 4,-24 7,-36 3,-12 7,-24 12,-35l0 0c5,-11 10,-22 16,-33 7,-10 13,-20 21,-30 0,0 0,0 0,0 7,-9 15,-19 24,-28 9,-8 17,-16 27,-23 9,-7 19,-14 30,-20 10,-6 21,-12 32,-16 0,0 0,0 0,0 0,0 0,0 0,0 0,0 0,0 0,0 12,-5 24,-9 36,-12 12,-4 24,-6 36,-8l-1 0c1,0 1,0 1,0 0,0 0,0 0,0 0,0 0,0 0,0 0,0 0,0 0,0 12,-1 24,-2 36,-2l1 0zm-109 22l0 0 0 0 0 0z"/>
  <path class="fil15" d="M1367 2405l1 0c0,0 0,0 0,0 0,0 0,0 0,0 42,21 89,37 140,48l-1 0c45,9 93,14 140,14 14,0 28,0 42,-1 61,-4 119,-15 174,-33 6,-2 13,-5 19,-7 2,2 4,3 6,5 4,4 8,7 11,11 3,4 6,8 9,12l-1 0c3,4 5,8 7,12 2,4 3,8 5,12 0,0 0,0 -1,0 2,4 2,8 3,12 1,3 1,7 1,11l0 0c0,7 0,15 -2,22 0,2 -1,4 -2,6 12,7 22,17 29,28 5,7 8,14 11,21 2,8 3,16 3,24 -1,2 -1,3 -3,4 -9,13 -19,25 -30,35 -11,10 -23,20 -37,29 -24,16 -53,29 -87,41 -29,10 -60,17 -94,23 -29,5 -59,8 -91,10 -10,0 -21,1 -31,1 -28,0 -56,-2 -84,-6 -40,-6 -78,-15 -114,-28 -24,-8 -48,-19 -70,-31 -11,-6 -22,-12 -33,-20 -13,-8 -24,-16 -34,-25 0,0 0,0 0,0 0,-1 0,-1 0,-1 -1,-2 -1,-3 -1,-4l0 0c-1,-1 -1,-1 -1,-1 -6,-21 -3,-46 10,-74 5,-12 12,-23 21,-36 7,-9 14,-18 22,-25 -1,-2 -2,-3 -3,-5 0,-1 0,-2 -1,-3 0,-3 -1,-6 -1,-8 -1,-3 -1,-6 -1,-9l0 0c0,-9 1,-18 3,-27 1,-5 3,-9 4,-14 2,-4 4,-9 6,-13l0 0c3,-4 5,-8 8,-11 2,-3 5,-6 7,-9 2,-2 5,-5 7,-6 1,-1 3,-2 4,-3 9,6 19,12 30,19zm551 73l0 0c0,0 0,0 0,0 0,0 0,0 0,0z"/>
  <path class="fil17" d="M1892 2546c1,2 1,4 -1,5 -17,9 -35,17 -53,23 -2,1 -5,-1 -5,-3 -1,-2 1,-4 3,-5 7,-2 14,-5 21,-8 0,0 0,0 0,0 10,-4 20,-9 30,-14 0,0 1,0 2,0 1,0 2,0 3,2z"/>
  <path class="fil17" d="M1328 2515c4,2 7,4 10,6 3,2 6,4 8,6 6,4 12,8 19,11 12,7 25,13 39,19 -1,0 -1,0 -1,-1 44,19 92,31 140,37 0,0 0,0 0,0 55,8 111,8 167,2 4,0 8,-1 13,-1 0,0 -1,0 -1,0 1,0 1,0 1,0 0,0 0,0 0,0l0 0c14,-2 29,-5 43,-8 2,0 4,1 5,3 1,2 -1,5 -3,5 -25,6 -51,9 -77,11 -27,3 -55,3 -83,2 -29,-1 -57,-4 -86,-8 -27,-5 -55,-11 -82,-20 -21,-6 -41,-14 -61,-24 -9,-4 -18,-9 -27,-15 -5,-3 -9,-5 -14,-8 -2,-2 -4,-3 -6,-5 -3,-1 -5,-3 -8,-5 -1,-1 -1,-1 -2,-3 0,-1 0,-2 1,-3 0,-1 1,-1 2,-2 1,0 1,0 1,0 1,0 2,0 2,1zm395 79l0 0 0 0c0,0 0,0 0,0 0,0 0,0 0,0zm-180 -1l0 0c-1,0 -1,0 -1,0 0,0 0,0 1,0z"/>
  <path class="fil15" d="M3059 1889c8,5 17,11 26,15 8,4 16,8 25,12 41,17 85,28 133,35 26,3 53,5 81,5 28,0 57,-2 85,-6l-2 1c19,-3 38,-6 55,-11 2,3 3,6 4,9 0,0 0,0 0,0 4,9 7,18 10,27 2,9 4,19 6,28 0,0 0,0 0,0 1,7 1,15 1,22 0,7 0,15 -1,22l0 0 0 0 0 0c0,0 0,0 0,0 0,0 0,0 0,0l0 0c-1,7 -2,13 -4,19 -2,7 -4,13 -7,19 0,0 1,0 1,0 -3,5 -5,10 -8,15 -1,2 -1,3 -2,4 -52,31 -116,47 -187,47 -6,0 -11,0 -17,0 -35,-1 -72,-7 -109,-16 -34,-9 -68,-21 -99,-36 -8,-4 -14,-7 -19,-10 -4,-3 -8,-5 -11,-8 -3,-5 -4,-10 -5,-16 -2,-5 -3,-11 -4,-16 0,0 1,0 1,0 -3,-19 -2,-37 0,-56 0,0 0,0 0,0 3,-20 8,-40 16,-59l0 0c6,-14 13,-27 22,-39 0,0 0,0 0,0 0,0 0,0 0,0 0,0 0,0 0,0 2,-3 5,-5 7,-8 0,0 1,1 2,1zm-9 7l0 0c0,0 0,0 0,0 0,0 0,0 0,0zm432 152l0 0c0,0 0,0 0,0 0,0 0,0 0,0z"/>
  <path class="fil16" d="M3482 2048c0,0 0,0 0,0 0,0 0,0 0,0 0,0 0,0 0,0z"/>
  <path class="fil18" d="M1135 3057c0,0 0,0 0,0 20,-6 40,-12 60,-18 -20,6 -40,12 -60,18z"/>
  <path class="fil19" d="M993 3295c0,0 0,0 0,0 0,-1 0,-1 1,-2 0,0 0,0 0,0 0,1 -1,1 -1,2z"/>
  <path class="fil19" d="M993 3295c0,0 0,0 0,0 0,-1 0,-1 1,-2 0,0 0,0 0,0 0,1 -1,1 -1,2z"/>
  <path class="fil17" d="M1531 2997c0,0 0,0 0,0l32 106 33 106 -70 22 -71 22 -37 -121 -28 -92 70 -22 71 -21c0,0 0,0 0,0z"/>
  <path class="fil20" d="M1322 2999c0,0 0,0 0,0l44 142 43 141 -93 29 -94 29c-27,-87 -54,-174 -81,-261l-6 -22c60,-19 120,-37 187,-58l0 0z"/>
  <path class="fil21" d="M2116 2932c0,0 0,0 0,0l229 744 101 331 -1236 0 -52 -170c-50,-163 -100,-327 -150,-490 -3,-12 -6,-23 -10,-34 1,-2 2,-4 2,-6l0 0 0 0 0 0c2,-3 4,-7 6,-10 1,-3 4,-6 6,-9 3,-3 6,-7 9,-10 4,-3 7,-6 11,-9 -1,0 -1,0 -1,0 6,-4 11,-7 17,-10 6,-3 12,-6 18,-8l0 0c10,-5 21,-8 33,-11 1,0 3,0 4,0 8,-2 15,-3 23,-4 1,0 2,0 3,0 1,0 1,0 2,0l0 0c0,0 0,0 0,0 7,-2 14,-4 20,-7 4,-1 7,-2 10,-3l459 -141 496 -153 0 0c0,0 0,0 0,0zm-1085 337l0 0c0,0 0,0 0,0 0,0 0,0 0,0z"/>
  <path class="fil22" d="M1129 3236c39,128 78,257 118,385l117 386 -154 0 -52 -170c-50,-163 -100,-327 -150,-490l-5 -19 -5 -15c1,-2 1,-4 2,-6 2,-4 4,-7 5,-10 2,-3 4,-6 7,-9 3,-4 6,-7 9,-10 3,-3 7,-6 10,-9 6,-4 11,-7 17,-10 6,-3 12,-6 18,-9 10,-4 21,-7 33,-10 1,0 3,0 4,-1 5,0 10,-1 15,-2l8 -1c1,0 2,0 3,0z"/>
  <path class="fil23" d="M1142 3281c2,0 4,1 4,3 19,63 39,126 58,189 13,44 27,87 40,131 0,1 0,2 0,3 -1,1 -2,2 -3,2 0,1 -1,1 -1,1 -2,0 -4,-2 -4,-4 -18,-58 -36,-116 -54,-174l-22 -73 -22 -72c0,-1 0,-3 0,-4 1,-1 2,-1 3,-2 0,0 1,0 1,0z"/>
  <path class="fil23" d="M1261 3663c9,29 18,58 27,87 1,2 -1,5 -3,5 -2,1 -4,-1 -5,-3 -9,-29 -18,-58 -27,-87 0,-2 1,-5 3,-5 1,0 1,-1 1,-1 2,0 4,2 4,4z"/>
  <path class="fil4" d="M1960 3135l0 0 0 0 1 3 87 279c-211,66 -423,132 -634,198l0 0 -88 -282c210,-66 421,-131 631,-197l3 -1c0,0 0,0 0,0z"/>
  <path class="fil5" d="M1306 3813c30,1 61,2 91,3l5 0c11,1 21,1 32,1 8,1 15,1 23,1 7,1 15,1 22,1 7,1 14,1 21,1 14,1 29,2 43,3 42,4 84,8 127,11 12,14 23,28 34,44 16,24 29,50 39,75 7,19 12,36 15,54l-1032 0c-1,-17 -1,-34 2,-52 2,-17 5,-33 11,-49 5,-15 12,-30 21,-43 0,0 0,0 0,0 0,-2 1,-4 3,-5 50,-16 105,-27 173,-34 25,-3 53,-5 88,-7 15,-1 30,-1 44,-2 16,-1 31,-1 46,-2 30,-1 60,-1 93,-1 31,0 63,0 99,1z"/>
  <path class="fil14" d="M1205 3805c23,0 47,0 72,1 44,1 91,3 144,6 1,0 2,1 3,2 1,1 1,2 1,3 0,2 -2,4 -4,4 -81,-5 -152,-7 -217,-7 -9,0 -18,0 -27,0 -51,0 -101,2 -148,6l-1 0c-81,6 -160,17 -233,33 0,0 -1,0 -1,0 -2,0 -4,-1 -4,-3 -1,-3 1,-5 3,-5 76,-17 157,-28 241,-34 55,-4 111,-6 171,-6z"/>
  <path class="fil8" d="M2445 3640c4,2 7,5 10,9 3,3 5,7 6,12 1,8 -1,15 -3,20 -3,8 -7,14 -11,20 -7,9 -15,18 -27,27 11,-1 20,-1 29,-1 3,0 6,0 9,0 20,1 38,3 53,9 16,5 28,13 37,23 5,5 9,10 12,16 1,3 3,6 3,9 1,2 2,6 3,10 0,5 0,11 -1,17 -1,6 -4,12 -8,18 -5,8 -11,14 -20,19 17,10 30,27 36,46 3,13 3,26 -1,37 -3,6 -6,11 -10,16 -3,3 -6,6 -10,8 13,12 21,26 26,41 1,3 1,7 2,11l-725 0c0,-3 0,-5 -1,-8 -4,-25 -3,-51 2,-76 2,-13 6,-25 12,-37l0 -1 1 -2c-1,1 -2,1 -3,1 -2,0 -4,-1 -5,-3 -1,-2 -2,-4 -1,-5 0,-2 1,-4 2,-5 6,-3 11,-6 16,-9l2 -1 2 -1 2 -1c1,-2 2,-4 3,-5 2,-2 4,-2 5,-3 2,0 3,1 4,1 4,-2 8,-4 12,-7l4 -2c31,-16 63,-34 97,-51 14,-7 27,-14 41,-20 0,-1 1,-1 1,-1 28,-14 56,-27 84,-40 48,-23 88,-40 127,-55 22,-9 41,-15 59,-21 19,-7 35,-11 51,-15 11,-2 26,-5 42,-6 1,0 2,0 3,0 12,0 20,2 28,6zm-192 129l0 0c23,-7 48,-15 73,-21 26,-7 51,-12 74,-15 1,0 3,-1 3,-2 1,-1 1,-3 1,-4 -1,-1 -2,-2 -3,-3 0,0 -1,0 -2,0l0 0 -1 0c-24,3 -49,8 -75,15 -25,7 -51,15 -72,22 -3,0 -4,3 -4,5 1,2 3,3 5,3 0,0 1,0 1,0zm268 83l0 0c3,-1 5,-3 5,-5 0,-1 -1,-2 -2,-3 -1,-1 -2,-2 -3,-2l0 0c-43,2 -76,3 -106,6 -1,0 -2,1 -3,1 -1,1 -1,2 -1,4 0,1 0,2 1,3 1,1 2,1 3,1 31,-2 64,-4 106,-5zm13 108l0 0c3,0 5,-2 5,-4 0,-3 -2,-5 -5,-5 -35,0 -71,2 -106,5 -2,0 -3,0 -4,1 -1,1 -1,2 -1,3 0,3 2,5 5,5 35,-3 71,-5 106,-5z"/>
  <path class="fil10" d="M2399 3724c1,0 2,0 2,0 1,1 2,2 3,3 0,1 0,3 -1,4 0,1 -2,2 -3,2 -23,3 -48,8 -74,15 -25,6 -50,14 -73,21 0,0 -1,0 -1,0 -2,0 -4,-1 -5,-3 0,-2 1,-5 4,-5 21,-7 47,-15 72,-22 26,-7 51,-12 75,-15l1 0c0,0 0,0 0,0z"/>
  <path class="fil10" d="M2521 3842c1,0 2,1 3,2 1,1 2,2 2,3 0,2 -2,4 -5,5 -42,1 -75,3 -106,5 -1,0 -2,0 -3,-1 -1,-1 -1,-2 -1,-3 0,-2 0,-3 1,-4 1,0 2,-1 3,-1 30,-3 63,-4 106,-6 0,0 0,0 0,0z"/>
  <path class="fil10" d="M2534 3951c3,0 5,2 5,5 0,2 -2,4 -5,4 -35,0 -71,2 -106,5 -3,0 -5,-2 -5,-5 0,-1 0,-2 1,-3 1,-1 2,-1 4,-1 35,-3 71,-5 106,-5z"/>
  <path class="fil15" d="M1841 3807c0,0 0,0 0,0 0,0 0,0 0,0 0,0 0,0 0,0 8,2 16,4 23,7 7,3 14,5 21,9 10,23 20,47 28,72 10,29 18,60 24,92 2,7 3,13 4,20l-245 0c-13,-66 -30,-127 -52,-182 4,-2 9,-3 13,-5 0,1 0,1 0,1 9,-3 18,-6 28,-8 9,-2 18,-4 27,-6 19,-3 38,-5 57,-6 0,0 0,0 0,0l0 0 0 0c4,0 8,0 11,0 21,0 41,2 61,6zm-72 -6l0 0 0 0 0 0z"/>
 </g>
 <g id="Layer_x0020_1_0">
  <metadata id="CorelCorpID_1Corel-Layer"/>
 </g>
</svg>
